<?xml version="1.0" encoding="utf-8"?>
<!-- Generator: Adobe Illustrator 25.2.3, SVG Export Plug-In . SVG Version: 6.00 Build 0)  -->
<svg version="1.1" xmlns="http://www.w3.org/2000/svg" xmlns:xlink="http://www.w3.org/1999/xlink" x="0px" y="0px"
	 viewBox="0 0 597.3 459.2" style="enable-background:new 0 0 597.3 459.2;" xml:space="preserve">
<style type="text/css">
	.st0{fill:none;}
	.st1{fill-opacity:0;}
	.st2{clip-path:url(#SVGID_4_);fill:none;stroke:#EEEEEE;stroke-width:1.5;}
	.st3{fill:none;stroke:#EEEEEE;stroke-width:1.5;stroke-linecap:square;}
	.st4{fill:none;stroke:#EEEEEE;stroke-width:1.5;}
	.st5{clip-path:url(#SVGID_8_);fill:#EEEEEE;}
	.st6{opacity:0.9;clip-path:url(#SVGID_12_);fill:#8A9A5B;enable-background:new    ;}
	.st7{opacity:0.9;clip-path:url(#SVGID_14_);fill:#3F704D;enable-background:new    ;}
	.st8{opacity:0.9;clip-path:url(#SVGID_14_);fill:#B15928;enable-background:new    ;}
	.st9{fill:#3F704D;stroke:#000000;stroke-width:0.5;stroke-miterlimit:10;}
	.st10{fill:#8A9A5B;stroke:#000000;stroke-width:0.5;stroke-miterlimit:10;}
	.st11{clip-path:url(#SVGID_22_);fill:none;stroke:#EEEEEE;stroke-width:1.5;}
	.st12{font-family:'HelveticaNeue';}
	.st13{font-size:6.0558px;}
	.st14{font-family:'HelveticaNeue-Bold';}
	.st15{font-size:8.577px;}
	.st16{font-family:'HelveticaNeue-Light';}
	.st17{font-size:5.5138px;}
	.st18{clip-path:url(#SVGID_26_);fill:#EEEEEE;}
	.st19{opacity:0.9;clip-path:url(#SVGID_30_);fill:#8A9A5B;enable-background:new    ;}
	.st20{opacity:0.9;clip-path:url(#SVGID_32_);fill:#3F704D;enable-background:new    ;}
	.st21{opacity:0.9;clip-path:url(#SVGID_32_);fill:#B15928;enable-background:new    ;}
	.st22{font-size:6.7559px;}
</style>
<g id="graphic">
	<g transform="translate(0, 0)">
	</g>
</g>
<g id="ai2html-settings">
	<rect x="-476" y="-502" class="st0" width="400" height="418"/>
	<text id="ai2html-settings_1_" transform="matrix(1 0 0 1 -475.9779 -491.3931)"><tspan x="0" y="0" style="font-family:'MyriadPro-Regular'; font-size:15px;">ai2html-settings</tspan><tspan x="0" y="19" style="font-family:'MyriadPro-Regular'; font-size:15px;">settings_version: 0.102.0</tspan><tspan x="0" y="38" style="font-family:'MyriadPro-Regular'; font-size:15px;">image_format: auto</tspan><tspan x="0" y="57" style="font-family:'MyriadPro-Regular'; font-size:15px;">responsiveness: dynamic</tspan><tspan x="0" y="76" style="font-family:'MyriadPro-Regular'; font-size:15px;">output: one-file</tspan><tspan x="0" y="95" style="font-family:'MyriadPro-Regular'; font-size:15px;">html_output_path: /ai2html-output/</tspan><tspan x="0" y="114" style="font-family:'MyriadPro-Regular'; font-size:15px;">html_output_extension: .html</tspan><tspan x="0" y="133" style="font-family:'MyriadPro-Regular'; font-size:15px;">image_output_path: </tspan><tspan x="0" y="152" style="font-family:'MyriadPro-Regular'; font-size:15px;">local_preview_template: </tspan><tspan x="0" y="171" style="font-family:'MyriadPro-Regular'; font-size:15px;">png_number_of_colors: 128</tspan><tspan x="0" y="190" style="font-family:'MyriadPro-Regular'; font-size:15px;">jpg_quality: 60</tspan><tspan x="0" y="209" style="font-family:'MyriadPro-Regular'; font-size:15px;">headline: </tspan><tspan x="0" y="228" style="font-family:'MyriadPro-Regular'; font-size:15px;">leadin: </tspan><tspan x="0" y="247" style="font-family:'MyriadPro-Regular'; font-size:15px;">notes: </tspan><tspan x="0" y="266" style="font-family:'MyriadPro-Regular'; font-size:15px;">sources: </tspan><tspan x="0" y="285" style="font-family:'MyriadPro-Regular'; font-size:15px;">credit: </tspan></text>
	<g>
		<rect x="93.9" y="-459.9" class="st0" width="743.9" height="370.1"/>
		<rect x="93.9" y="-459.9" class="st1" width="743.9" height="370.1"/>
		<g>
			<defs>
				<rect id="SVGID_1_" x="93.9" y="-459.9" width="743.9" height="370.1"/>
			</defs>
			<clipPath id="SVGID_2_">
				<use xlink:href="#SVGID_1_"  style="overflow:visible;"/>
			</clipPath>
		</g>
		<g>
			<defs>
				<rect id="SVGID_3_" x="92.7" y="-461.3" width="746.4" height="372.7"/>
			</defs>
			<clipPath id="SVGID_4_">
				<use xlink:href="#SVGID_3_"  style="overflow:visible;"/>
			</clipPath>
			<line class="st2" x1="93.9" y1="-89.9" x2="837.9" y2="-89.9"/>
			<line class="st2" x1="93.9" y1="-120.7" x2="837.9" y2="-120.7"/>
			<line class="st2" x1="93.9" y1="-151.5" x2="837.9" y2="-151.5"/>
			<line class="st2" x1="93.9" y1="-182.4" x2="837.9" y2="-182.4"/>
			<line class="st2" x1="93.9" y1="-213.2" x2="837.9" y2="-213.2"/>
			<line class="st2" x1="93.9" y1="-244.1" x2="837.9" y2="-244.1"/>
			<line class="st2" x1="93.9" y1="-274.9" x2="837.9" y2="-274.9"/>
			<line class="st2" x1="93.9" y1="-305.7" x2="837.9" y2="-305.7"/>
			<line class="st2" x1="93.9" y1="-336.6" x2="837.9" y2="-336.6"/>
			<line class="st2" x1="93.9" y1="-367.4" x2="837.9" y2="-367.4"/>
			<line class="st2" x1="93.9" y1="-398.2" x2="837.9" y2="-398.2"/>
			<line class="st2" x1="93.9" y1="-429.1" x2="837.9" y2="-429.1"/>
			<line class="st2" x1="93.9" y1="-459.9" x2="837.9" y2="-459.9"/>
		</g>
		<line class="st3" x1="93.9" y1="-89.9" x2="837.9" y2="-89.9"/>
		<line class="st4" x1="304.2" y1="-77.9" x2="304.2" y2="-54.5"/>
		<text transform="matrix(6.123234e-17 -1.071 1 6.558268e-17 306.882 -48.7442)" class="st12" style="font-size:9.8847px;">2005</text>
		<line class="st4" x1="336.5" y1="-77.9" x2="336.5" y2="-54.5"/>
		<text transform="matrix(6.123234e-17 -1.071 1 6.558268e-17 339.2272 -48.7442)" class="st12" style="font-size:9.8847px;">2006</text>
		<line class="st4" x1="401.2" y1="-77.9" x2="401.2" y2="-54.5"/>
		<text transform="matrix(6.123234e-17 -1.071 1 6.558268e-17 403.9186 -48.7442)" class="st12" style="font-size:9.8847px;">2008</text>
		<line class="st4" x1="368.9" y1="-77.9" x2="368.9" y2="-54.5"/>
		<text transform="matrix(6.123234e-17 -1.071 1 6.558268e-17 371.5729 -48.7442)" class="st12" style="font-size:9.8847px;">2007</text>
		<line class="st4" x1="142.5" y1="-77.9" x2="142.5" y2="-54.5"/>
		<text transform="matrix(6.123234e-17 -1.071 1 6.558268e-17 145.1534 -48.7442)" class="st12" style="font-size:9.8847px;">2000</text>
		<line class="st4" x1="207.2" y1="-77.9" x2="207.2" y2="-54.5"/>
		<text transform="matrix(6.123234e-17 -1.071 1 6.558268e-17 209.8448 -48.7442)" class="st12" style="font-size:9.8847px;">2002</text>
		<line class="st4" x1="174.8" y1="-77.9" x2="174.8" y2="-54.5"/>
		<text transform="matrix(6.123234e-17 -1.071 1 6.558268e-17 177.4991 -48.7442)" class="st12" style="font-size:9.8847px;">2001</text>
		<line class="st4" x1="239.5" y1="-77.9" x2="239.5" y2="-54.5"/>
		<text transform="matrix(6.123234e-17 -1.071 1 6.558268e-17 242.1906 -48.7442)" class="st12" style="font-size:9.8847px;">2003</text>
		<line class="st4" x1="110.1" y1="-77.9" x2="110.1" y2="-54.5"/>
		<text transform="matrix(6.123234e-17 -1.071 1 6.558268e-17 112.8082 -48.7442)" class="st12" style="font-size:9.8847px;">1999</text>
		<line class="st4" x1="821.7" y1="-77.9" x2="821.7" y2="-54.5"/>
		<text transform="matrix(6.123234e-17 -1.071 1 6.558268e-17 824.4117 -48.7442)" class="st12" style="font-size:9.8847px;">2021</text>
		<line class="st4" x1="433.6" y1="-77.9" x2="433.6" y2="-54.5"/>
		<text transform="matrix(6.123234e-17 -1.071 1 6.558268e-17 436.2643 -48.7442)" class="st12" style="font-size:9.8847px;">2009</text>
		<line class="st4" x1="465.9" y1="-77.9" x2="465.9" y2="-54.5"/>
		<text transform="matrix(6.123234e-17 -1.071 1 6.558268e-17 468.61 -48.7442)" class="st12" style="font-size:9.8847px;">2010</text>
		<line class="st4" x1="530.6" y1="-77.9" x2="530.6" y2="-54.5"/>
		<text transform="matrix(6.123234e-17 -1.071 1 6.558268e-17 533.3014 -48.7442)" class="st12" style="font-size:9.8847px;">2012</text>
		<line class="st4" x1="498.3" y1="-77.9" x2="498.3" y2="-54.5"/>
		<text transform="matrix(6.123234e-17 -1.071 1 6.558268e-17 500.9557 -48.7442)" class="st12" style="font-size:9.8847px;">2011</text>
		<line class="st4" x1="692.3" y1="-77.9" x2="692.3" y2="-54.5"/>
		<text transform="matrix(6.123234e-17 -1.071 1 6.558268e-17 695.0299 -48.7442)" class="st12" style="font-size:9.8847px;">2017</text>
		<line class="st4" x1="660" y1="-77.9" x2="660" y2="-54.5"/>
		<text transform="matrix(6.123234e-17 -1.071 1 6.558268e-17 662.6842 -48.7442)" class="st12" style="font-size:9.8847px;">2016</text>
		<line class="st4" x1="271.8" y1="-77.9" x2="271.8" y2="-54.5"/>
		<text transform="matrix(6.123234e-17 -1.071 1 6.558268e-17 274.5363 -48.7442)" class="st12" style="font-size:9.8847px;">2004</text>
		<line class="st4" x1="563" y1="-77.9" x2="563" y2="-54.5"/>
		<text transform="matrix(6.123234e-17 -1.071 1 6.558268e-17 565.6471 -48.7442)" class="st12" style="font-size:9.8847px;">2013</text>
		<line class="st4" x1="757" y1="-77.9" x2="757" y2="-54.5"/>
		<text transform="matrix(6.123234e-17 -1.071 1 6.558268e-17 759.7213 -48.7442)" class="st12" style="font-size:9.8847px;">2019</text>
		<line class="st4" x1="789.4" y1="-77.9" x2="789.4" y2="-54.5"/>
		<text transform="matrix(6.123234e-17 -1.071 1 6.558268e-17 792.066 -48.7442)" class="st12" style="font-size:9.8847px;">2020</text>
		<line class="st4" x1="724.7" y1="-77.9" x2="724.7" y2="-54.5"/>
		<text transform="matrix(6.123234e-17 -1.071 1 6.558268e-17 727.3756 -48.7442)" class="st12" style="font-size:9.8847px;">2018</text>
		<line class="st4" x1="627.6" y1="-77.9" x2="627.6" y2="-54.5"/>
		<text transform="matrix(6.123234e-17 -1.071 1 6.558268e-17 630.3385 -48.7442)" class="st12" style="font-size:9.8847px;">2015</text>
		<line class="st4" x1="595.3" y1="-77.9" x2="595.3" y2="-54.5"/>
		<text transform="matrix(6.123234e-17 -1.071 1 6.558268e-17 597.9928 -48.7442)" class="st12" style="font-size:9.8847px;">2014</text>
		<text transform="matrix(0.9337 0 0 1 450.692 -26.3662)" class="st14" style="font-size:14px;">Year</text>
		<line class="st3" x1="93.9" y1="-459.9" x2="93.9" y2="-89.9"/>
		<text transform="matrix(0.9337 0 0 1 79.0665 -86.1905)" class="st16" style="font-size:9px;">0</text>
		<line class="st4" x1="93.9" y1="-459.9" x2="88.2" y2="-459.9"/>
		<line class="st4" x1="93.9" y1="-398.2" x2="88.2" y2="-398.2"/>
		<line class="st4" x1="93.9" y1="-336.6" x2="88.2" y2="-336.6"/>
		<line class="st4" x1="93.9" y1="-274.9" x2="88.2" y2="-274.9"/>
		<line class="st4" x1="93.9" y1="-213.2" x2="88.2" y2="-213.2"/>
		<line class="st4" x1="93.9" y1="-151.5" x2="88.2" y2="-151.5"/>
		<line class="st4" x1="93.9" y1="-120.7" x2="88.2" y2="-120.7"/>
		<line class="st4" x1="93.9" y1="-429.1" x2="88.2" y2="-429.1"/>
		<line class="st4" x1="93.9" y1="-367.4" x2="88.2" y2="-367.4"/>
		<line class="st4" x1="93.9" y1="-305.7" x2="88.2" y2="-305.7"/>
		<line class="st4" x1="93.9" y1="-244.1" x2="88.2" y2="-244.1"/>
		<line class="st4" x1="93.9" y1="-182.4" x2="88.2" y2="-182.4"/>
		<line class="st4" x1="93.9" y1="-89.9" x2="88.2" y2="-89.9"/>
		<text transform="matrix(0.9337 0 0 1 60.3844 -456.2588)" class="st16" style="font-size:9px;">6000</text>
		<text transform="matrix(0.9337 0 0 1 60.3844 -394.5806)" class="st16" style="font-size:9px;">5000</text>
		<text transform="matrix(0.9337 0 0 1 60.3844 -332.9029)" class="st16" style="font-size:9px;">4000</text>
		<text transform="matrix(0.9337 0 0 1 60.3844 -271.2246)" class="st16" style="font-size:9px;">3000</text>
		<text transform="matrix(0.9337 0 0 1 60.3844 -209.5469)" class="st16" style="font-size:9px;">2000</text>
		<text transform="matrix(0.9337 0 0 1 60.3844 -147.8682)" class="st16" style="font-size:9px;">1000</text>
		<text transform="matrix(0.9337 0 0 1 66.6119 -117.0293)" class="st16" style="font-size:9px;">500</text>
		<text transform="matrix(0.9337 0 0 1 60.3844 -425.42)" class="st16" style="font-size:9px;">5500</text>
		<text transform="matrix(0.9337 0 0 1 60.3844 -363.7417)" class="st16" style="font-size:9px;">4500</text>
		<text transform="matrix(0.9337 0 0 1 60.3844 -302.0635)" class="st16" style="font-size:9px;">3500</text>
		<text transform="matrix(0.9337 0 0 1 60.3844 -240.3858)" class="st16" style="font-size:9px;">2500</text>
		<text transform="matrix(0.9337 0 0 1 60.3844 -178.7071)" class="st16" style="font-size:9px;">1500</text>
		<text transform="matrix(6.123234e-17 -1.071 1 6.558268e-17 44.5553 -197.4502)" class="st14" style="font-size:14px;">Civilian Fatalities</text>
		<g>
			<defs>
				<rect id="SVGID_5_" x="93.9" y="-459.9" width="743.9" height="370.1"/>
			</defs>
			<clipPath id="SVGID_6_">
				<use xlink:href="#SVGID_5_"  style="overflow:visible;"/>
			</clipPath>
		</g>
		<g>
			<defs>
				<rect id="SVGID_7_" x="26.5" y="-465.5" width="820" height="437.2"/>
			</defs>
			<clipPath id="SVGID_8_">
				<use xlink:href="#SVGID_7_"  style="overflow:visible;"/>
			</clipPath>
			<polygon class="st5" points="93.9,-456.3 93.9,-456.3 93.9,-456.3 			"/>
		</g>
		<g>
			<defs>
				<rect id="SVGID_9_" x="26.5" y="-465.5" width="820" height="437.2"/>
			</defs>
			<clipPath id="SVGID_10_">
				<use xlink:href="#SVGID_9_"  style="overflow:visible;"/>
			</clipPath>
		</g>
		<g>
			<defs>
				<rect id="SVGID_11_" x="26.5" y="-465.5" width="820" height="437.2"/>
			</defs>
			<clipPath id="SVGID_12_">
				<use xlink:href="#SVGID_11_"  style="overflow:visible;"/>
			</clipPath>
			<path id="point-0-0" class="st6" d="M96.4-88.7h27.5v8.9H96.4V-88.7z"/>
			<path id="point-0-1" class="st6" d="M128.7-88.4h27.5v8.5h-27.5V-88.4z"/>
			<path id="point-0-2" class="st6" d="M161.1-86.9h27.5v7h-27.5V-86.9z"/>
			<path id="point-0-3" class="st6" d="M193.4-93.9h27.5v14.1h-27.5V-93.9z"/>
			<path id="point-0-4" class="st6" d="M225.8-100.1h27.5v20.2h-27.5V-100.1z"/>
			<path id="point-0-5" class="st6" d="M258.1-199.1h27.5v119.3h-27.5V-199.1z"/>
			<path id="point-0-6" class="st6" d="M290.4-80.9h27.5v1h-27.5V-80.9z"/>
			<path id="point-0-7" class="st6" d="M322.8-82.3h27.5v2.5h-27.5V-82.3z"/>
			<path id="point-0-8" class="st6" d="M355.1-86.1h27.5v6.2h-27.5V-86.1z"/>
			<path id="point-0-9" class="st6" d="M387.5-83.3H415v3.4h-27.5V-83.3z"/>
			<path id="point-0-10" class="st6" d="M419.8-80.9h27.5v1h-27.5V-80.9z"/>
			<path id="point-0-11" class="st6" d="M452.2-162.6h27.5v82.8h-27.5V-162.6z"/>
			<path id="point-0-12" class="st6" d="M484.5-170.3H512v90.4h-27.5V-170.3z"/>
			<path id="point-0-13" class="st6" d="M516.9-158.6h27.5v78.7h-27.5V-158.6z"/>
			<path id="point-0-14" class="st6" d="M549.2-204h27.5v124.2h-27.5V-204z"/>
			<path id="point-0-15" class="st6" d="M581.6-391.2H609v311.4h-27.5V-391.2z"/>
			<path id="point-0-16" class="st6" d="M613.9-396.4h27.5v316.5h-27.5V-396.4z"/>
			<path id="point-0-17" class="st6" d="M646.2-185.5h27.5v105.6h-27.5V-185.5z"/>
			<path id="point-0-18" class="st6" d="M678.6-163.9h27.5v84h-27.5V-163.9z"/>
			<path id="point-0-19" class="st6" d="M710.9-250h27.5v170.2h-27.5V-250z"/>
			<path id="point-0-20" class="st6" d="M743.3-204.8h27.5v124.9h-27.5V-204.8z"/>
			<path id="point-0-21" class="st6" d="M775.6-216.5h27.5v136.6h-27.5V-216.5z"/>
			<path id="point-0-22" class="st6" d="M808-108.8h27.5v28.9H808V-108.8z"/>
		</g>
		<g>
			<defs>
				<rect id="SVGID_13_" x="26.5" y="-465.5" width="820" height="437.2"/>
			</defs>
			<clipPath id="SVGID_14_">
				<use xlink:href="#SVGID_13_"  style="overflow:visible;"/>
			</clipPath>
			<path id="point-1-0" class="st7" d="M96.4-105.7h27.5V-90H96.4V-105.7z"/>
			<path id="point-1-1" class="st7" d="M128.7-91.6h27.5v2h-27.5V-91.6z"/>
			<path id="point-1-2" class="st7" d="M161.1-99.7h27.5v11.5h-27.5V-99.7z"/>
			<path id="point-1-3" class="st7" d="M193.4-97.3h27.5v2.2h-27.5V-97.3z"/>
			<path id="point-1-4" class="st7" d="M225.8-103.2h27.5v1.9h-27.5V-103.2z"/>
			<path id="point-1-5" class="st7" d="M258.1-203.5h27.5v3.1h-27.5V-203.5z"/>
			<path id="point-1-6" class="st7" d="M290.4-82.9h27.5v0.7h-27.5V-82.9z"/>
			<path id="point-1-7" class="st7" d="M322.8-83.1h27.5l0,0H322.8z"/>
			<path id="point-1-8" class="st8" d="M355.1-86.1h27.5l0,0H355.1z"/>
			<path id="point-1-9" class="st7" d="M387.5-85.9H415v1.4h-27.5V-85.9z"/>
			<path id="point-1-10" class="st7" d="M419.8-144.7h27.5v62.5h-27.5V-144.7z"/>
			<path id="point-1-11" class="st7" d="M452.2-164.5h27.5v0.7h-27.5V-164.5z"/>
			<path id="point-1-12" class="st7" d="M484.5-176H512v4.4h-27.5V-176z"/>
			<path id="point-1-13" class="st7" d="M516.9-165.4h27.5v5.6h-27.5V-165.4z"/>
			<path id="point-1-14" class="st7" d="M549.2-206.3h27.5v1h-27.5V-206.3z"/>
			<path id="point-1-15" class="st7" d="M581.6-436.5H609v44.1h-27.5V-436.5z"/>
			<path id="point-1-16" class="st7" d="M613.9-405.8h27.5v8.2h-27.5V-405.8z"/>
			<path id="point-1-17" class="st7" d="M646.2-196.7h27.5v10h-27.5V-196.7z"/>
			<path id="point-1-18" class="st7" d="M678.6-196.4h27.5v31.3h-27.5V-196.4z"/>
			<path id="point-1-19" class="st7" d="M710.9-256.1h27.5v4.9h-27.5V-256.1z"/>
			<path id="point-1-20" class="st7" d="M743.3-208.4h27.5v2.4h-27.5V-208.4z"/>
			<path id="point-1-21" class="st7" d="M775.6-222.4h27.5v4.7h-27.5V-222.4z"/>
			<path id="point-1-22" class="st7" d="M808-110.4h27.5v0.4H808V-110.4z"/>
		</g>
		<g>
			<defs>
				<rect id="SVGID_15_" x="26.5" y="-465.5" width="820" height="437.2"/>
			</defs>
			<clipPath id="SVGID_16_">
				<use xlink:href="#SVGID_15_"  style="overflow:visible;"/>
			</clipPath>
		</g>
		<g>
			<defs>
				<rect id="SVGID_17_" x="26.5" y="-465.5" width="820" height="437.2"/>
			</defs>
			<clipPath id="SVGID_18_">
				<use xlink:href="#SVGID_17_"  style="overflow:visible;"/>
			</clipPath>
		</g>
		<rect x="79.9" y="-487" class="st0" width="766.2" height="36"/>
		<text transform="matrix(1 0 0 1 84.9563 -474.1914)" class="st12" style="font-size:18px;">In 2014, non-state actors killed twice as many people as state actors did in 23 years in Nigeria</text>
		<rect x="795.5" y="-462" class="st0" width="70.1" height="11"/>
		<g>
			<rect x="860" y="-454.6" class="st9" width="9" height="9"/>
			<rect x="876.8" y="-454" class="st0" width="52.8" height="19.1"/>
			<text transform="matrix(1 0 0 1 879.4462 -447.6207)" class="st12" style="font-size:9px;">state actors </text>
		</g>
		<rect x="860.3" y="-440.6" class="st10" width="9" height="9"/>
		<rect x="879.7" y="-440" class="st0" width="52.8" height="29.4"/>
		<text transform="matrix(1 0 0 1 879.7259 -433.5458)"><tspan x="0" y="0" class="st12" style="font-size:9px;">non-state </tspan><tspan x="0" y="14" class="st12" style="font-size:9px;">actors </tspan></text>
	</g>
	<text transform="matrix(1 0 0 1 -338.9979 -354.7652)" class="st12" style="font-size:9px;">Lorem ipsum</text>
	<g>
		<rect x="75.7" y="103.7" class="st0" width="455.8" height="226.7"/>
		<rect x="75.7" y="103.7" class="st1" width="455.8" height="226.7"/>
		<g>
			<defs>
				<rect id="SVGID_19_" x="75.7" y="103.7" width="455.8" height="226.7"/>
			</defs>
			<clipPath id="SVGID_20_">
				<use xlink:href="#SVGID_19_"  style="overflow:visible;"/>
			</clipPath>
		</g>
		<g>
			<defs>
				<rect id="SVGID_21_" x="75" y="102.9" width="457.3" height="228.3"/>
			</defs>
			<clipPath id="SVGID_22_">
				<use xlink:href="#SVGID_21_"  style="overflow:visible;"/>
			</clipPath>
			<line class="st11" x1="75.7" y1="330.4" x2="531.5" y2="330.4"/>
			<line class="st11" x1="75.7" y1="311.5" x2="531.5" y2="311.5"/>
			<line class="st11" x1="75.7" y1="292.6" x2="531.5" y2="292.6"/>
			<line class="st11" x1="75.7" y1="273.8" x2="531.5" y2="273.8"/>
			<line class="st11" x1="75.7" y1="254.9" x2="531.5" y2="254.9"/>
			<line class="st11" x1="75.7" y1="236" x2="531.5" y2="236"/>
			<line class="st11" x1="75.7" y1="217.1" x2="531.5" y2="217.1"/>
			<line class="st11" x1="75.7" y1="198.2" x2="531.5" y2="198.2"/>
			<line class="st11" x1="75.7" y1="179.3" x2="531.5" y2="179.3"/>
			<line class="st11" x1="75.7" y1="160.4" x2="531.5" y2="160.4"/>
			<line class="st11" x1="75.7" y1="141.5" x2="531.5" y2="141.5"/>
			<line class="st11" x1="75.7" y1="122.6" x2="531.5" y2="122.6"/>
			<line class="st11" x1="75.7" y1="103.7" x2="531.5" y2="103.7"/>
		</g>
		<line class="st3" x1="75.7" y1="330.4" x2="531.5" y2="330.4"/>
		<line class="st4" x1="204.5" y1="337.8" x2="204.5" y2="352.1"/>
		<text transform="matrix(6.123234e-17 -1.071 1 6.558268e-17 206.1723 355.6203)" class="st12 st13">2005</text>
		<line class="st4" x1="224.3" y1="337.8" x2="224.3" y2="352.1"/>
		<text transform="matrix(6.123234e-17 -1.071 1 6.558268e-17 225.9882 355.6203)" class="st12 st13">2006</text>
		<line class="st4" x1="264" y1="337.8" x2="264" y2="352.1"/>
		<text transform="matrix(6.123234e-17 -1.071 1 6.558268e-17 265.6205 355.6203)" class="st12 st13">2008</text>
		<line class="st4" x1="244.2" y1="337.8" x2="244.2" y2="352.1"/>
		<text transform="matrix(6.123234e-17 -1.071 1 6.558268e-17 245.8042 355.6203)" class="st12 st13">2007</text>
		<line class="st4" x1="105.4" y1="337.8" x2="105.4" y2="352.1"/>
		<text transform="matrix(6.123234e-17 -1.071 1 6.558268e-17 107.0908 355.6203)" class="st12 st13">2000</text>
		<line class="st4" x1="145.1" y1="337.8" x2="145.1" y2="352.1"/>
		<text transform="matrix(6.123234e-17 -1.071 1 6.558268e-17 146.7231 355.6203)" class="st12 st13">2002</text>
		<line class="st4" x1="125.3" y1="337.8" x2="125.3" y2="352.1"/>
		<text transform="matrix(6.123234e-17 -1.071 1 6.558268e-17 126.9072 355.6203)" class="st12 st13">2001</text>
		<line class="st4" x1="164.9" y1="337.8" x2="164.9" y2="352.1"/>
		<text transform="matrix(6.123234e-17 -1.071 1 6.558268e-17 166.5395 355.6203)" class="st12 st13">2003</text>
		<line class="st4" x1="85.6" y1="337.8" x2="85.6" y2="352.1"/>
		<text transform="matrix(6.123234e-17 -1.071 1 6.558268e-17 87.2749 355.6203)" class="st12 st13">1999</text>
		<line class="st4" x1="521.6" y1="337.8" x2="521.6" y2="352.1"/>
		<text transform="matrix(6.123234e-17 -1.071 1 6.558268e-17 523.2319 355.6203)" class="st12 st13">2021</text>
		<line class="st4" x1="283.8" y1="337.8" x2="283.8" y2="352.1"/>
		<text transform="matrix(6.123234e-17 -1.071 1 6.558268e-17 285.437 355.6203)" class="st12 st13">2009</text>
		<line class="st4" x1="303.6" y1="337.8" x2="303.6" y2="352.1"/>
		<text transform="matrix(6.123234e-17 -1.071 1 6.558268e-17 305.2534 355.6203)" class="st12 st13">2010</text>
		<line class="st4" x1="343.2" y1="337.8" x2="343.2" y2="352.1"/>
		<text transform="matrix(6.123234e-17 -1.071 1 6.558268e-17 344.8857 355.6203)" class="st12 st13">2012</text>
		<line class="st4" x1="323.4" y1="337.8" x2="323.4" y2="352.1"/>
		<text transform="matrix(6.123234e-17 -1.071 1 6.558268e-17 325.0693 355.6203)" class="st12 st13">2011</text>
		<line class="st4" x1="442.3" y1="337.8" x2="442.3" y2="352.1"/>
		<text transform="matrix(6.123234e-17 -1.071 1 6.558268e-17 443.9672 355.6203)" class="st12 st13">2017</text>
		<line class="st4" x1="422.5" y1="337.8" x2="422.5" y2="352.1"/>
		<text transform="matrix(6.123234e-17 -1.071 1 6.558268e-17 424.1508 355.6203)" class="st12 st13">2016</text>
		<line class="st4" x1="184.7" y1="337.8" x2="184.7" y2="352.1"/>
		<text transform="matrix(6.123234e-17 -1.071 1 6.558268e-17 186.3559 355.6203)" class="st12 st13">2004</text>
		<line class="st4" x1="363.1" y1="337.8" x2="363.1" y2="352.1"/>
		<text transform="matrix(6.123234e-17 -1.071 1 6.558268e-17 364.7021 355.6203)" class="st12 st13">2013</text>
		<line class="st4" x1="482" y1="337.8" x2="482" y2="352.1"/>
		<text transform="matrix(6.123234e-17 -1.071 1 6.558268e-17 483.5995 355.6203)" class="st12 st13">2019</text>
		<line class="st4" x1="501.8" y1="337.8" x2="501.8" y2="352.1"/>
		<text transform="matrix(6.123234e-17 -1.071 1 6.558268e-17 503.4155 355.6203)" class="st12 st13">2020</text>
		<line class="st4" x1="462.1" y1="337.8" x2="462.1" y2="352.1"/>
		<text transform="matrix(6.123234e-17 -1.071 1 6.558268e-17 463.7836 355.6203)" class="st12 st13">2018</text>
		<line class="st4" x1="402.7" y1="337.8" x2="402.7" y2="352.1"/>
		<text transform="matrix(6.123234e-17 -1.071 1 6.558268e-17 404.3344 355.6203)" class="st12 st13">2015</text>
		<line class="st4" x1="382.9" y1="337.8" x2="382.9" y2="352.1"/>
		<text transform="matrix(6.123234e-17 -1.071 1 6.558268e-17 384.5185 355.6203)" class="st12 st13">2014</text>
		<text transform="matrix(0.9337 0 0 1 294.2763 369.3293)" class="st14 st15">Year</text>
		<line class="st3" x1="75.7" y1="103.7" x2="75.7" y2="330.4"/>
		<text transform="matrix(0.9337 0 0 1 66.6035 332.6789)" class="st16 st17">0</text>
		<line class="st4" x1="75.7" y1="103.7" x2="72.2" y2="103.7"/>
		<line class="st4" x1="75.7" y1="141.5" x2="72.2" y2="141.5"/>
		<line class="st4" x1="75.7" y1="179.3" x2="72.2" y2="179.3"/>
		<line class="st4" x1="75.7" y1="217.1" x2="72.2" y2="217.1"/>
		<line class="st4" x1="75.7" y1="254.9" x2="72.2" y2="254.9"/>
		<line class="st4" x1="75.7" y1="292.6" x2="72.2" y2="292.6"/>
		<line class="st4" x1="75.7" y1="311.5" x2="72.2" y2="311.5"/>
		<line class="st4" x1="75.7" y1="122.6" x2="72.2" y2="122.6"/>
		<line class="st4" x1="75.7" y1="160.4" x2="72.2" y2="160.4"/>
		<line class="st4" x1="75.7" y1="198.2" x2="72.2" y2="198.2"/>
		<line class="st4" x1="75.7" y1="236" x2="72.2" y2="236"/>
		<line class="st4" x1="75.7" y1="273.8" x2="72.2" y2="273.8"/>
		<line class="st4" x1="75.7" y1="330.4" x2="72.2" y2="330.4"/>
		<text transform="matrix(0.9337 0 0 1 55.1582 105.9601)" class="st16 st17">6000</text>
		<text transform="matrix(0.9337 0 0 1 55.1582 143.7472)" class="st16 st17">5000</text>
		<text transform="matrix(0.9337 0 0 1 55.1582 181.5324)" class="st16 st17">4000</text>
		<text transform="matrix(0.9337 0 0 1 55.1582 219.3195)" class="st16 st17">3000</text>
		<text transform="matrix(0.9337 0 0 1 55.1582 257.1057)" class="st16 st17">2000</text>
		<text transform="matrix(0.9337 0 0 1 55.1582 294.8928)" class="st16 st17">1000</text>
		<text transform="matrix(0.9337 0 0 1 58.9731 313.7863)" class="st16 st17">500</text>
		<text transform="matrix(0.9337 0 0 1 55.1582 124.8527)" class="st16 st17">5500</text>
		<text transform="matrix(0.9337 0 0 1 55.1582 162.6398)" class="st16 st17">4500</text>
		<text transform="matrix(0.9337 0 0 1 55.1582 200.4269)" class="st16 st17">3500</text>
		<text transform="matrix(0.9337 0 0 1 55.1582 238.2121)" class="st16 st17">2500</text>
		<text transform="matrix(0.9337 0 0 1 55.1582 275.9992)" class="st16 st17">1500</text>
		<text transform="matrix(6.123234e-17 -1.071 1 6.558268e-17 45.4604 264.5168)" class="st14 st15">Civilian Fatalities</text>
		<g>
			<defs>
				<rect id="SVGID_23_" x="75.7" y="103.7" width="455.8" height="226.7"/>
			</defs>
			<clipPath id="SVGID_24_">
				<use xlink:href="#SVGID_23_"  style="overflow:visible;"/>
			</clipPath>
		</g>
		<g>
			<defs>
				<rect id="SVGID_25_" x="34.4" y="100.3" width="502.4" height="267.8"/>
			</defs>
			<clipPath id="SVGID_26_">
				<use xlink:href="#SVGID_25_"  style="overflow:visible;"/>
			</clipPath>
			<polygon class="st18" points="75.7,105.9 75.7,105.9 75.7,105.9 			"/>
		</g>
		<g>
			<defs>
				<rect id="SVGID_27_" x="34.4" y="100.3" width="502.4" height="267.8"/>
			</defs>
			<clipPath id="SVGID_28_">
				<use xlink:href="#SVGID_27_"  style="overflow:visible;"/>
			</clipPath>
		</g>
		<g>
			<defs>
				<rect id="SVGID_29_" x="34.4" y="100.3" width="502.4" height="267.8"/>
			</defs>
			<clipPath id="SVGID_30_">
				<use xlink:href="#SVGID_29_"  style="overflow:visible;"/>
			</clipPath>
			<path id="point-0-0_1_" class="st19" d="M77.2,331.1H94v5.4H77.2V331.1z"/>
			<path id="point-0-1_1_" class="st19" d="M97,331.3h16.8v5.2H97V331.3z"/>
			<path id="point-0-2_1_" class="st19" d="M116.8,332.3h16.8v4.3h-16.8V332.3z"/>
			<path id="point-0-3_1_" class="st19" d="M136.7,327.9h16.8v8.6h-16.8V327.9z"/>
			<path id="point-0-4_1_" class="st19" d="M156.5,324.2h16.8v12.4h-16.8V324.2z"/>
			<path id="point-0-5_1_" class="st19" d="M176.3,263.5h16.8v73.1h-16.8V263.5z"/>
			<path id="point-0-6_1_" class="st19" d="M196.1,335.9h16.8v0.6h-16.8V335.9z"/>
			<path id="point-0-7_1_" class="st19" d="M215.9,335h16.8v1.5h-16.8V335z"/>
			<path id="point-0-8_1_" class="st19" d="M235.7,332.7h16.8v3.8h-16.8V332.7z"/>
			<path id="point-0-9_1_" class="st19" d="M255.5,334.5h16.8v2.1h-16.8V334.5z"/>
			<path id="point-0-10_1_" class="st19" d="M275.4,335.9h16.8v0.6h-16.8V335.9z"/>
			<path id="point-0-11_1_" class="st19" d="M295.2,285.8H312v50.7h-16.8V285.8z"/>
			<path id="point-0-12_1_" class="st19" d="M315,281.2h16.8v55.4H315V281.2z"/>
			<path id="point-0-13_1_" class="st19" d="M334.8,288.3h16.8v48.2h-16.8V288.3z"/>
			<path id="point-0-14_1_" class="st19" d="M354.6,260.5h16.8v76.1h-16.8V260.5z"/>
			<path id="point-0-15_1_" class="st19" d="M374.4,145.8h16.8v190.7h-16.8V145.8z"/>
			<path id="point-0-16_1_" class="st19" d="M394.3,142.6h16.8v193.9h-16.8V142.6z"/>
			<path id="point-0-17_1_" class="st19" d="M414.1,271.9h16.8v64.7h-16.8V271.9z"/>
			<path id="point-0-18_1_" class="st19" d="M433.9,285.1h16.8v51.5h-16.8V285.1z"/>
			<path id="point-0-19_1_" class="st19" d="M453.7,232.3h16.8v104.3h-16.8V232.3z"/>
			<path id="point-0-20_1_" class="st19" d="M473.5,260h16.8v76.5h-16.8V260z"/>
			<path id="point-0-21_1_" class="st19" d="M493.3,252.9h16.8v83.7h-16.8V252.9z"/>
			<path id="point-0-22_1_" class="st19" d="M513.2,318.8H530v17.7h-16.8V318.8z"/>
		</g>
		<g>
			<defs>
				<rect id="SVGID_31_" x="34.4" y="100.3" width="502.4" height="267.8"/>
			</defs>
			<clipPath id="SVGID_32_">
				<use xlink:href="#SVGID_31_"  style="overflow:visible;"/>
			</clipPath>
			<path id="point-1-0_1_" class="st20" d="M77.2,320.7H94v9.6H77.2V320.7z"/>
			<path id="point-1-1_1_" class="st20" d="M97,329.3h16.8v1.2H97V329.3z"/>
			<path id="point-1-2_1_" class="st20" d="M116.8,324.4h16.8v7.1h-16.8V324.4z"/>
			<path id="point-1-3_1_" class="st20" d="M136.7,325.9h16.8v1.3h-16.8V325.9z"/>
			<path id="point-1-4_1_" class="st20" d="M156.5,322.2h16.8v1.2h-16.8V322.2z"/>
			<path id="point-1-5_1_" class="st20" d="M176.3,260.8h16.8v1.9h-16.8V260.8z"/>
			<path id="point-1-6_1_" class="st20" d="M196.1,334.7h16.8v0.5h-16.8V334.7z"/>
			<path id="point-1-7_1_" class="st20" d="M215.9,334.6h16.8l0,0H215.9z"/>
			<path id="point-1-8_1_" class="st21" d="M235.7,332.7h16.8l0,0H235.7z"/>
			<path id="point-1-9_1_" class="st20" d="M255.5,332.9h16.8v0.9h-16.8V332.9z"/>
			<path id="point-1-10_1_" class="st20" d="M275.4,296.8h16.8v38.3h-16.8V296.8z"/>
			<path id="point-1-11_1_" class="st20" d="M295.2,284.7H312v0.4h-16.8V284.7z"/>
			<path id="point-1-12_1_" class="st20" d="M315,277.7h16.8v2.7H315V277.7z"/>
			<path id="point-1-13_1_" class="st20" d="M334.8,284.1h16.8v3.4h-16.8V284.1z"/>
			<path id="point-1-14_1_" class="st20" d="M354.6,259.1h16.8v0.6h-16.8V259.1z"/>
			<path id="point-1-15_1_" class="st20" d="M374.4,118h16.8v27h-16.8V118z"/>
			<path id="point-1-16_1_" class="st20" d="M394.3,136.9h16.8v5h-16.8V136.9z"/>
			<path id="point-1-17_1_" class="st20" d="M414.1,265h16.8v6.1h-16.8V265z"/>
			<path id="point-1-18_1_" class="st20" d="M433.9,265.1h16.8v19.2h-16.8V265.1z"/>
			<path id="point-1-19_1_" class="st20" d="M453.7,228.6h16.8v3h-16.8V228.6z"/>
			<path id="point-1-20_1_" class="st20" d="M473.5,257.8h16.8v1.5h-16.8V257.8z"/>
			<path id="point-1-21_1_" class="st20" d="M493.3,249.2h16.8v2.9h-16.8V249.2z"/>
			<path id="point-1-22_1_" class="st20" d="M513.2,317.9H530v0.2h-16.8V317.9z"/>
		</g>
		<g>
			<defs>
				<rect id="SVGID_33_" x="34.4" y="100.3" width="502.4" height="267.8"/>
			</defs>
			<clipPath id="SVGID_34_">
				<use xlink:href="#SVGID_33_"  style="overflow:visible;"/>
			</clipPath>
		</g>
		<g>
			<defs>
				<rect id="SVGID_35_" x="34.4" y="100.3" width="502.4" height="267.8"/>
			</defs>
			<clipPath id="SVGID_36_">
				<use xlink:href="#SVGID_35_"  style="overflow:visible;"/>
			</clipPath>
		</g>
		<rect x="67.1" y="87.1" class="st0" width="469.4" height="22.1"/>
		<text transform="matrix(1 0 0 1 159.9316 91.924)" class="st12 st22">In 2014, non-state actors killed twice as many people as state actors did in 23 years in Nigeria</text>
		<rect x="505.5" y="102.4" class="st0" width="43" height="6.7"/>
		<g>
			<rect x="545" y="107" class="st9" width="5.5" height="5.5"/>
			<rect x="555.3" y="107.3" class="st0" width="32.3" height="11.7"/>
			<text transform="matrix(1 0 0 1 556.9482 111.2521)" class="st12 st17">state actors </text>
		</g>
		<rect x="545.2" y="115.6" class="st10" width="5.5" height="5.5"/>
		<rect x="557.1" y="115.9" class="st0" width="32.3" height="18"/>
		<text transform="matrix(1 0 0 1 557.1186 119.8752)"><tspan x="0" y="0" class="st12 st17">non-state </tspan><tspan x="0" y="8.6" class="st12 st17">actors </tspan></text>
	</g>
</g>
</svg>
