<svg id="Layer_1" data-name="Layer 1" xmlns="http://www.w3.org/2000/svg" viewBox="0 0 854.02 436.34"><defs><style>.cls-1,.cls-2,.cls-6,.cls-8,.cls-9{fill:none;}.cls-1{stroke:#eaeaea;opacity:0.5;}.cls-1,.cls-2,.cls-6,.cls-8{stroke-miterlimit:10;}.cls-2{stroke:#888;}.cls-3{isolation:isolate;}.cls-4{fill:#ef7fe8;}.cls-5{fill:#fff;}.cls-6{stroke:#1d1d1b;}.cls-6,.cls-8{stroke-width:1.5px;}.cls-7{fill:#1d1d1b;}.cls-8{stroke:#000;}</style></defs><line class="cls-1" x1="42.52" y1="330.71" x2="837.96" y2="330.71"/><line class="cls-1" x1="42.52" y1="287.71" x2="838.02" y2="287.71"/><line class="cls-1" x1="42.52" y1="244.71" x2="837.99" y2="244.71"/><line class="cls-1" x1="42.52" y1="202.71" x2="837.99" y2="202.71"/><line class="cls-1" x1="42.52" y1="159.71" x2="837.99" y2="159.71"/><line class="cls-1" x1="42.52" y1="116.71" x2="838.02" y2="116.71"/><line class="cls-1" x1="42.52" y1="73.71" x2="838.02" y2="73.71"/><line class="cls-2" x1="42.52" y1="373.78" x2="42.52" y2="378.78"/><line class="cls-2" x1="307.11" y1="373.78" x2="307.11" y2="378.78"/><line class="cls-2" x1="569.59" y1="373.78" x2="569.59" y2="378.78"/><line class="cls-2" x1="839.01" y1="373.78" x2="839.01" y2="378.78"/><g class="cls-3"><path d="M40.4,392.81H43v-6.56H41v-.75a6.4,6.4,0,0,0,2.3-.66h.87v8h2.32v1H40.4Z"/><path d="M48.55,393l.64-.73A2.64,2.64,0,0,0,51,393c1.44,0,2.72-1,2.72-4,0-2.2-.86-3.37-2.33-3.37a1.85,1.85,0,0,0-1.89,1.94,1.71,1.71,0,0,0,1.91,1.89,3.12,3.12,0,0,0,2.32-1.26l0,.91a3.66,3.66,0,0,1-2.59,1.22,2.53,2.53,0,0,1-2.77-2.76,2.88,2.88,0,0,1,3-2.87c1.95,0,3.43,1.43,3.43,4.3,0,3.59-1.81,5-3.74,5A3.61,3.61,0,0,1,48.55,393Z"/><path d="M57,393l.64-.73a2.64,2.64,0,0,0,1.78.7c1.44,0,2.72-1,2.72-4,0-2.2-.86-3.37-2.33-3.37a1.85,1.85,0,0,0-1.89,1.94,1.71,1.71,0,0,0,1.91,1.89,3.12,3.12,0,0,0,2.32-1.26l0,.91a3.66,3.66,0,0,1-2.59,1.22,2.53,2.53,0,0,1-2.77-2.76,2.88,2.88,0,0,1,3-2.87c2,0,3.43,1.43,3.43,4.3,0,3.59-1.81,5-3.74,5A3.61,3.61,0,0,1,57,393Z"/><path d="M65.24,389.28c0-3,1.21-4.61,3.2-4.61s3.21,1.61,3.21,4.61-1.22,4.66-3.21,4.66S65.24,392.25,65.24,389.28Zm5.33,0c0-2.56-.88-3.67-2.13-3.67s-2.13,1.11-2.13,3.67S67.2,393,68.44,393,70.57,391.84,70.57,389.28Zm-3-.1a.87.87,0,1,1,.87.94A.87.87,0,0,1,67.57,389.18Z"/></g><g class="cls-3"><path d="M291.33,394.09c3-2.67,4.68-4.24,4.68-5.73,0-1-.62-1.74-1.94-1.74a3.08,3.08,0,0,0-2.14,1.07l-.67-.66a4,4,0,0,1,2.95-1.36,2.61,2.61,0,0,1,2.92,2.63c0,1.69-1.68,3.35-4.11,5.55.56,0,1.14-.07,1.67-.07h2.93v1h-6.29Z"/><path d="M299.7,390.28c0-3,1.22-4.61,3.21-4.61s3.21,1.61,3.21,4.61-1.22,4.66-3.21,4.66S299.7,393.25,299.7,390.28Zm5.34,0c0-2.56-.88-3.67-2.13-3.67s-2.13,1.11-2.13,3.67.88,3.73,2.13,3.73S305,392.84,305,390.28Zm-3-.1a.87.87,0,1,1,.87.94A.87.87,0,0,1,302,390.18Z"/><path d="M308.1,390.28c0-3,1.22-4.61,3.21-4.61s3.21,1.61,3.21,4.61-1.22,4.66-3.21,4.66S308.1,393.25,308.1,390.28Zm5.34,0c0-2.56-.89-3.67-2.13-3.67s-2.13,1.11-2.13,3.67.88,3.73,2.13,3.73S313.44,392.84,313.44,390.28Zm-3-.1a.87.87,0,1,1,.87.94A.87.87,0,0,1,310.44,390.18Z"/><path d="M316.5,390.28c0-3,1.22-4.61,3.21-4.61s3.21,1.61,3.21,4.61-1.22,4.66-3.21,4.66S316.5,393.25,316.5,390.28Zm5.34,0c0-2.56-.89-3.67-2.13-3.67s-2.13,1.11-2.13,3.67.88,3.73,2.13,3.73S321.84,392.84,321.84,390.28Zm-3-.1a.87.87,0,1,1,.87.94A.87.87,0,0,1,318.84,390.18Z"/></g><g class="cls-3"><path d="M553.81,394.42c3-2.67,4.68-4.24,4.68-5.72,0-1-.62-1.74-1.94-1.74a3.07,3.07,0,0,0-2.14,1.06l-.67-.66a4,4,0,0,1,3-1.35,2.61,2.61,0,0,1,2.92,2.63c0,1.68-1.68,3.35-4.11,5.55.56-.05,1.14-.07,1.67-.07h2.93v1h-6.29Z"/><path d="M562.18,390.61c0-3,1.22-4.6,3.21-4.6s3.21,1.61,3.21,4.6-1.22,4.67-3.21,4.67S562.18,393.58,562.18,390.61Zm5.34,0c0-2.56-.89-3.67-2.13-3.67s-2.13,1.11-2.13,3.67.88,3.73,2.13,3.73S567.52,393.18,567.52,390.61Zm-3-.09a.87.87,0,1,1,.87.93A.87.87,0,0,1,564.52,390.52Z"/><path d="M570.94,394.14h2.58v-6.55h-2v-.76a6.46,6.46,0,0,0,2.3-.66h.86v8H577v1h-6.07Z"/><path d="M579,390.61c0-3,1.22-4.6,3.21-4.6s3.21,1.61,3.21,4.6-1.22,4.67-3.21,4.67S579,393.58,579,390.61Zm5.34,0c0-2.56-.89-3.67-2.13-3.67s-2.13,1.11-2.13,3.67.88,3.73,2.13,3.73S584.32,393.18,584.32,390.61Zm-3-.09a.87.87,0,1,1,.87.93A.87.87,0,0,1,581.32,390.52Z"/></g><g class="cls-3"><path d="M806.67,393.09c3-2.67,4.68-4.24,4.68-5.73,0-1-.61-1.74-1.93-1.74a3.06,3.06,0,0,0-2.14,1.07l-.68-.66a4,4,0,0,1,3-1.36,2.6,2.6,0,0,1,2.91,2.63c0,1.69-1.68,3.35-4.1,5.55.56,0,1.13-.07,1.66-.07H813v1h-6.29Z"/><path d="M815,389.28c0-3,1.22-4.61,3.21-4.61s3.21,1.61,3.21,4.61-1.22,4.66-3.21,4.66S815,392.25,815,389.28Zm5.34,0c0-2.56-.88-3.67-2.13-3.67s-2.13,1.11-2.13,3.67S817,393,818.25,393,820.38,391.84,820.38,389.28Zm-3-.1a.87.87,0,1,1,.87.94A.87.87,0,0,1,817.38,389.18Z"/><path d="M823.47,393.09c3-2.67,4.68-4.24,4.68-5.73,0-1-.62-1.74-1.93-1.74a3.11,3.11,0,0,0-2.15,1.07l-.67-.66a4,4,0,0,1,3-1.36,2.6,2.6,0,0,1,2.91,2.63c0,1.69-1.68,3.35-4.1,5.55.56,0,1.13-.07,1.66-.07h2.93v1h-6.29Z"/><path d="M831.84,389.28c0-3,1.22-4.61,3.21-4.61s3.21,1.61,3.21,4.61-1.22,4.66-3.21,4.66S831.84,392.25,831.84,389.28Zm5.34,0c0-2.56-.88-3.67-2.13-3.67s-2.13,1.11-2.13,3.67.89,3.73,2.13,3.73S837.18,391.84,837.18,389.28Zm-3-.1a.87.87,0,1,1,.87.94A.87.87,0,0,1,834.18,389.18Z"/></g><g class="cls-3"><path d="M411.94,409.47l-3.52-6.75h1.42l1.57,3.1c.4.82.77,1.62,1.2,2.45h.07c.41-.83.83-1.63,1.23-2.45l1.52-3.1h1.38l-3.53,6.75v3.75h-1.34Z"/><path d="M418.5,409.31a3.91,3.91,0,0,1,4-4.06A3.34,3.34,0,0,1,426,408.9a5.82,5.82,0,0,1-.06.8h-6.58v-1h5.79l-.33.37c0-1.84-.91-2.75-2.34-2.75a2.74,2.74,0,0,0-2.69,3,2.82,2.82,0,0,0,3,3,4.21,4.21,0,0,0,2.37-.73l.48.86a5.27,5.27,0,0,1-3,.93A3.94,3.94,0,0,1,418.5,409.31Z"/><path d="M428.29,411.2c0-1.74,1.63-2.59,5.65-2.91a1.84,1.84,0,0,0-2.06-2,5.48,5.48,0,0,0-2.72.92l-.53-.89a6.83,6.83,0,0,1,3.47-1.12,2.89,2.89,0,0,1,3.17,3.2v4.77h-1.1l-.12-1.06h0a5.19,5.19,0,0,1-3.06,1.25C429.49,413.41,428.29,412.59,428.29,411.2Zm5.65,0v-2c-3.33.26-4.34.91-4.34,1.94,0,.88.8,1.23,1.7,1.23A4.28,4.28,0,0,0,433.94,411.19Z"/><path d="M438.93,405.44H440l.13,1.84h0a4.1,4.1,0,0,1,3.47-2,3.28,3.28,0,0,1,1.54.32l-.31,1.13a4,4,0,0,0-1.44-.25c-1.17,0-2.27.59-3.2,2.22v4.55h-1.33Z"/></g><line class="cls-2" x1="42.52" y1="373.78" x2="37.52" y2="373.78"/><line class="cls-2" x1="42.52" y1="330.78" x2="37.52" y2="330.78"/><line class="cls-2" x1="42.52" y1="287.78" x2="37.52" y2="287.78"/><line class="cls-2" x1="42.52" y1="244.78" x2="37.52" y2="244.78"/><line class="cls-2" x1="42.52" y1="202.78" x2="37.52" y2="202.78"/><line class="cls-2" x1="42.52" y1="159.78" x2="37.52" y2="159.78"/><line class="cls-2" x1="42.52" y1="116.78" x2="37.52" y2="116.78"/><line class="cls-2" x1="42.52" y1="73.78" x2="37.52" y2="73.78"/><g class="cls-3"><path d="M25.55,370.28c0-3,1.22-4.61,3.21-4.61S32,367.28,32,370.28s-1.22,4.66-3.21,4.66S25.55,373.25,25.55,370.28Zm5.34,0c0-2.56-.88-3.67-2.13-3.67s-2.13,1.11-2.13,3.67.89,3.73,2.13,3.73S30.89,372.84,30.89,370.28Zm-3-.1a.87.87,0,1,1,.87.94A.87.87,0,0,1,27.89,370.18Z"/></g><g class="cls-3"><path d="M25.34,332.87l.58-.77a3.56,3.56,0,0,0,2.52,1,2.07,2.07,0,0,0,2.26-2,1.93,1.93,0,0,0-2.19-1.95,3.26,3.26,0,0,0-1.82.54l-.62-.4.3-4.3h5.05v1h-4l-.24,2.63a3.89,3.89,0,0,1,1.65-.36c1.71,0,3.07.87,3.07,2.8a3.08,3.08,0,0,1-3.3,3A4.54,4.54,0,0,1,25.34,332.87Z"/></g><g class="cls-3"><path d="M17.52,290.1H20.1v-6.56h-2v-.76a6.63,6.63,0,0,0,2.3-.65h.87v8h2.32v1H17.52Z"/><path d="M25.55,286.57c0-3,1.22-4.61,3.21-4.61S32,283.57,32,286.57s-1.22,4.66-3.21,4.66S25.55,289.54,25.55,286.57Zm5.34,0c0-2.57-.88-3.67-2.13-3.67s-2.13,1.1-2.13,3.67.89,3.72,2.13,3.72S30.89,289.13,30.89,286.57Zm-3-.1a.87.87,0,1,1,.87.94A.87.87,0,0,1,27.89,286.47Z"/></g><g class="cls-3"><path d="M17.52,247.24H20.1v-6.56h-2v-.75a6.4,6.4,0,0,0,2.3-.66h.87v8h2.32v1H17.52Z"/><path d="M25.34,247.15l.58-.77a3.52,3.52,0,0,0,2.52,1,2.08,2.08,0,0,0,2.26-2,1.93,1.93,0,0,0-2.19-1.95,3.33,3.33,0,0,0-1.82.53l-.62-.39.3-4.3h5.05v1h-4l-.24,2.63a3.89,3.89,0,0,1,1.65-.36c1.71,0,3.07.86,3.07,2.8a3.07,3.07,0,0,1-3.3,3A4.5,4.5,0,0,1,25.34,247.15Z"/></g><g class="cls-3"><path d="M17.18,204.66c3-2.67,4.68-4.24,4.68-5.73,0-1-.62-1.73-1.93-1.73a3.09,3.09,0,0,0-2.15,1.06l-.67-.66a4,4,0,0,1,3-1.36A2.6,2.6,0,0,1,23,198.88c0,1.68-1.68,3.34-4.1,5.54.56,0,1.13-.07,1.66-.07h2.93v1H17.18Z"/><path d="M25.55,200.85c0-3,1.22-4.61,3.21-4.61S32,197.85,32,200.85s-1.22,4.67-3.21,4.67S25.55,203.82,25.55,200.85Zm5.34,0c0-2.56-.88-3.67-2.13-3.67s-2.13,1.11-2.13,3.67.89,3.73,2.13,3.73S30.89,203.42,30.89,200.85Zm-3-.1a.87.87,0,1,1,.87.94A.87.87,0,0,1,27.89,200.75Z"/></g><g class="cls-3"><path d="M17.18,161.8c3-2.67,4.68-4.24,4.68-5.72,0-1-.62-1.74-1.93-1.74a3.13,3.13,0,0,0-2.15,1.06l-.67-.66a4,4,0,0,1,3-1.35A2.6,2.6,0,0,1,23,156c0,1.68-1.68,3.35-4.1,5.55.56,0,1.13-.07,1.66-.07h2.93v1H17.18Z"/><path d="M25.34,161.44l.58-.77a3.56,3.56,0,0,0,2.52,1,2.07,2.07,0,0,0,2.26-2,1.93,1.93,0,0,0-2.19-1.95,3.34,3.34,0,0,0-1.82.54l-.62-.4.3-4.3h5.05v1h-4l-.24,2.64a3.75,3.75,0,0,1,1.65-.37c1.71,0,3.07.87,3.07,2.8a3.07,3.07,0,0,1-3.3,3A4.5,4.5,0,0,1,25.34,161.44Z"/></g><g class="cls-3"><path d="M17,118.54l.59-.75a3.65,3.65,0,0,0,2.56,1c1.22,0,2.13-.63,2.13-1.63s-.9-1.78-3.24-1.78v-.88c2.12,0,2.93-.73,2.93-1.67s-.74-1.4-1.82-1.4a3.38,3.38,0,0,0-2.2.9l-.62-.73a4.37,4.37,0,0,1,2.86-1.12c1.68,0,3,.83,3,2.27,0,1.08-.8,1.76-1.91,2.13v0a2.48,2.48,0,0,1,2.22,2.27c0,1.59-1.46,2.55-3.24,2.55A4.37,4.37,0,0,1,17,118.54Z"/><path d="M25.55,115.14c0-3,1.22-4.61,3.21-4.61S32,112.14,32,115.14s-1.22,4.66-3.21,4.66S25.55,118.11,25.55,115.14Zm5.34,0c0-2.57-.88-3.67-2.13-3.67s-2.13,1.1-2.13,3.67.89,3.72,2.13,3.72S30.89,117.7,30.89,115.14Zm-3-.1a.87.87,0,1,1,.87.94A.87.87,0,0,1,27.89,115Z"/></g><g class="cls-3"><path d="M17,82.68l.59-.75a3.61,3.61,0,0,0,2.56,1c1.22,0,2.13-.63,2.13-1.63s-.9-1.78-3.24-1.78v-.88c2.12,0,2.93-.73,2.93-1.67s-.74-1.4-1.82-1.4a3.38,3.38,0,0,0-2.2.9l-.62-.73a4.37,4.37,0,0,1,2.86-1.12c1.68,0,3,.83,3,2.27,0,1.08-.8,1.77-1.91,2.13v.06a2.47,2.47,0,0,1,2.22,2.27c0,1.58-1.46,2.54-3.24,2.54A4.37,4.37,0,0,1,17,82.68Z"/><path d="M25.34,82.73l.58-.77a3.56,3.56,0,0,0,2.52,1,2.08,2.08,0,0,0,2.26-2,1.93,1.93,0,0,0-2.19-2,3.33,3.33,0,0,0-1.82.53l-.62-.39.3-4.3h5.05v1h-4l-.24,2.63a3.89,3.89,0,0,1,1.65-.36c1.71,0,3.07.87,3.07,2.8a3.07,3.07,0,0,1-3.3,3A4.54,4.54,0,0,1,25.34,82.73Z"/></g><line class="cls-2" x1="42.52" y1="373.78" x2="42.52" y2="73.78"/><g class="cls-3"><path d="M18.79,50.23h1.47l3.36,6.6,1,2.17h0c-.05-1-.18-2.22-.18-3.33V50.23h1.28v10.5H24.3l-3.36-6.59-1-2.18h0c0,1.07.17,2.19.17,3.28v5.49H18.79Z"/><path d="M28.17,56.83a3.91,3.91,0,0,1,4-4.07,3.35,3.35,0,0,1,3.55,3.65,5.82,5.82,0,0,1-.06.8H29.05v-1h5.79l-.34.36c0-1.84-.91-2.75-2.33-2.75a2.74,2.74,0,0,0-2.69,3,2.82,2.82,0,0,0,3,3,4.24,4.24,0,0,0,2.37-.74l.48.87a5.35,5.35,0,0,1-3,.92A3.93,3.93,0,0,1,28.17,56.83Z"/><path d="M36.81,53h1.31l.93,4.52c.14.73.25,1.41.35,2.14h.06c.1-.73.28-1.42.45-2.14l1-4h1.31l.93,4a18.27,18.27,0,0,1,.48,2.14h.07c.12-.73.21-1.41.35-2.14L44.94,53h1.21l-1.66,7.78h-1.7L41.9,57c-.13-.55-.26-1.31-.39-2.31h-.06c-.13,1-.26,1.76-.39,2.31l-.86,3.71H38.5Z"/><path d="M57,62.16a2.15,2.15,0,0,1,1.28-1.73v-.07a1.39,1.39,0,0,1-.8-1.28,1.9,1.9,0,0,1,.93-1.45v-.07a2.47,2.47,0,0,1-1-2,2.86,2.86,0,0,1,3.06-2.79,3.15,3.15,0,0,1,1.15.19h3.22V54h-2a2.33,2.33,0,0,1,.65,1.56,2.72,2.72,0,0,1-3,2.68A3.47,3.47,0,0,1,59.22,58a1.07,1.07,0,0,0-.6.9c0,.6.59.89,1.61.89H62c2,0,3,.51,3,1.83s-1.68,2.72-4.32,2.72C58.34,64.32,57,63.53,57,62.16Zm6.61-.36c0-.73-.59-.94-1.78-.94H60.34a4.26,4.26,0,0,1-1.18-.13c-.74.4-1,.85-1,1.3,0,.82.88,1.33,2.54,1.33S63.64,62.61,63.64,61.8Zm-1.31-6.25a1.8,1.8,0,1,0-1.79,1.84A1.76,1.76,0,0,0,62.33,55.55Z"/><path d="M66.76,58.72c0-1.75,1.63-2.6,5.65-2.92a1.85,1.85,0,0,0-2.07-1.95,5.39,5.39,0,0,0-2.72.93l-.53-.9a6.86,6.86,0,0,1,3.48-1.12A2.89,2.89,0,0,1,73.74,56v4.77H72.63l-.11-1h0a5.24,5.24,0,0,1-3.06,1.24C68,60.92,66.76,60.11,66.76,58.72Zm5.65,0v-2c-3.33.26-4.34.91-4.34,1.94s.8,1.23,1.7,1.23A4.22,4.22,0,0,0,72.41,58.7Z"/><path d="M76.21,59.71l.61-.88a5.55,5.55,0,0,0,3.38,1.05c1.31,0,2-.54,2-1.2s-.3-1-2.41-1.44-3-1.1-3-2.27,1.11-2.21,3.24-2.21a5.87,5.87,0,0,1,3.13,1l-.64.85a4.62,4.62,0,0,0-2.6-.82c-1.32,0-1.8.53-1.8,1.13s.68,1,2.28,1.29c2.57.56,3.2,1.2,3.2,2.4S82.26,60.92,80,60.92A6.92,6.92,0,0,1,76.21,59.71Z"/><path d="M95.77,53h1.08L97,54h0a4.14,4.14,0,0,1,2.69-1.19c2.1,0,3.22,1.55,3.22,4,0,2.64-1.66,4.19-3.54,4.19a3.69,3.69,0,0,1-2.32-1h0l.06,1.47V64H95.77Zm5.79,3.78c0-1.71-.64-2.85-2.19-2.85A3.32,3.32,0,0,0,97.09,55v3.88a3.28,3.28,0,0,0,2.07.89C100.54,59.8,101.56,58.65,101.56,56.73Z"/><path d="M104.84,56.86a3.85,3.85,0,1,1,3.84,4.06A3.81,3.81,0,0,1,104.84,56.86Zm6.32,0c0-1.79-1-3-2.48-3s-2.48,1.21-2.48,3,1,3,2.48,3S111.16,58.64,111.16,56.86Z"/><path d="M113.6,53h1.32l.93,4.52c.14.73.25,1.41.35,2.14h.06a19.85,19.85,0,0,1,.45-2.14l1-4H119l.93,4a18.27,18.27,0,0,1,.48,2.14h.07c.12-.73.2-1.41.35-2.14l.93-4.52H123l-1.66,7.78h-1.7L118.7,57c-.13-.55-.26-1.31-.39-2.31h-.06c-.13,1-.26,1.76-.39,2.31L117,60.73h-1.7Z"/><path d="M124.17,56.83a3.91,3.91,0,0,1,4-4.07,3.35,3.35,0,0,1,3.55,3.65,4.49,4.49,0,0,1-.07.8h-6.57v-1h5.79l-.34.36c0-1.84-.91-2.75-2.33-2.75a2.74,2.74,0,0,0-2.69,3,2.82,2.82,0,0,0,3,3,4.24,4.24,0,0,0,2.37-.74l.48.87a5.35,5.35,0,0,1-3,.92A3.93,3.93,0,0,1,124.17,56.83Z"/><path d="M135,53h1.1l.13,1.84h0a4.11,4.11,0,0,1,3.48-2,3.26,3.26,0,0,1,1.53.32l-.3,1.14a3.84,3.84,0,0,0-1.44-.26c-1.17,0-2.28.59-3.2,2.23v4.54H135Z"/><path d="M153.11,57.79V53h1.33v4.66c0,1.46.51,2.16,1.79,2.16a3.08,3.08,0,0,0,2.42-1.42V53H160v7.78h-1.11l-.11-1.36h-.06a3.81,3.81,0,0,1-2.9,1.55C154,60.92,153.11,59.84,153.11,57.79Z"/><path d="M163,53h1.08l.12,1.32h.06a4,4,0,0,1,2.93-1.51c1.84,0,2.69,1.09,2.69,3.14v4.83h-1.33V56.07c0-1.47-.51-2.16-1.78-2.16-.93,0-1.55.47-2.45,1.4v5.42H163Z"/><path d="M176.12,54h-3.6V53h4.93v7.78h-1.33Zm-.53-3.73a1.06,1.06,0,0,1,2.11,0,1.06,1.06,0,0,1-2.11,0Z"/><path d="M184,57.71V54h-2.21V53L184,53l.18-2.49h1.1V53h3.81V54H185.3v3.69c0,1.4.47,2.12,2,2.12a5.09,5.09,0,0,0,1.86-.36l.29,1a6.76,6.76,0,0,1-2.44.46C184.71,60.92,184,59.63,184,57.71Z"/><path d="M191.41,59.71l.61-.88a5.55,5.55,0,0,0,3.38,1.05c1.31,0,1.95-.54,1.95-1.2s-.3-1-2.42-1.44-3-1.1-3-2.27,1.11-2.21,3.24-2.21a5.9,5.9,0,0,1,3.13,1l-.64.85a4.62,4.62,0,0,0-2.61-.82c-1.31,0-1.79.53-1.79,1.13s.67,1,2.27,1.29c2.58.56,3.21,1.2,3.21,2.4s-1.24,2.32-3.46,2.32A6.92,6.92,0,0,1,191.41,59.71Z"/><path d="M210.44,56.86a3.85,3.85,0,1,1,3.84,4.06A3.81,3.81,0,0,1,210.44,56.86Zm6.32,0c0-1.79-1-3-2.48-3s-2.48,1.21-2.48,3,1,3,2.48,3S216.76,58.64,216.76,56.86Z"/><path d="M220.56,53h1.09l.11,1h.05a4.14,4.14,0,0,1,2.69-1.19c2.1,0,3.22,1.55,3.22,4,0,2.64-1.67,4.19-3.54,4.19a3.67,3.67,0,0,1-2.32-1h0l.06,1.47V64h-1.33Zm5.8,3.78c0-1.71-.64-2.85-2.2-2.85A3.32,3.32,0,0,0,221.89,55v3.88a3.28,3.28,0,0,0,2.07.89C225.33,59.8,226.36,58.65,226.36,56.73Z"/><path d="M229.76,56.83a3.92,3.92,0,0,1,4-4.07,3.35,3.35,0,0,1,3.56,3.65,5.67,5.67,0,0,1-.07.8h-6.58v-1h5.8l-.34.36c0-1.84-.91-2.75-2.34-2.75a2.74,2.74,0,0,0-2.68,3,2.82,2.82,0,0,0,3,3,4.24,4.24,0,0,0,2.37-.74L237,60a5.35,5.35,0,0,1-3,.92A3.94,3.94,0,0,1,229.76,56.83Z"/><path d="M239.76,53h1.09l.11,1.32H241A4,4,0,0,1,244,52.76c1.84,0,2.69,1.09,2.69,3.14v4.83h-1.33V56.07c0-1.47-.51-2.16-1.78-2.16-.93,0-1.55.47-2.45,1.4v5.42h-1.33Z"/><path d="M249,56.83a3.92,3.92,0,0,1,4-4.07,3.35,3.35,0,0,1,3.56,3.65,5.67,5.67,0,0,1-.07.8h-6.58v-1h5.8l-.34.36c0-1.84-.91-2.75-2.34-2.75a2.74,2.74,0,0,0-2.68,3,2.82,2.82,0,0,0,3,3,4.24,4.24,0,0,0,2.37-.74l.48.87a5.35,5.35,0,0,1-3,.92A3.94,3.94,0,0,1,249,56.83Z"/><path d="M258.43,56.86c0-2.53,1.69-4.1,3.53-4.1a3.36,3.36,0,0,1,2.33,1h0l-.06-1.42v-3h1.33V60.73H264.5l-.11-1h-.05a3.76,3.76,0,0,1-2.54,1.21C259.78,60.92,258.43,59.45,258.43,56.86Zm5.83,1.79V54.78a2.87,2.87,0,0,0-2-.9c-1.35,0-2.43,1.19-2.43,3s.86,3,2.28,3A2.93,2.93,0,0,0,264.26,58.65Z"/></g><path class="cls-4" d="M828.48,356.13h11v17.15h-11Z"/><path class="cls-4" d="M802.08,339h11v34.29h-11Z"/><path class="cls-4" d="M775.67,330.42h11v42.86h-11Z"/><path class="cls-4" d="M722.79,339h11v34.29h-11Z"/><path class="cls-4" d="M696.38,347.56h11v25.72h-11Z"/><path class="cls-4" d="M617.09,253.28h11v120h-11Z"/><path class="cls-4" d="M590.68,330.42h11v42.86h-11Z"/><path class="cls-4" d="M564.28,313.28h11v60h-11Z"/><path class="cls-4" d="M537.87,296.13h11v77.15h-11Z"/><path class="cls-4" d="M511.39,321.85h11v51.43h-11Z"/><path class="cls-4" d="M485,279h11v94.29H485Z"/><path class="cls-4" d="M458.58,321.85h11v51.43h-11Z"/><path class="cls-4" d="M432.17,184.71h11V373.28h-11Z"/><path class="cls-4" d="M405.69,347.56h11v25.72h-11Z"/><path class="cls-4" d="M379.29,201.85h11V373.28h-11Z"/><path class="cls-4" d="M352.88,201.85h11V373.28h-11Z"/><path class="cls-4" d="M326.47,90.42h11V373.28h-11Z"/><path class="cls-4" d="M220.77,347.56h11v25.72h-11Z"/><path class="cls-4" d="M194.3,356.13h11v17.15h-11Z"/><path class="cls-4" d="M167.89,347.56h11v25.72h-11Z"/><path class="cls-4" d="M141.48,347.56h11v25.72h-11Z"/><path class="cls-4" d="M115.08,356.13h11v17.15h-11Z"/><path class="cls-4" d="M88.6,339h11v34.29h-11Z"/><path class="cls-4" d="M62.19,347.56h11v25.72h-11Z"/><path d="M19.07,24.29c0-5.1,3.23-8.06,7.36-8.06a6.58,6.58,0,0,1,4.59,2L29.1,20.34a3.74,3.74,0,0,0-2.67-1.1c-2.19,0-3.79,1.86-3.79,4.94s1.6,5,3.92,5a3.73,3.73,0,0,0,2.77-1.36l1.92,2.11a6.37,6.37,0,0,1-5.05,2.26C22.38,32.19,19.07,29.49,19.07,24.29Z"/><path d="M33.41,28.66c0-2.63,2.17-4,7.7-4.3-.12-1.05-.91-1.69-2.48-1.69a8,8,0,0,0-3.57,1.1l-1.24-2.28A11.08,11.08,0,0,1,39.3,19.9c3.3,0,5.29,1.72,5.29,5.31v6.7H41.75l-.25-1.32h-.09a7.22,7.22,0,0,1-4.15,1.6A3.54,3.54,0,0,1,33.41,28.66Zm7.7-.28V26.46c-3.44.17-4.37.92-4.37,1.92,0,.75.64,1.12,1.62,1.12A4.48,4.48,0,0,0,41.11,28.38Z"/><path d="M51,27.32V18.08H47.3V15.36h7.16v12.1a1.74,1.74,0,0,0,1.91,1.92A5.11,5.11,0,0,0,58.2,29L59,31.55a9.68,9.68,0,0,1-3.49.64C52.52,32.19,51,30.29,51,27.32Z"/><path d="M66.87,22.91H62.15V20.19h8.19V31.91H66.87Zm-.73-6.68a2.32,2.32,0,0,1,4.62,0,2.32,2.32,0,0,1-4.62,0Z"/><path d="M76.4,20.32l3.21-.13H87v2.72H76.4Zm3.1-.44c0-2.68,1.56-4.8,5.24-4.8a11.27,11.27,0,0,1,3.55.62l-.67,2.56a6.89,6.89,0,0,0-2.45-.46c-1.49,0-2.2.65-2.2,2.06V31.91H79.5Z"/><path d="M89.74,26.05a6,6,0,1,1,12,0,6,6,0,1,1-12,0Zm8.39,0c0-2-.81-3.34-2.41-3.34S93.3,24,93.3,26.05s.82,3.33,2.42,3.33S98.13,28.08,98.13,26.05Z"/><path d="M105.52,20.19h2.86l.28,2.56h.08a5.44,5.44,0,0,1,4.75-2.85,4.75,4.75,0,0,1,2.25.48L115,23.3A6,6,0,0,0,113,23c-1.45,0-2.95.76-4,2.86v6.1h-3.48Z"/><path d="M118.67,20.19h2.83l.25,1.56h.1a5.65,5.65,0,0,1,4.05-1.85c2.64,0,3.81,1.81,3.81,4.77v7.24h-3.48V25.12c0-1.56-.45-2.25-1.71-2.25a3.25,3.25,0,0,0-2.37,1.22v7.82h-3.48Z"/><path d="M137.7,22.91H133V20.19h8.19V31.91H137.7ZM137,16.23a2.31,2.31,0,0,1,4.61,0,2.31,2.31,0,0,1-4.61,0Z"/><path d="M146.75,28.66c0-2.63,2.17-4,7.71-4.3-.13-1.05-.92-1.69-2.49-1.69a8,8,0,0,0-3.57,1.1l-1.24-2.28a11.08,11.08,0,0,1,5.48-1.59c3.3,0,5.29,1.72,5.29,5.31v6.7h-2.84l-.25-1.32h-.09a7.22,7.22,0,0,1-4.15,1.6A3.54,3.54,0,0,1,146.75,28.66Zm7.71-.28V26.46c-3.45.17-4.38.92-4.38,1.92,0,.75.64,1.12,1.62,1.12A4.53,4.53,0,0,0,154.46,28.38Z"/><path d="M174.89,30.39l1.47-2.16a9,9,0,0,0,4.73,1.38c1.29,0,1.86-.42,1.86-1s-.57-.89-2.87-1.38c-3.18-.68-4.45-1.85-4.45-3.66,0-2.18,2-3.67,5.38-3.67a9.62,9.62,0,0,1,5.08,1.6l-1.56,2.09a7.58,7.58,0,0,0-3.83-1.12c-1.09,0-1.63.39-1.63.94s.72.8,2.71,1.25c3.62.81,4.62,1.84,4.62,3.75,0,2.12-2,3.78-5.78,3.78A10.86,10.86,0,0,1,174.89,30.39Z"/><path d="M189.25,28.66c0-2.63,2.17-4,7.71-4.3-.12-1.05-.91-1.69-2.49-1.69a8,8,0,0,0-3.57,1.1l-1.24-2.28a11.12,11.12,0,0,1,5.49-1.59c3.29,0,5.29,1.72,5.29,5.31v6.7H197.6l-.25-1.32h-.09a7.25,7.25,0,0,1-4.16,1.6A3.54,3.54,0,0,1,189.25,28.66Zm7.71-.28V26.46c-3.45.17-4.37.92-4.37,1.92,0,.75.63,1.12,1.61,1.12A4.5,4.5,0,0,0,197,28.38Z"/><path d="M202.06,20.19h3.37l.72,5.43c.14,1.16.24,2.28.38,3.47h.08a34.43,34.43,0,0,1,.54-3.47l.74-3.87h2.51l.76,3.87c.23,1.16.43,2.28.59,3.47h.1c.15-1.19.2-2.31.33-3.47l.65-5.43h3.23l-1.81,11.72h-4.07l-.64-3.81c-.16-1-.3-2.13-.43-3.47H209c-.1,1-.21,2-.39,3.47L208,31.91h-4Z"/><path d="M231.75,28.66c0-2.63,2.17-4,7.71-4.3-.12-1.05-.91-1.69-2.48-1.69a8.06,8.06,0,0,0-3.58,1.1l-1.24-2.28a11.15,11.15,0,0,1,5.49-1.59c3.29,0,5.29,1.72,5.29,5.31v6.7H240.1l-.25-1.32h-.09a7.22,7.22,0,0,1-4.15,1.6A3.55,3.55,0,0,1,231.75,28.66Zm7.71-.28V26.46c-3.45.17-4.37.92-4.37,1.92,0,.75.63,1.12,1.62,1.12A4.5,4.5,0,0,0,239.46,28.38Z"/><path d="M259.89,30.39l1.48-2.16a9,9,0,0,0,4.73,1.38c1.29,0,1.86-.42,1.86-1s-.57-.89-2.87-1.38c-3.19-.68-4.45-1.85-4.45-3.66,0-2.18,2-3.67,5.38-3.67a9.55,9.55,0,0,1,5.07,1.6l-1.55,2.09a7.62,7.62,0,0,0-3.84-1.12c-1.08,0-1.62.39-1.62.94s.72.8,2.71,1.25c3.61.81,4.62,1.84,4.62,3.75,0,2.12-2,3.78-5.79,3.78A10.86,10.86,0,0,1,259.89,30.39Z"/><path d="M274.27,27.42V20.19h3.48V27c0,1.55.41,2.25,1.71,2.25a2.66,2.66,0,0,0,2.27-1.34v-7.7h3.48V31.91h-2.84l-.25-1.69H282a5,5,0,0,1-3.95,2C275.4,32.19,274.27,30.38,274.27,27.42Z"/><path d="M289.7,20.19h2.86l.28,2.56h.08a5.44,5.44,0,0,1,4.75-2.85,4.75,4.75,0,0,1,2.25.48l-.71,2.92a6,6,0,0,0-2.07-.35c-1.45,0-2.95.76-4,2.86v6.1H289.7Z"/><path d="M302.37,33.89c0-1,.63-1.74,1.82-2.35v-.09a2.24,2.24,0,0,1-1.18-2,2.88,2.88,0,0,1,1.4-2.2v-.1a3.58,3.58,0,0,1-1.55-3c0-2.81,2.37-4.25,5-4.25a6.16,6.16,0,0,1,1.93.29h4.76v2.55h-2.36a2.74,2.74,0,0,1,.51,1.53c0,2.7-2.12,3.93-4.84,3.93a5.87,5.87,0,0,1-1.61-.24,1,1,0,0,0-.52.86c0,.63.62.88,2,.88h2.17c3.07,0,4.76.86,4.76,3,0,2.44-2.72,4.22-7,4.22C304.63,36.89,302.37,36,302.37,33.89Zm9-.62c0-.75-.72-.9-2.06-.9h-1.48a7.05,7.05,0,0,1-1.78-.16c-.59.37-.83.73-.83,1.15,0,.88,1.14,1.33,3,1.33S311.36,34.07,311.36,33.27Zm-1.7-9.12a1.78,1.78,0,1,0-3.54,0,1.78,1.78,0,1,0,3.54,0Z"/><path d="M316.61,26a6,6,0,0,1,6.1-6.14c3.61,0,5.52,2.44,5.52,5.63a9.56,9.56,0,0,1-.15,1.55h-8.89V24.75h6.54l-.55.67c0-1.88-.81-2.87-2.35-2.87-1.72,0-2.85,1.16-2.85,3.49s1.33,3.5,3.6,3.5a6.48,6.48,0,0,0,3-.81l1.15,2.09a8.91,8.91,0,0,1-4.64,1.37C319.46,32.19,316.61,29.93,316.61,26Z"/><path d="M344.76,26.05a6,6,0,1,1,11.95,0,6,6,0,1,1-11.95,0Zm8.39,0c0-2-.81-3.34-2.41-3.34s-2.42,1.31-2.42,3.34.82,3.33,2.42,3.33S353.15,28.08,353.15,26.05Z"/><path d="M359.76,20.32l3.21-.13h7.38v2.72H359.76Zm3.09-.44c0-2.68,1.57-4.8,5.25-4.8a11.2,11.2,0,0,1,3.54.62L371,18.26a6.89,6.89,0,0,0-2.45-.46c-1.49,0-2.2.65-2.2,2.06V31.91h-3.47Z"/><path d="M387.86,20.19h2.83l.25,1.56H391a5.69,5.69,0,0,1,4.05-1.85c2.65,0,3.82,1.81,3.82,4.77v7.24h-3.48V25.12c0-1.56-.45-2.25-1.72-2.25a3.27,3.27,0,0,0-2.37,1.22v7.82h-3.47Z"/><path d="M401.62,26a6,6,0,0,1,6.1-6.14c3.61,0,5.51,2.44,5.51,5.63a11.18,11.18,0,0,1-.14,1.55H404.2V24.75h6.54l-.55.67c0-1.88-.82-2.87-2.36-2.87-1.72,0-2.84,1.16-2.84,3.49s1.32,3.5,3.6,3.5a6.51,6.51,0,0,0,3-.81l1.15,2.09a9,9,0,0,1-4.64,1.37C404.46,32.19,401.62,29.93,401.62,26Z"/><path d="M414.57,20.19h3.37l.73,5.43c.14,1.16.24,2.28.38,3.47h.08a31.8,31.8,0,0,1,.54-3.47l.73-3.87h2.52l.76,3.87c.22,1.16.43,2.28.59,3.47h.09c.16-1.19.21-2.31.33-3.47l.66-5.43h3.22l-1.81,11.72h-4.07l-.64-3.81c-.15-1-.29-2.13-.43-3.47h-.09c-.11,1-.21,2-.4,3.47l-.63,3.81h-4Z"/><path d="M444.05,33.89c0-1,.62-1.74,1.82-2.35v-.09a2.24,2.24,0,0,1-1.18-2,2.88,2.88,0,0,1,1.4-2.2v-.1a3.58,3.58,0,0,1-1.55-3c0-2.81,2.37-4.25,5-4.25a6,6,0,0,1,1.92.29h4.77v2.55h-2.36a2.73,2.73,0,0,1,.5,1.53c0,2.7-2.11,3.93-4.83,3.93A5.82,5.82,0,0,1,448,28a1,1,0,0,0-.52.86c0,.63.61.88,2,.88h2.16c3.08,0,4.77.86,4.77,3,0,2.44-2.72,4.22-7,4.22C446.31,36.89,444.05,36,444.05,33.89Zm9-.62c0-.75-.72-.9-2.06-.9H449.5a7.05,7.05,0,0,1-1.78-.16c-.6.37-.84.73-.84,1.15,0,.88,1.15,1.33,3,1.33S453,34.07,453,33.27Zm-1.7-9.12a1.78,1.78,0,1,0-3.54,0,1.78,1.78,0,1,0,3.54,0Z"/><path d="M458.44,28.66c0-2.63,2.17-4,7.71-4.3-.13-1.05-.92-1.69-2.49-1.69a8,8,0,0,0-3.57,1.1l-1.24-2.28a11.08,11.08,0,0,1,5.48-1.59c3.3,0,5.29,1.72,5.29,5.31v6.7h-2.84l-.25-1.32h-.09a7.22,7.22,0,0,1-4.15,1.6A3.54,3.54,0,0,1,458.44,28.66Zm7.71-.28V26.46c-3.45.17-4.38.92-4.38,1.92,0,.75.64,1.12,1.62,1.12A4.53,4.53,0,0,0,466.15,28.38Z"/><path d="M472.41,30.39l1.48-2.16a9,9,0,0,0,4.73,1.38c1.28,0,1.85-.42,1.85-1s-.56-.89-2.86-1.38c-3.19-.68-4.46-1.85-4.46-3.66,0-2.18,2-3.67,5.39-3.67a9.58,9.58,0,0,1,5.07,1.6l-1.56,2.09a7.58,7.58,0,0,0-3.83-1.12c-1.09,0-1.62.39-1.62.94s.72.8,2.7,1.25c3.62.81,4.62,1.84,4.62,3.75,0,2.12-2,3.78-5.78,3.78A10.86,10.86,0,0,1,472.41,30.39Z"/><path d="M500.72,33.89c0-1,.62-1.74,1.82-2.35v-.09a2.24,2.24,0,0,1-1.18-2,2.88,2.88,0,0,1,1.4-2.2v-.1a3.58,3.58,0,0,1-1.55-3c0-2.81,2.37-4.25,5-4.25a6,6,0,0,1,1.92.29h4.77v2.55h-2.36a2.73,2.73,0,0,1,.5,1.53c0,2.7-2.11,3.93-4.83,3.93a5.82,5.82,0,0,1-1.61-.24,1,1,0,0,0-.52.86c0,.63.61.88,2,.88h2.16c3.08,0,4.77.86,4.77,3,0,2.44-2.72,4.22-7,4.22C503,36.89,500.72,36,500.72,33.89Zm9-.62c0-.75-.72-.9-2.06-.9h-1.48a7.05,7.05,0,0,1-1.78-.16c-.6.37-.84.73-.84,1.15,0,.88,1.15,1.33,3,1.33S509.71,34.07,509.71,33.27ZM508,24.15a1.78,1.78,0,1,0-3.54,0,1.78,1.78,0,1,0,3.54,0Z"/><path d="M515,26a6,6,0,0,1,6.1-6.14c3.61,0,5.51,2.44,5.51,5.63a9.8,9.8,0,0,1-.14,1.55h-8.89V24.75h6.54l-.55.67c0-1.88-.82-2.87-2.36-2.87-1.71,0-2.84,1.16-2.84,3.49s1.32,3.5,3.6,3.5a6.51,6.51,0,0,0,3-.81l1.15,2.09a8.93,8.93,0,0,1-4.64,1.37C517.8,32.19,515,29.93,515,26Z"/><path d="M529.53,20.19h2.84l.25,1.56h.09a5.69,5.69,0,0,1,4-1.85c2.65,0,3.81,1.81,3.81,4.77v7.24H537.1V25.12c0-1.56-.45-2.25-1.72-2.25A3.25,3.25,0,0,0,533,24.09v7.82h-3.48Z"/><path d="M543.3,26a6,6,0,0,1,6.09-6.14c3.62,0,5.52,2.44,5.52,5.63a9.56,9.56,0,0,1-.15,1.55h-8.89V24.75h6.54l-.54.67c0-1.88-.82-2.87-2.36-2.87-1.72,0-2.84,1.16-2.84,3.49s1.32,3.5,3.6,3.5a6.51,6.51,0,0,0,3-.81l1.15,2.09a9,9,0,0,1-4.65,1.37C546.14,32.19,543.3,29.93,543.3,26Z"/><path d="M558.89,20.19h2.86l.27,2.56h.08a5.47,5.47,0,0,1,4.76-2.85,4.75,4.75,0,0,1,2.25.48l-.71,2.92a6,6,0,0,0-2.07-.35c-1.46,0-3,.76-4,2.86v6.1h-3.48Z"/><path d="M571.78,28.66c0-2.63,2.17-4,7.71-4.3-.12-1.05-.92-1.69-2.49-1.69a8,8,0,0,0-3.57,1.1l-1.24-2.28a11.08,11.08,0,0,1,5.48-1.59c3.3,0,5.29,1.72,5.29,5.31v6.7h-2.84l-.25-1.32h-.08a7.25,7.25,0,0,1-4.16,1.6A3.54,3.54,0,0,1,571.78,28.66Zm7.71-.28V26.46c-3.45.17-4.38.92-4.38,1.92,0,.75.64,1.12,1.62,1.12A4.5,4.5,0,0,0,579.49,28.38Z"/><path d="M588.62,27.05V22.91h-3V20.32l3.11-.13.45-3.59h2.87v3.59H597v2.72h-4.94V27c0,1.79.76,2.46,2.47,2.46a6.89,6.89,0,0,0,2.31-.42l.63,2.51a12.81,12.81,0,0,1-3.83.64C589.94,32.19,588.62,30.12,588.62,27.05Z"/><path d="M605.24,22.91h-4.72V20.19h8.2V31.91h-3.48Zm-.73-6.68a2.32,2.32,0,0,1,4.62,0,2.32,2.32,0,0,1-4.62,0Z"/><path d="M614,26.05a6,6,0,1,1,11.95,0,6,6,0,1,1-11.95,0Zm8.39,0c0-2-.82-3.34-2.42-3.34S617.5,24,617.5,26.05s.82,3.33,2.42,3.33S622.34,28.08,622.34,26.05Z"/><path d="M628.71,20.19h2.83l.25,1.56h.09a5.69,5.69,0,0,1,4-1.85c2.65,0,3.82,1.81,3.82,4.77v7.24h-3.48V25.12c0-1.56-.45-2.25-1.72-2.25a3.27,3.27,0,0,0-2.37,1.22v7.82h-3.47Z"/><path d="M661.91,22.91h-4.72V20.19h8.2V31.91h-3.48Zm-.73-6.68a2.32,2.32,0,0,1,4.62,0,2.32,2.32,0,0,1-4.62,0Z"/><path d="M671.21,20.19H674l.25,1.56h.1a5.67,5.67,0,0,1,4.05-1.85c2.65,0,3.81,1.81,3.81,4.77v7.24h-3.47V25.12c0-1.56-.45-2.25-1.72-2.25a3.25,3.25,0,0,0-2.37,1.22v7.82h-3.48Z"/><path d="M702,27.05V22.91h-3V20.32l3.11-.13.44-3.59h2.88v3.59h4.94v2.72h-4.94V27c0,1.79.75,2.46,2.46,2.46a6.89,6.89,0,0,0,2.31-.42l.63,2.51a12.81,12.81,0,0,1-3.83.64C703.28,32.19,702,30.12,702,27.05Z"/><path d="M713.71,15.36h3.48v4l-.2,2.25h.08A5.31,5.31,0,0,1,721,19.9c2.63,0,3.8,1.81,3.8,4.77v7.24h-3.48V25.12c0-1.56-.45-2.25-1.72-2.25a3.25,3.25,0,0,0-2.37,1.22v7.82h-3.48Z"/><path d="M727.48,26a6,6,0,0,1,6.09-6.14c3.62,0,5.52,2.44,5.52,5.63a9.56,9.56,0,0,1-.15,1.55h-8.89V24.75h6.54l-.54.67c0-1.88-.82-2.87-2.36-2.87-1.72,0-2.84,1.16-2.84,3.49s1.32,3.5,3.6,3.5a6.51,6.51,0,0,0,3-.81l1.15,2.09A9,9,0,0,1,734,32.19C730.32,32.19,727.48,29.93,727.48,26Z"/><path d="M755.88,29.91c4.3-3.61,7.19-6.15,7.19-8.31,0-1.45-.9-2.25-2.48-2.25a4.62,4.62,0,0,0-3,1.52L755.71,19a6.9,6.9,0,0,1,5.36-2.38c3.16,0,5.3,1.89,5.3,4.78,0,2.53-2.59,5.22-5.5,7.75.86-.08,2-.17,2.72-.17h3.56v2.93H755.88Z"/><path d="M770,24.34c0-5.11,2.29-7.72,5.77-7.72s5.76,2.61,5.76,7.72-2.29,7.85-5.76,7.85S770,29.43,770,24.34Zm8.44,0c0-3.9-1.18-5-2.67-5s-2.67,1.13-2.67,5,1.18,5.16,2.67,5.16S778.44,28.24,778.44,24.34ZM774,24.29a1.77,1.77,0,1,1,1.77,1.81A1.71,1.71,0,0,1,774,24.29Z"/><path d="M784.17,24.34c0-5.11,2.29-7.72,5.77-7.72s5.76,2.61,5.76,7.72-2.29,7.85-5.76,7.85S784.17,29.43,784.17,24.34Zm8.44,0c0-3.9-1.19-5-2.67-5s-2.67,1.13-2.67,5,1.18,5.16,2.67,5.16S792.61,28.24,792.61,24.34Zm-4.45-.05a1.78,1.78,0,1,1,1.78,1.81A1.71,1.71,0,0,1,788.16,24.29Z"/><path d="M798.34,24.34c0-5.11,2.29-7.72,5.76-7.72s5.77,2.61,5.77,7.72-2.29,7.85-5.77,7.85S798.34,29.43,798.34,24.34Zm8.43,0c0-3.9-1.18-5-2.67-5s-2.67,1.13-2.67,5,1.18,5.16,2.67,5.16S806.77,28.24,806.77,24.34Zm-4.44-.05a1.77,1.77,0,1,1,1.77,1.81A1.71,1.71,0,0,1,802.33,24.29Z"/><path d="M812.44,30.39l1.47-2.16a9,9,0,0,0,4.73,1.38c1.29,0,1.86-.42,1.86-1s-.57-.89-2.87-1.38c-3.18-.68-4.45-1.85-4.45-3.66,0-2.18,2-3.67,5.38-3.67a9.62,9.62,0,0,1,5.08,1.6l-1.56,2.09a7.59,7.59,0,0,0-3.84-1.12c-1.08,0-1.62.39-1.62.94s.72.8,2.71,1.25c3.61.81,4.62,1.84,4.62,3.75,0,2.12-2,3.78-5.78,3.78A10.81,10.81,0,0,1,812.44,30.39Z"/><path d="M829.69,29.41a2.75,2.75,0,1,1,2.75,2.78A2.69,2.69,0,0,1,829.69,29.41Z"/><rect class="cls-5" x="84.85" y="187.57" width="225.12" height="67.7"/><path d="M92,194.24H89.13v-.92h6.74v.92H93v7.61H92Z"/><path d="M97.61,192.59h1.08v2.52l-.07,1.5h0a3.19,3.19,0,0,1,2.35-1.24c1.5,0,2.19.89,2.19,2.55v3.93h-1.08v-3.79c0-1.19-.42-1.75-1.44-1.75a2.7,2.7,0,0,0-2,1.13v4.41H97.61Z"/><path d="M105.08,198.68a3.18,3.18,0,0,1,3.23-3.31,2.72,2.72,0,0,1,2.88,3,4,4,0,0,1,0,.65H105.8v-.83h4.7l-.27.29c0-1.49-.74-2.23-1.9-2.23a2.22,2.22,0,0,0-2.18,2.46,2.29,2.29,0,0,0,2.47,2.47,3.47,3.47,0,0,0,1.92-.6l.39.7a4.28,4.28,0,0,1-2.44.75A3.2,3.2,0,0,1,105.08,198.68Z"/><path d="M120.75,201.21c2.8-2.48,4.34-3.94,4.34-5.32,0-.95-.57-1.61-1.8-1.61a2.82,2.82,0,0,0-2,1l-.63-.61a3.68,3.68,0,0,1,2.74-1.26,2.42,2.42,0,0,1,2.71,2.44c0,1.56-1.56,3.11-3.81,5.15.52,0,1.05-.06,1.55-.06h2.71v.92h-5.83Z"/><path d="M128.52,197.67c0-2.78,1.13-4.27,3-4.27s3,1.49,3,4.27-1.13,4.33-3,4.33S128.52,200.43,128.52,197.67Zm4.95,0c0-2.37-.81-3.4-2-3.4s-2,1-2,3.4.82,3.46,2,3.46S133.47,200.05,133.47,197.67Zm-2.78-.09a.81.81,0,1,1,.81.87A.8.8,0,0,1,130.69,197.58Z"/><path d="M136.32,197.67c0-2.78,1.13-4.27,3-4.27s3,1.49,3,4.27-1.13,4.33-3,4.33S136.32,200.43,136.32,197.67Zm5,0c0-2.37-.82-3.4-2-3.4s-2,1-2,3.4.82,3.46,2,3.46S141.27,200.05,141.27,197.67Zm-2.78-.09a.81.81,0,1,1,.81.87A.8.8,0,0,1,138.49,197.58Z"/><path d="M144.12,197.67c0-2.78,1.13-4.27,3-4.27s3,1.49,3,4.27-1.13,4.33-3,4.33S144.12,200.43,144.12,197.67Zm4.95,0c0-2.37-.81-3.4-2-3.4s-2,1-2,3.4.82,3.46,2,3.46S149.07,200.05,149.07,197.67Zm-2.78-.09a.81.81,0,1,1,.81.87A.8.8,0,0,1,146.29,197.58Z"/><path d="M152,198.1h5.72V199H152Z"/><path d="M159.72,197.67c0-2.78,1.13-4.27,3-4.27s3,1.49,3,4.27-1.13,4.33-3,4.33S159.72,200.43,159.72,197.67Zm4.95,0c0-2.37-.81-3.4-2-3.4s-2,1-2,3.4.82,3.46,2,3.46S164.67,200.05,164.67,197.67Zm-2.78-.09a.81.81,0,1,1,.81.87A.8.8,0,0,1,161.89,197.58Z"/><path d="M167.86,201h2.39v-6.08h-1.86v-.71a5.84,5.84,0,0,0,2.13-.61h.81V201h2.16v.9h-5.63Z"/><path d="M183,197.58c0-2.74,1.6-4.42,3.82-4.42a3.2,3.2,0,0,1,2.34,1l-.62.69a2.27,2.27,0,0,0-1.72-.76c-1.62,0-2.69,1.31-2.69,3.43s1.07,3.48,2.69,3.48a2.51,2.51,0,0,0,1.92-.93l.62.66a3.29,3.29,0,0,1-2.64,1.23C184.65,202,183,200.37,183,197.58Z"/><path d="M191,200.21c0-1.42,1.32-2.11,4.59-2.37a1.5,1.5,0,0,0-1.68-1.58,4.42,4.42,0,0,0-2.21.75l-.43-.73a5.61,5.61,0,0,1,2.82-.91,2.35,2.35,0,0,1,2.57,2.6v3.88h-.89l-.09-.86h0a4.22,4.22,0,0,1-2.48,1C192,202,191,201.34,191,200.21Zm4.59,0v-1.64c-2.71.21-3.53.74-3.53,1.57s.65,1,1.38,1A3.48,3.48,0,0,0,195.63,200.2Z"/><path d="M201,199.73v-6.27h-2.23v-.87h3.31v7.22a1.14,1.14,0,0,0,1.25,1.3,2.72,2.72,0,0,0,1.18-.29l.28.81a4,4,0,0,1-1.69.37C201.74,202,201,201.22,201,199.73Z"/><path d="M209.69,196.4h-2.92v-.87h4v6.32h-1.08Zm-.43-3a.86.86,0,0,1,1.72,0,.86.86,0,0,1-1.72,0Z"/><path d="M214.74,195.59l1.83-.06h3.68v.87h-5.51Zm1.8-.59a2.31,2.31,0,0,1,2.55-2.56,4.65,4.65,0,0,1,1.82.36l-.25.81a3.29,3.29,0,0,0-1.47-.3c-1.13,0-1.58.63-1.58,1.65v6.89h-1.07Z"/><path d="M222,198.7a3.12,3.12,0,1,1,3.12,3.3A3.09,3.09,0,0,1,222,198.7Zm5.13,0c0-1.45-.8-2.43-2-2.43s-2,1-2,2.43.81,2.41,2,2.41S227.11,200.14,227.11,198.7Z"/><path d="M230.88,195.53h.9l.1,1.49h0a3.34,3.34,0,0,1,2.82-1.65,2.72,2.72,0,0,1,1.25.26l-.25.93a3,3,0,0,0-1.17-.21,3,3,0,0,0-2.6,1.81v3.69h-1.08Z"/><path d="M238,195.53h.89l.09,1.07H239a3.29,3.29,0,0,1,2.38-1.23c1.5,0,2.18.89,2.18,2.55v3.93h-1.07v-3.79c0-1.19-.42-1.75-1.45-1.75-.75,0-1.26.38-2,1.13v4.41H238Z"/><path d="M248.69,196.4h-2.92v-.87h4v6.32h-1.08Zm-.43-3a.86.86,0,0,1,1.72,0,.86.86,0,0,1-1.72,0Z"/><path d="M253.44,200.21c0-1.42,1.32-2.11,4.59-2.37a1.5,1.5,0,0,0-1.68-1.58,4.42,4.42,0,0,0-2.21.75l-.43-.73a5.61,5.61,0,0,1,2.82-.91,2.35,2.35,0,0,1,2.57,2.6v3.88h-.89l-.09-.86h0a4.22,4.22,0,0,1-2.49,1A1.91,1.91,0,0,1,253.44,200.21Zm4.59,0v-1.64c-2.71.21-3.53.74-3.53,1.57s.65,1,1.38,1A3.48,3.48,0,0,0,258,200.2Z"/><path d="M89.48,214.28A3.18,3.18,0,0,1,92.71,211a2.72,2.72,0,0,1,2.88,3,4,4,0,0,1,0,.65H90.2v-.83h4.7l-.27.29c0-1.49-.74-2.23-1.9-2.23a2.22,2.22,0,0,0-2.18,2.46A2.29,2.29,0,0,0,93,216.75a3.47,3.47,0,0,0,1.92-.6l.39.7a4.28,4.28,0,0,1-2.44.75A3.2,3.2,0,0,1,89.48,214.28Z"/><path d="M99.6,215.33v-6.27H97.36v-.87h3.32v7.22a1.14,1.14,0,0,0,1.24,1.3,2.8,2.8,0,0,0,1.19-.29l.27.81a4,4,0,0,1-1.69.37C100.34,217.6,99.6,216.82,99.6,215.33Z"/><path d="M105.08,214.28a3.18,3.18,0,0,1,3.23-3.31,2.72,2.72,0,0,1,2.88,3,4,4,0,0,1,0,.65H105.8v-.83h4.7l-.27.29c0-1.49-.74-2.23-1.9-2.23a2.22,2.22,0,0,0-2.18,2.46,2.29,2.29,0,0,0,2.47,2.47,3.47,3.47,0,0,0,1.92-.6l.39.7a4.28,4.28,0,0,1-2.44.75A3.2,3.2,0,0,1,105.08,214.28Z"/><path d="M113,214.3a3.28,3.28,0,0,1,3.52-3.33,3.19,3.19,0,0,1,2.3.93l-.53.69a2.58,2.58,0,0,0-1.73-.72,2.32,2.32,0,0,0-2.46,2.43,2.3,2.3,0,0,0,2.43,2.41,3,3,0,0,0,2-.8l.48.71a3.76,3.76,0,0,1-2.5,1A3.19,3.19,0,0,1,113,214.3Z"/><path d="M122.48,215v-3h-1.8v-.81l1.83-.06.15-2h.89v2h3.1V212h-3.1v3c0,1.13.38,1.72,1.6,1.72a4.1,4.1,0,0,0,1.51-.29l.24.8a5.77,5.77,0,0,1-2,.37C123.07,217.6,122.48,216.55,122.48,215Z"/><path d="M129.48,211.13h.9l.1,1.49h0a3.34,3.34,0,0,1,2.82-1.65,2.72,2.72,0,0,1,1.25.26l-.25.93a3,3,0,0,0-1.17-.21,3,3,0,0,0-2.6,1.81v3.69h-1.08Z"/><path d="M139.49,212h-2.92v-.87h4v6.32h-1.08Zm-.43-3a.86.86,0,0,1,1.72,0,.86.86,0,0,1-1.72,0Z"/><path d="M144.24,214.3a3.28,3.28,0,0,1,3.52-3.33,3.19,3.19,0,0,1,2.3.93l-.53.69a2.58,2.58,0,0,0-1.73-.72,2.32,2.32,0,0,0-2.46,2.43,2.3,2.3,0,0,0,2.43,2.41,3,3,0,0,0,1.95-.8l.48.71a3.76,3.76,0,0,1-2.5,1A3.19,3.19,0,0,1,144.24,214.3Z"/><path d="M155.09,212h-2.92v-.87h4v6.32h-1.08Zm-.43-3a.86.86,0,0,1,1.72,0,.86.86,0,0,1-1.72,0Z"/><path d="M161.48,215v-3h-1.8v-.81l1.83-.06.15-2h.89v2h3.1V212h-3.1v3c0,1.13.38,1.72,1.6,1.72a4.1,4.1,0,0,0,1.51-.29l.24.8a5.77,5.77,0,0,1-2,.37C162.07,217.6,161.48,216.55,161.48,215Z"/><path d="M167.47,220l.22-.85a2.12,2.12,0,0,0,.57.09,1.82,1.82,0,0,0,1.73-1.34l.18-.47-2.94-6.33h1.1l1.53,3.48c.25.56.52,1.23.78,1.84h.05c.22-.6.47-1.26.68-1.84l1.36-3.48h1L171,218a2.83,2.83,0,0,1-2.68,2.2A2.57,2.57,0,0,1,167.47,220Z"/><path d="M183.24,214.3a3.28,3.28,0,0,1,3.52-3.33,3.19,3.19,0,0,1,2.3.93l-.53.69a2.58,2.58,0,0,0-1.73-.72,2.32,2.32,0,0,0-2.46,2.43,2.3,2.3,0,0,0,2.43,2.41,3,3,0,0,0,1.95-.8l.48.71a3.76,3.76,0,0,1-2.5,1A3.19,3.19,0,0,1,183.24,214.3Z"/><path d="M191.88,211.13h.9l.1,1.49h0a3.34,3.34,0,0,1,2.82-1.65,2.72,2.72,0,0,1,1.25.26l-.25.93a3,3,0,0,0-1.17-.21,3,3,0,0,0-2.6,1.81v3.69h-1.08Z"/><path d="M201.89,212H199v-.87h4v6.32h-1.08Zm-.43-3a.86.86,0,0,1,1.72,0,.86.86,0,0,1-1.72,0Z"/><path d="M206.52,216.62l.49-.72a4.53,4.53,0,0,0,2.75.86c1.06,0,1.58-.44,1.58-1s-.24-.81-2-1.17-2.47-.89-2.47-1.84.9-1.8,2.63-1.8a4.7,4.7,0,0,1,2.54.81l-.52.69a3.72,3.72,0,0,0-2.11-.66c-1.07,0-1.46.42-1.46.91s.54.78,1.84,1.05c2.1.45,2.6,1,2.6,1.95s-1,1.88-2.8,1.88A5.58,5.58,0,0,1,206.52,216.62Z"/><path d="M217.49,212h-2.92v-.87h4v6.32h-1.08Zm-.43-3a.86.86,0,0,1,1.72,0,.86.86,0,0,1-1.72,0Z"/><path d="M222.12,216.62l.49-.72a4.53,4.53,0,0,0,2.75.86c1.06,0,1.58-.44,1.58-1s-.24-.81-2-1.17-2.47-.89-2.47-1.84.9-1.8,2.63-1.8a4.7,4.7,0,0,1,2.54.81l-.52.69a3.73,3.73,0,0,0-2.12-.66c-1.06,0-1.45.42-1.45.91s.54.78,1.84,1.05c2.1.45,2.6,1,2.6,1.95s-1,1.88-2.8,1.88A5.58,5.58,0,0,1,222.12,216.62Z"/><path d="M238,208.19h1.08v2.52l-.06,1.5h0a3.19,3.19,0,0,1,2.35-1.24c1.5,0,2.18.89,2.18,2.55v3.93h-1.07v-3.79c0-1.19-.42-1.75-1.45-1.75-.75,0-1.26.38-2,1.13v4.41H238Z"/><path d="M248.69,212h-2.92v-.87h4v6.32h-1.08Zm-.43-3a.86.86,0,0,1,1.72,0,.86.86,0,0,1-1.72,0Z"/><path d="M255.07,215v-3h-1.79v-.81l1.83-.06.15-2h.89v2h3.1V212h-3.1v3c0,1.13.38,1.72,1.6,1.72a4.1,4.1,0,0,0,1.51-.29l.23.8a5.67,5.67,0,0,1-2,.37C255.67,217.6,255.07,216.55,255.07,215Z"/><path d="M261.12,216.62l.49-.72a4.53,4.53,0,0,0,2.75.86c1.06,0,1.58-.44,1.58-1s-.24-.81-2-1.17-2.47-.89-2.47-1.84.9-1.8,2.63-1.8a4.7,4.7,0,0,1,2.54.81l-.52.69a3.73,3.73,0,0,0-2.12-.66c-1.06,0-1.45.42-1.45.91s.54.78,1.84,1.05c2.1.45,2.6,1,2.6,1.95s-1,1.88-2.8,1.88A5.58,5.58,0,0,1,261.12,216.62Z"/><path d="M270.54,219.54a2.31,2.31,0,0,0,1.64-2.27l-.23-1.2.73,1a1,1,0,0,1-1.75-.68,1,1,0,0,1,1-1c.77,0,1.17.64,1.17,1.67a3.2,3.2,0,0,1-2.28,3.12Z"/><path d="M91.8,230.93v-6.27H89.56v-.87h3.32V231a1.14,1.14,0,0,0,1.24,1.3,2.8,2.8,0,0,0,1.19-.29l.27.81a4,4,0,0,1-1.69.37C92.54,233.2,91.8,232.42,91.8,230.93Z"/><path d="M97.28,229.88a3.18,3.18,0,0,1,3.23-3.31,2.72,2.72,0,0,1,2.88,3,4,4,0,0,1,0,.65H98v-.83h4.7l-.27.3c0-1.5-.74-2.24-1.9-2.24a2.22,2.22,0,0,0-2.18,2.46,2.29,2.29,0,0,0,2.47,2.47,3.47,3.47,0,0,0,1.92-.6l.39.7a4.28,4.28,0,0,1-2.44.75A3.2,3.2,0,0,1,97.28,229.88Z"/><path d="M105.24,231.41c0-1.42,1.32-2.11,4.59-2.37a1.5,1.5,0,0,0-1.68-1.58,4.45,4.45,0,0,0-2.21.75l-.43-.73a5.61,5.61,0,0,1,2.82-.91,2.35,2.35,0,0,1,2.58,2.6v3.88H110l-.09-.86h0a4.22,4.22,0,0,1-2.48,1C106.21,233.2,105.24,232.54,105.24,231.41Zm4.59,0v-1.64c-2.71.21-3.53.74-3.53,1.57s.65,1,1.38,1A3.48,3.48,0,0,0,109.83,231.4Z"/><path d="M112.78,229.9a3,3,0,0,1,2.86-3.33,2.72,2.72,0,0,1,1.9.81h0l0-1.16v-2.43h1.08v9.26h-.89l-.09-.83h0a3,3,0,0,1-2.06,1C113.87,233.2,112.78,232,112.78,229.9Zm4.73,1.46v-3.15a2.35,2.35,0,0,0-1.65-.73,2.16,2.16,0,0,0-2,2.41c0,1.51.7,2.4,1.86,2.4A2.39,2.39,0,0,0,117.51,231.36Z"/><path d="M123.89,227.6H121v-.87h4v6.32h-1.08Zm-.43-3a.86.86,0,0,1,1.72,0,.86.86,0,0,1-1.72,0Z"/><path d="M128.81,226.73h.88l.09,1.07h.05a3.29,3.29,0,0,1,2.38-1.23c1.5,0,2.19.89,2.19,2.55v3.93h-1.08v-3.79c0-1.19-.42-1.75-1.45-1.75a2.69,2.69,0,0,0-2,1.13v4.41h-1.08Z"/><path d="M136.33,234.21a1.77,1.77,0,0,1,1-1.41v-.05a1.14,1.14,0,0,1-.65-1,1.54,1.54,0,0,1,.76-1.18v-.06a2,2,0,0,1-.78-1.63,2.32,2.32,0,0,1,2.48-2.27,2.72,2.72,0,0,1,.94.16h2.61v.87h-1.64a1.89,1.89,0,0,1,.53,1.27,2.21,2.21,0,0,1-2.44,2.18,2.74,2.74,0,0,1-1.07-.24.88.88,0,0,0-.49.73c0,.49.48.73,1.31.73h1.42c1.63,0,2.41.41,2.41,1.48s-1.37,2.21-3.51,2.21C137.4,236,136.33,235.32,136.33,234.21Zm5.37-.29c0-.6-.48-.77-1.44-.77H139a3.54,3.54,0,0,1-1-.1c-.6.32-.8.69-.8,1,0,.66.71,1.08,2.06,1.08S141.7,234.57,141.7,233.92Zm-1.06-5.08a1.46,1.46,0,1,0-1.46,1.49A1.43,1.43,0,0,0,140.64,228.84Z"/><path d="M153.68,230.59v-3h-1.8v-.81l1.83-.06.15-2h.89v2h3.1v.87h-3.1v3c0,1.14.38,1.72,1.6,1.72a4.1,4.1,0,0,0,1.51-.29l.24.8a5.77,5.77,0,0,1-2,.37C154.27,233.2,153.68,232.15,153.68,230.59Z"/><path d="M159.58,229.9a3.12,3.12,0,1,1,3.12,3.3A3.09,3.09,0,0,1,159.58,229.9Zm5.13,0c0-1.45-.8-2.43-2-2.43s-2,1-2,2.43.81,2.41,2,2.41S164.71,231.34,164.71,229.9Z"/><path d="M176.28,226.73h.9l.1,1.49h0a3.34,3.34,0,0,1,2.82-1.65,2.72,2.72,0,0,1,1.25.26l-.25.93a3,3,0,0,0-1.17-.21,3,3,0,0,0-2.6,1.81v3.69h-1.08Z"/><path d="M183,229.9a3.12,3.12,0,1,1,3.12,3.3A3.09,3.09,0,0,1,183,229.9Zm5.13,0c0-1.45-.8-2.43-2-2.43s-2,1-2,2.43.81,2.41,2,2.41S188.11,231.34,188.11,229.9Z"/><path d="M193.2,230.93v-6.27H191v-.87h3.31V231a1.14,1.14,0,0,0,1.25,1.3,2.72,2.72,0,0,0,1.18-.29l.28.81a4,4,0,0,1-1.69.37C193.94,233.2,193.2,232.42,193.2,230.93Z"/><path d="M201,230.93v-6.27h-2.23v-.87h3.31V231a1.14,1.14,0,0,0,1.25,1.3,2.72,2.72,0,0,0,1.18-.29l.28.81a4,4,0,0,1-1.69.37C201.74,233.2,201,232.42,201,230.93Z"/><path d="M209.69,227.6h-2.92v-.87h4v6.32h-1.08Zm-.43-3a.86.86,0,0,1,1.72,0,.86.86,0,0,1-1.72,0Z"/><path d="M214.61,226.73h.88l.09,1.07h0a3.29,3.29,0,0,1,2.38-1.23c1.5,0,2.19.89,2.19,2.55v3.93h-1.08v-3.79c0-1.19-.42-1.75-1.45-1.75-.75,0-1.26.38-2,1.13v4.41h-1.07Z"/><path d="M222.13,234.21a1.77,1.77,0,0,1,1-1.41v-.05a1.14,1.14,0,0,1-.65-1,1.51,1.51,0,0,1,.76-1.18v-.06a2,2,0,0,1-.78-1.63,2.32,2.32,0,0,1,2.48-2.27,2.62,2.62,0,0,1,.93.16h2.62v.87h-1.64a1.89,1.89,0,0,1,.53,1.27,2.22,2.22,0,0,1-2.44,2.18,2.67,2.67,0,0,1-1.07-.24.88.88,0,0,0-.49.73c0,.49.48.73,1.31.73h1.42c1.62,0,2.4.41,2.4,1.48S227.19,236,225,236C223.2,236,222.13,235.32,222.13,234.21Zm5.37-.29c0-.6-.48-.77-1.44-.77h-1.24a3.5,3.5,0,0,1-1-.1c-.6.32-.8.69-.8,1,0,.66.71,1.08,2.06,1.08S227.5,234.57,227.5,233.92Zm-1.06-5.08a1.46,1.46,0,1,0-1.46,1.49A1.44,1.44,0,0,0,226.44,228.84Z"/><path d="M239,232.35h0l-.11.7H238v-9.26h1.08v2.52l-.05,1.23h0a3.1,3.1,0,0,1,2.12-1c1.7,0,2.63,1.26,2.63,3.21,0,2.16-1.36,3.42-2.85,3.42A3.09,3.09,0,0,1,239,232.35Zm3.7-2.55c0-1.39-.52-2.32-1.78-2.32a2.7,2.7,0,0,0-1.85.94v3.15a2.66,2.66,0,0,0,1.71.72C241.88,232.29,242.71,231.36,242.71,229.8Z"/><path d="M247.79,230.93v-6.27h-2.23v-.87h3.31V231a1.14,1.14,0,0,0,1.25,1.3,2.72,2.72,0,0,0,1.18-.29l.28.81a4,4,0,0,1-1.69.37C248.54,233.2,247.79,232.42,247.79,230.93Z"/><path d="M253.44,231.41c0-1.42,1.32-2.11,4.59-2.37a1.5,1.5,0,0,0-1.68-1.58,4.42,4.42,0,0,0-2.21.75l-.43-.73a5.61,5.61,0,0,1,2.82-.91,2.35,2.35,0,0,1,2.57,2.6v3.88h-.89l-.09-.86h0a4.22,4.22,0,0,1-2.49,1A1.91,1.91,0,0,1,253.44,231.41Zm4.59,0v-1.64c-2.71.21-3.53.74-3.53,1.57s.65,1,1.38,1A3.48,3.48,0,0,0,258,231.4Z"/><path d="M261.24,229.9a3.28,3.28,0,0,1,3.52-3.33,3.19,3.19,0,0,1,2.3.93l-.53.69a2.58,2.58,0,0,0-1.73-.72,2.32,2.32,0,0,0-2.46,2.43,2.3,2.3,0,0,0,2.43,2.41,3,3,0,0,0,2-.8l.48.71a3.76,3.76,0,0,1-2.51,1A3.18,3.18,0,0,1,261.24,229.9Z"/><path d="M269.36,223.79h1.08v6.26h.05l3.4-3.32h1.23l-4.68,4.6v1.72h-1.08Zm2.43,5.9.65-.7,3,4.06h-1.2Z"/><path d="M276.58,229.9a3.12,3.12,0,1,1,3.12,3.3A3.09,3.09,0,0,1,276.58,229.9Zm5.13,0c0-1.45-.8-2.43-2-2.43s-2,1-2,2.43.81,2.41,2,2.41S281.71,231.34,281.71,229.9Z"/><path d="M284.6,230.66v-3.93h1.08v3.78c0,1.19.41,1.76,1.45,1.76a2.5,2.5,0,0,0,2-1.16v-4.38h1.08v6.32h-.89l-.09-1.11h-.06a3.05,3.05,0,0,1-2.35,1.26C285.29,233.2,284.6,232.32,284.6,230.66Z"/><path d="M294.07,230.59v-3h-1.79v-.81l1.83-.06.15-2h.89v2h3.1v.87h-3.1v3c0,1.14.38,1.72,1.6,1.72a4.14,4.14,0,0,0,1.51-.29l.23.8a5.67,5.67,0,0,1-2,.37C294.67,233.2,294.07,232.15,294.07,230.59Z"/><path d="M300.12,232.22l.49-.72a4.53,4.53,0,0,0,2.75.86c1.06,0,1.58-.44,1.58-1s-.25-.81-2-1.17-2.47-.89-2.47-1.84.9-1.8,2.62-1.8a4.71,4.71,0,0,1,2.55.81l-.52.69a3.73,3.73,0,0,0-2.12-.66c-1.06,0-1.45.42-1.45.91s.54.78,1.84,1.05c2.1.45,2.6,1,2.6,1.95s-1,1.88-2.8,1.88A5.58,5.58,0,0,1,300.12,232.22Z"/><path d="M89.64,247c0-1.42,1.32-2.11,4.59-2.37a1.5,1.5,0,0,0-1.68-1.58,4.45,4.45,0,0,0-2.21.75l-.43-.73a5.61,5.61,0,0,1,2.82-.91,2.35,2.35,0,0,1,2.58,2.6v3.88h-.9l-.09-.86h0a4.22,4.22,0,0,1-2.48,1C90.61,248.8,89.64,248.14,89.64,247Zm4.59,0v-1.64c-2.71.21-3.53.74-3.53,1.57s.65,1,1.38,1A3.48,3.48,0,0,0,94.23,247Z"/><path d="M97.61,242.33h.88l.09,1.07h0a3.31,3.31,0,0,1,2.38-1.23c1.5,0,2.19.89,2.19,2.55v3.93h-1.08v-3.79c0-1.19-.42-1.75-1.44-1.75a2.7,2.7,0,0,0-2,1.13v4.41H97.61Z"/><path d="M105,245.5a3,3,0,0,1,2.86-3.33,2.72,2.72,0,0,1,1.9.81h0l-.05-1.16v-2.43h1.08v9.26h-.88l-.1-.83h0a3.05,3.05,0,0,1-2.07,1C106.07,248.8,105,247.61,105,245.5Zm4.73,1.46v-3.15a2.35,2.35,0,0,0-1.65-.73,2.16,2.16,0,0,0-2,2.41c0,1.51.7,2.4,1.86,2.4A2.39,2.39,0,0,0,109.71,247Z"/><path d="M120.72,247.82l.49-.72A4.53,4.53,0,0,0,124,248c1.06,0,1.58-.44,1.58-1s-.24-.81-2-1.17-2.47-.89-2.47-1.84.9-1.8,2.63-1.8a4.7,4.7,0,0,1,2.54.81l-.52.69a3.72,3.72,0,0,0-2.11-.66c-1.07,0-1.46.42-1.46.91s.55.78,1.85,1.05c2.09.45,2.6,1,2.6,1.95s-1,1.88-2.81,1.88A5.58,5.58,0,0,1,120.72,247.82Z"/><path d="M128.48,245.48a3.18,3.18,0,0,1,3.23-3.31,2.72,2.72,0,0,1,2.88,3,4,4,0,0,1-.05.65H129.2V245h4.7l-.27.3c0-1.5-.74-2.24-1.9-2.24a2.22,2.22,0,0,0-2.18,2.46A2.29,2.29,0,0,0,132,248a3.47,3.47,0,0,0,1.92-.6l.39.7a4.28,4.28,0,0,1-2.44.75A3.2,3.2,0,0,1,128.48,245.48Z"/><path d="M136.05,242.33h1.1l1.46,3.57c.25.64.48,1.27.7,1.88h.05c.22-.61.43-1.24.69-1.88l1.46-3.57h1l-2.63,6.32h-1.21Z"/><path d="M144.08,245.48a3.18,3.18,0,0,1,3.23-3.31,2.72,2.72,0,0,1,2.88,3,4,4,0,0,1-.05.65H144.8V245h4.7l-.27.3c0-1.5-.74-2.24-1.9-2.24a2.22,2.22,0,0,0-2.18,2.46,2.29,2.29,0,0,0,2.47,2.47,3.47,3.47,0,0,0,1.92-.6l.39.7a4.28,4.28,0,0,1-2.44.75A3.2,3.2,0,0,1,144.08,245.48Z"/><path d="M152.88,242.33h.9l.1,1.49h0a3.34,3.34,0,0,1,2.82-1.65,2.72,2.72,0,0,1,1.25.26l-.25.93a3,3,0,0,0-1.17-.21A3,3,0,0,0,154,245v3.69h-1.08Z"/><path d="M159.68,245.48a3.18,3.18,0,0,1,3.23-3.31,2.72,2.72,0,0,1,2.88,3,4,4,0,0,1,0,.65H160.4V245h4.7l-.27.3c0-1.5-.74-2.24-1.9-2.24a2.22,2.22,0,0,0-2.18,2.46,2.29,2.29,0,0,0,2.47,2.47,3.47,3.47,0,0,0,1.92-.6l.39.7a4.28,4.28,0,0,1-2.44.75A3.2,3.2,0,0,1,159.68,245.48Z"/><path d="M175.28,245.48a3.18,3.18,0,0,1,3.23-3.31,2.72,2.72,0,0,1,2.88,3,4,4,0,0,1,0,.65H176V245h4.7l-.27.3c0-1.5-.74-2.24-1.9-2.24a2.22,2.22,0,0,0-2.18,2.46,2.29,2.29,0,0,0,2.47,2.47,3.47,3.47,0,0,0,1.92-.6l.39.7a4.28,4.28,0,0,1-2.44.75A3.2,3.2,0,0,1,175.28,245.48Z"/><path d="M183.41,242.33h.88l.09,1.07h.05a3.29,3.29,0,0,1,2.38-1.23c1.5,0,2.19.89,2.19,2.55v3.93h-1.08v-3.79c0-1.19-.42-1.75-1.45-1.75a2.69,2.69,0,0,0-2,1.13v4.41h-1.08Z"/><path d="M190.88,245.48a3.18,3.18,0,0,1,3.23-3.31,2.72,2.72,0,0,1,2.88,3,5.57,5.57,0,0,1-.05.65H191.6V245h4.7l-.27.3c0-1.5-.74-2.24-1.9-2.24a2.22,2.22,0,0,0-2.18,2.46,2.29,2.29,0,0,0,2.47,2.47,3.47,3.47,0,0,0,1.92-.6l.39.7a4.28,4.28,0,0,1-2.44.75A3.2,3.2,0,0,1,190.88,245.48Z"/><path d="M199.68,242.33h.9l.1,1.49h0a3.34,3.34,0,0,1,2.82-1.65,2.72,2.72,0,0,1,1.25.26l-.25.93a3,3,0,0,0-1.17-.21,3,3,0,0,0-2.6,1.81v3.69h-1.08Z"/><path d="M206.53,249.8a1.77,1.77,0,0,1,1-1.4v-.05a1.14,1.14,0,0,1-.65-1,1.54,1.54,0,0,1,.76-1.18v-.06a2,2,0,0,1-.78-1.63,2.32,2.32,0,0,1,2.48-2.27,2.72,2.72,0,0,1,.94.16h2.61v.87h-1.64a1.89,1.89,0,0,1,.53,1.27,2.22,2.22,0,0,1-2.44,2.18,2.67,2.67,0,0,1-1.07-.24.88.88,0,0,0-.49.73c0,.49.48.73,1.31.73h1.42c1.62,0,2.4.41,2.4,1.48s-1.36,2.21-3.5,2.21C207.6,251.56,206.53,250.92,206.53,249.8Zm5.37-.28c0-.6-.48-.77-1.44-.77h-1.24a3.5,3.5,0,0,1-1-.1c-.6.32-.8.69-.8,1,0,.66.71,1.08,2.06,1.08S211.9,250.17,211.9,249.52Zm-1.06-5.08a1.46,1.46,0,1,0-1.46,1.49A1.43,1.43,0,0,0,210.84,244.44Z"/><path d="M214.27,251.23l.22-.85a2.12,2.12,0,0,0,.57.09,1.83,1.83,0,0,0,1.73-1.34l.18-.47L214,242.33h1.1l1.53,3.48c.25.56.52,1.23.78,1.84h.05c.22-.6.47-1.26.68-1.84l1.36-3.48h1l-2.79,6.84a2.82,2.82,0,0,1-2.68,2.19A2.58,2.58,0,0,1,214.27,251.23Z"/><path d="M229.92,247.82l.49-.72a4.53,4.53,0,0,0,2.75.86c1.06,0,1.58-.44,1.58-1s-.25-.81-2-1.17-2.47-.89-2.47-1.84.9-1.8,2.63-1.8a4.7,4.7,0,0,1,2.54.81l-.52.69a3.73,3.73,0,0,0-2.12-.66c-1.06,0-1.45.42-1.45.91s.54.78,1.84,1.05c2.1.45,2.6,1,2.6,1.95s-1,1.88-2.8,1.88A5.58,5.58,0,0,1,229.92,247.82Z"/><path d="M238,239.39h1.08v2.52l-.06,1.5h0a3.19,3.19,0,0,1,2.35-1.24c1.5,0,2.18.89,2.18,2.55v3.93h-1.07v-3.79c0-1.19-.42-1.75-1.45-1.75-.75,0-1.26.38-2,1.13v4.41H238Z"/><path d="M245.38,245.5a3.12,3.12,0,1,1,3.12,3.3A3.09,3.09,0,0,1,245.38,245.5Zm5.13,0c0-1.45-.8-2.43-2-2.43s-2,1-2,2.43.81,2.41,2,2.41S250.51,246.94,250.51,245.5Z"/><path d="M254.28,242.33h.9l.1,1.49h0a3.34,3.34,0,0,1,2.82-1.65,2.72,2.72,0,0,1,1.25.26l-.25.93a3,3,0,0,0-1.17-.21,3,3,0,0,0-2.6,1.81v3.69h-1.08Z"/><path d="M262.87,246.19v-3h-1.79v-.81l1.83-.06.15-2H264v2h3.1v.87H264v3c0,1.14.38,1.72,1.6,1.72a4.1,4.1,0,0,0,1.51-.29l.23.8a5.67,5.67,0,0,1-2,.37C263.47,248.8,262.87,247.75,262.87,246.19Z"/><path d="M269,247c0-1.42,1.32-2.11,4.58-2.37a1.49,1.49,0,0,0-1.67-1.58,4.42,4.42,0,0,0-2.21.75l-.43-.73a5.61,5.61,0,0,1,2.82-.91,2.35,2.35,0,0,1,2.57,2.6v3.88h-.89l-.09-.86h0a4.22,4.22,0,0,1-2.49,1A1.91,1.91,0,0,1,269,247Zm4.58,0v-1.64c-2.7.21-3.52.74-3.52,1.57s.65,1,1.38,1A3.44,3.44,0,0,0,273.62,247Z"/><path d="M276.73,249.8a1.77,1.77,0,0,1,1-1.4v-.05a1.14,1.14,0,0,1-.65-1,1.51,1.51,0,0,1,.76-1.18v-.06a2,2,0,0,1-.78-1.63,2.32,2.32,0,0,1,2.48-2.27,2.62,2.62,0,0,1,.93.16h2.62v.87h-1.64a1.89,1.89,0,0,1,.53,1.27,2.22,2.22,0,0,1-2.44,2.18,2.67,2.67,0,0,1-1.07-.24.88.88,0,0,0-.49.73c0,.49.48.73,1.31.73h1.42c1.62,0,2.4.41,2.4,1.48s-1.36,2.21-3.51,2.21C277.8,251.56,276.73,250.92,276.73,249.8Zm5.37-.28c0-.6-.48-.77-1.44-.77h-1.24a3.5,3.5,0,0,1-1-.1c-.6.32-.8.69-.8,1,0,.66.71,1.08,2.06,1.08S282.1,250.17,282.1,249.52ZM281,244.44a1.46,1.46,0,1,0-1.45,1.49A1.43,1.43,0,0,0,281,244.44Z"/><path d="M284.48,245.48a3.18,3.18,0,0,1,3.22-3.31,2.73,2.73,0,0,1,2.89,3,5.57,5.57,0,0,1,0,.65h-5.35V245h4.71l-.27.3c0-1.5-.74-2.24-1.9-2.24a2.22,2.22,0,0,0-2.18,2.46A2.29,2.29,0,0,0,288,248a3.47,3.47,0,0,0,1.92-.6l.39.7a4.28,4.28,0,0,1-2.44.75A3.2,3.2,0,0,1,284.48,245.48Z"/><path d="M292.32,247.82l.49-.72a4.53,4.53,0,0,0,2.75.86c1.06,0,1.58-.44,1.58-1s-.25-.81-2-1.17-2.47-.89-2.47-1.84.9-1.8,2.62-1.8a4.71,4.71,0,0,1,2.55.81l-.52.69a3.73,3.73,0,0,0-2.12-.66c-1.06,0-1.45.42-1.45.91s.54.78,1.84,1.05c2.1.45,2.6,1,2.6,1.95s-1,1.88-2.8,1.88A5.58,5.58,0,0,1,292.32,247.82Z"/><path d="M302,247.7a1.06,1.06,0,1,1,2.11,0,1.06,1.06,0,1,1-2.11,0Z"/><path class="cls-5" d="M622.61,138.21H398.72V90.42H622.61Z"/><path d="M401.94,97.88c0-2.76,1.57-4.42,3.78-4.42a3.12,3.12,0,0,1,2.35,1l-.62.69a2.21,2.21,0,0,0-1.73-.77c-1.6,0-2.64,1.32-2.64,3.44s.95,3.48,2.62,3.48a2.12,2.12,0,0,0,1.46-.49V98.62h-1.69v-.89h2.71v3.58a3.56,3.56,0,0,1-2.55,1C403.49,102.3,401.94,100.66,401.94,97.88Z"/><path d="M409.83,99a3.12,3.12,0,1,1,3.12,3.3A3.09,3.09,0,0,1,409.83,99ZM415,99c0-1.46-.8-2.43-2-2.43s-2,1-2,2.43.81,2.4,2,2.4S415,100.44,415,99Z"/><path d="M417.5,95.83h1.1l1.46,3.57c.25.64.48,1.26.7,1.87h.05c.22-.61.43-1.23.69-1.87L423,95.83h1l-2.63,6.32h-1.21Z"/><path d="M425.53,99a3.18,3.18,0,0,1,3.23-3.3,2.71,2.71,0,0,1,2.88,3,3.82,3.82,0,0,1-.05.65h-5.34v-.83H431l-.27.3c0-1.49-.74-2.23-1.9-2.23A2.22,2.22,0,0,0,426.6,99a2.29,2.29,0,0,0,2.47,2.47,3.46,3.46,0,0,0,1.92-.59l.39.7a4.36,4.36,0,0,1-2.44.75A3.2,3.2,0,0,1,425.53,99Z"/><path d="M434.33,95.83h.9l.1,1.49h0a3.34,3.34,0,0,1,2.82-1.65,2.72,2.72,0,0,1,1.25.26l-.25.92a3.2,3.2,0,0,0-1.17-.2,3,3,0,0,0-2.6,1.8v3.7h-1.08Z"/><path d="M441.46,95.83h.88l.09,1.06h.05a3.28,3.28,0,0,1,2.38-1.22c1.5,0,2.19.88,2.19,2.55v3.93H446V98.36c0-1.19-.42-1.75-1.44-1.75a2.66,2.66,0,0,0-2,1.13v4.41h-1.08Z"/><path d="M448.83,99a3.12,3.12,0,1,1,3.12,3.3A3.09,3.09,0,0,1,448.83,99ZM454,99c0-1.46-.8-2.43-2-2.43s-2,1-2,2.43.81,2.4,2,2.4S454,100.44,454,99Z"/><path d="M457.73,95.83h.9l.1,1.49h0a3.34,3.34,0,0,1,2.82-1.65,2.72,2.72,0,0,1,1.25.26l-.25.92a3.2,3.2,0,0,0-1.17-.2,3,3,0,0,0-2.6,1.8v3.7h-1.08Z"/><path d="M472.14,97.88c0-2.76,1.57-4.42,3.78-4.42a3.12,3.12,0,0,1,2.35,1l-.62.69a2.21,2.21,0,0,0-1.73-.77c-1.6,0-2.64,1.32-2.64,3.44s1,3.48,2.61,3.48a2.13,2.13,0,0,0,1.47-.49V98.62h-1.69v-.89h2.71v3.58a3.6,3.6,0,0,1-2.55,1C473.68,102.3,472.14,100.66,472.14,97.88Z"/><path d="M481.13,95.83h.9l.1,1.49h0A3.34,3.34,0,0,1,485,95.67a2.72,2.72,0,0,1,1.25.26l-.25.92a3.2,3.2,0,0,0-1.17-.2,3,3,0,0,0-2.6,1.8v3.7h-1.08Z"/><path d="M488.09,100.51c0-1.42,1.32-2.11,4.59-2.37A1.51,1.51,0,0,0,491,96.55a4.42,4.42,0,0,0-2.21.76l-.43-.73a5.51,5.51,0,0,1,2.82-.91,2.35,2.35,0,0,1,2.58,2.6v3.88h-.9l-.09-.86h0a4.29,4.29,0,0,1-2.48,1C489.06,102.3,488.09,101.64,488.09,100.51Zm4.59,0V98.86c-2.71.2-3.53.74-3.53,1.57s.65,1,1.38,1A3.45,3.45,0,0,0,492.68,100.49Z"/><path d="M495.72,104.73l.22-.86a1.8,1.8,0,0,0,.57.1,1.82,1.82,0,0,0,1.73-1.34l.18-.47-2.94-6.33h1.1l1.53,3.48c.25.56.52,1.22.78,1.83h.05l.68-1.83L501,95.83h1l-2.79,6.84a2.83,2.83,0,0,1-2.68,2.19A2.58,2.58,0,0,1,495.72,104.73Z"/><path d="M511.58,93.62h2.1c2.56,0,4,1.52,4,4.22s-1.4,4.31-3.9,4.31h-2.16Zm2,7.63c1.93,0,2.9-1.25,2.9-3.41s-1-3.33-2.9-3.33h-.94v6.74Z"/><path d="M519.29,100.51c0-1.42,1.32-2.11,4.59-2.37a1.51,1.51,0,0,0-1.68-1.59,4.42,4.42,0,0,0-2.21.76l-.43-.73a5.51,5.51,0,0,1,2.82-.91,2.35,2.35,0,0,1,2.57,2.6v3.88h-.89l-.09-.86h0a4.29,4.29,0,0,1-2.48,1C520.26,102.3,519.29,101.64,519.29,100.51Zm4.59,0V98.86c-2.71.2-3.53.74-3.53,1.57s.65,1,1.38,1A3.45,3.45,0,0,0,523.88,100.49Z"/><path d="M526.7,95.83h1.1l1.46,3.57c.24.64.48,1.26.7,1.87h0c.22-.61.43-1.23.69-1.87l1.46-3.57h1l-2.63,6.32h-1.21Z"/><path d="M537.94,96.7H535v-.87h4v6.32h-1.08Zm-.43-3a.86.86,0,0,1,1.72,0,.86.86,0,0,1-1.72,0Z"/><path d="M542.57,101.31l.49-.71a4.53,4.53,0,0,0,2.75.86c1.06,0,1.58-.45,1.58-1s-.24-.82-2-1.17-2.47-.9-2.47-1.84.9-1.8,2.63-1.8a4.7,4.7,0,0,1,2.54.81l-.52.69a3.66,3.66,0,0,0-2.12-.67c-1.06,0-1.45.43-1.45.91s.54.78,1.84,1.06c2.1.45,2.6,1,2.6,2s-1,1.88-2.8,1.88A5.5,5.5,0,0,1,542.57,101.31Z"/><path d="M561.34,96.7h-2.92v-.87h4v6.32h-1.08Zm-.43-3a.86.86,0,0,1,1.72,0,.86.86,0,0,1-1.72,0Z"/><path d="M566,101.31l.49-.71a4.53,4.53,0,0,0,2.75.86c1.06,0,1.58-.45,1.58-1s-.24-.82-2-1.17-2.47-.9-2.47-1.84.9-1.8,2.63-1.8a4.7,4.7,0,0,1,2.54.81l-.52.69a3.66,3.66,0,0,0-2.12-.67c-1.06,0-1.45.43-1.45.91s.55.78,1.84,1.06c2.1.45,2.6,1,2.6,2s-1,1.88-2.8,1.88A5.5,5.5,0,0,1,566,101.31Z"/><path d="M403.13,111.43h.9l.11,1.49h0a3.34,3.34,0,0,1,2.82-1.65,2.72,2.72,0,0,1,1.25.26l-.25.92a3.2,3.2,0,0,0-1.17-.2,3,3,0,0,0-2.6,1.8v3.7h-1.08Z"/><path d="M409.93,114.57a3.18,3.18,0,0,1,3.23-3.3,2.71,2.71,0,0,1,2.88,3,4,4,0,0,1-.05.65h-5.34v-.84h4.7l-.27.3c0-1.49-.74-2.23-1.9-2.23a2.22,2.22,0,0,0-2.18,2.45,2.29,2.29,0,0,0,2.47,2.47,3.46,3.46,0,0,0,1.92-.59l.39.7a4.36,4.36,0,0,1-2.44.75A3.2,3.2,0,0,1,409.93,114.57Z"/><path d="M417.89,114.6a3.28,3.28,0,0,1,3.52-3.33,3.23,3.23,0,0,1,2.3.92l-.53.69a2.62,2.62,0,0,0-1.73-.71A2.32,2.32,0,0,0,419,114.6a2.29,2.29,0,0,0,2.43,2.4,3,3,0,0,0,1.95-.79l.49.7a3.76,3.76,0,0,1-2.51,1A3.19,3.19,0,0,1,417.89,114.6Z"/><path d="M425.69,116.11c0-1.42,1.32-2.11,4.59-2.37a1.5,1.5,0,0,0-1.68-1.58,4.45,4.45,0,0,0-2.21.75l-.43-.73a5.61,5.61,0,0,1,2.82-.91,2.35,2.35,0,0,1,2.58,2.6v3.88h-.9l-.09-.86h0a4.29,4.29,0,0,1-2.48,1C426.66,117.9,425.69,117.24,425.69,116.11Zm4.59,0v-1.63c-2.71.2-3.53.74-3.53,1.57s.65,1,1.38,1A3.45,3.45,0,0,0,430.28,116.09Z"/><path d="M435.65,115.63v-6.27h-2.24v-.87h3.32v7.21A1.14,1.14,0,0,0,438,117a2.93,2.93,0,0,0,1.19-.28l.27.8a3.81,3.81,0,0,1-1.69.38C436.39,117.9,435.65,117.12,435.65,115.63Z"/><path d="M443.45,115.63v-6.27h-2.24v-.87h3.32v7.21a1.14,1.14,0,0,0,1.24,1.3,2.93,2.93,0,0,0,1.19-.28l.27.8a3.81,3.81,0,0,1-1.69.38C444.19,117.9,443.45,117.12,443.45,115.63Z"/><path d="M448.93,114.57a3.18,3.18,0,0,1,3.23-3.3,2.71,2.71,0,0,1,2.88,3,4,4,0,0,1-.05.65h-5.34v-.84h4.7l-.27.3c0-1.49-.74-2.23-1.9-2.23a2.22,2.22,0,0,0-2.18,2.45,2.29,2.29,0,0,0,2.47,2.47,3.46,3.46,0,0,0,1.92-.59l.39.7a4.36,4.36,0,0,1-2.44.75A3.2,3.2,0,0,1,448.93,114.57Z"/><path d="M456.63,114.6a3,3,0,0,1,2.86-3.33,2.72,2.72,0,0,1,1.9.81h0l-.05-1.16v-2.43h1.08v9.26h-.88l-.1-.84h0a3,3,0,0,1-2.07,1C457.72,117.9,456.63,116.71,456.63,114.6Zm4.73,1.46v-3.15a2.35,2.35,0,0,0-1.65-.73,2.16,2.16,0,0,0-2,2.41c0,1.5.71,2.4,1.86,2.4A2.39,2.39,0,0,0,461.36,116.06Z"/><path d="M466.2,119.84a2.33,2.33,0,0,0,1.63-2.28l-.23-1.19.73,1a.91.91,0,0,1-.73.3.92.92,0,0,1-1-1,1,1,0,0,1,1-1c.76,0,1.17.64,1.17,1.66a3.19,3.19,0,0,1-2.29,3.12Z"/><path d="M483.34,112.3h-2.92v-.87h4v6.32h-1.08Zm-.43-3a.86.86,0,0,1,1.72,0,.86.86,0,0,1-1.72,0Z"/><path d="M488.26,111.43h.88l.09,1.06h0a3.28,3.28,0,0,1,2.38-1.22c1.5,0,2.19.89,2.19,2.55v3.93h-1.08V114c0-1.19-.42-1.75-1.45-1.75a2.66,2.66,0,0,0-2,1.13v4.41h-1.08Z"/><path d="M503.86,111.43h.88l.09.8h0a3.34,3.34,0,0,1,2.18-1c1.71,0,2.62,1.26,2.62,3.23,0,2.14-1.35,3.4-2.88,3.4a3,3,0,0,1-1.88-.82h0l.06,1.2v2.13h-1.08Zm4.7,3.07c0-1.4-.52-2.32-1.78-2.32a2.66,2.66,0,0,0-1.84.94v3.14a2.58,2.58,0,0,0,1.67.73C507.73,117,508.56,116.06,508.56,114.5Z"/><path d="M511.49,116.11c0-1.42,1.32-2.11,4.59-2.37a1.5,1.5,0,0,0-1.68-1.58,4.42,4.42,0,0,0-2.21.75l-.43-.73a5.61,5.61,0,0,1,2.82-.91,2.35,2.35,0,0,1,2.58,2.6v3.88h-.9l-.09-.86h0a4.29,4.29,0,0,1-2.48,1C512.46,117.9,511.49,117.24,511.49,116.11Zm4.59,0v-1.63c-2.71.2-3.53.74-3.53,1.57s.65,1,1.38,1A3.45,3.45,0,0,0,516.08,116.09Z"/><path d="M520.13,111.43h.9l.1,1.49h0a3.34,3.34,0,0,1,2.82-1.65,2.72,2.72,0,0,1,1.25.26l-.25.92a3.2,3.2,0,0,0-1.17-.2,3,3,0,0,0-2.6,1.8v3.7h-1.08Z"/><path d="M528.72,115.29v-3h-1.79v-.81l1.83-.06.15-2h.89v2h3.1v.87h-3.1v3c0,1.13.38,1.72,1.6,1.72a4.1,4.1,0,0,0,1.51-.29l.24.79a5.54,5.54,0,0,1-2,.38C529.32,117.9,528.72,116.85,528.72,115.29Z"/><path d="M542.43,114.6a3,3,0,0,1,2.86-3.33,2.68,2.68,0,0,1,1.89.81h0l-.05-1.16v-2.43h1.08v9.26h-.89l-.09-.84h0a3,3,0,0,1-2.06,1C543.52,117.9,542.43,116.71,542.43,114.6Zm4.73,1.46v-3.15a2.36,2.36,0,0,0-1.65-.73,2.16,2.16,0,0,0-2,2.41c0,1.5.7,2.4,1.86,2.4A2.4,2.4,0,0,0,547.16,116.06Z"/><path d="M550.45,115.35v-3.92h1.08v3.78c0,1.18.41,1.76,1.45,1.76a2.53,2.53,0,0,0,2-1.16v-4.38H556v6.32h-.89l-.09-1.11H555a3.05,3.05,0,0,1-2.35,1.26C551.14,117.9,550.45,117,550.45,115.35Z"/><path d="M558.13,114.57a3.18,3.18,0,0,1,3.23-3.3,2.71,2.71,0,0,1,2.88,3,5.57,5.57,0,0,1,0,.65h-5.34v-.84h4.7l-.27.3c0-1.49-.74-2.23-1.9-2.23a2.22,2.22,0,0,0-2.18,2.45,2.29,2.29,0,0,0,2.47,2.47,3.46,3.46,0,0,0,1.92-.59l.39.7a4.36,4.36,0,0,1-2.44.75A3.2,3.2,0,0,1,558.13,114.57Z"/><path d="M575.52,115.29v-3h-1.79v-.81l1.83-.06.15-2h.89v2h3.1v.87h-3.1v3c0,1.13.38,1.72,1.6,1.72a4.1,4.1,0,0,0,1.51-.29l.24.79a5.54,5.54,0,0,1-2,.38C576.12,117.9,575.52,116.85,575.52,115.29Z"/><path d="M581.43,114.6a3.12,3.12,0,1,1,3.12,3.3A3.09,3.09,0,0,1,581.43,114.6Zm5.13,0c0-1.46-.8-2.43-2-2.43s-2,1-2,2.43.81,2.4,2,2.4S586.56,116,586.56,114.6Z"/><path d="M597.45,108.49h1.08V111l-.06,1.5h0a3.16,3.16,0,0,1,2.35-1.24c1.5,0,2.18.89,2.18,2.55v3.93H602V114c0-1.19-.42-1.75-1.45-1.75a2.7,2.7,0,0,0-2,1.13v4.41h-1.08Z"/><path d="M608.14,112.3h-2.92v-.87h4v6.32h-1.08Zm-.43-3a.86.86,0,0,1,1.72,0,.86.86,0,0,1-1.72,0Z"/><path d="M612.77,116.91l.49-.71a4.53,4.53,0,0,0,2.75.86c1.06,0,1.58-.45,1.58-1s-.25-.82-2-1.17-2.47-.9-2.47-1.84.9-1.8,2.62-1.8a4.71,4.71,0,0,1,2.55.81l-.52.69a3.66,3.66,0,0,0-2.12-.67c-1.06,0-1.45.43-1.45.91s.54.78,1.84,1.06c2.1.45,2.6,1,2.6,2s-1,1.88-2.8,1.88A5.5,5.5,0,0,1,612.77,116.91Z"/><path d="M405.34,127.9h-2.92V127h4v6.32h-1.08Zm-.43-3a.86.86,0,0,1,1.72,0,.86.86,0,0,1-1.72,0Z"/><path d="M410.26,127h.88l.09,1.06h0a3.3,3.3,0,0,1,2.38-1.22c1.5,0,2.19.89,2.19,2.55v3.93h-1.08v-3.79c0-1.19-.42-1.75-1.44-1.75a2.66,2.66,0,0,0-2,1.13v4.41h-1.08Z"/><path d="M417.5,127h1.1l1.46,3.57c.25.64.48,1.26.7,1.87h.05c.22-.61.43-1.23.69-1.87L423,127h1l-2.63,6.32h-1.21Z"/><path d="M425.43,130.2a3.12,3.12,0,1,1,3.12,3.3A3.09,3.09,0,0,1,425.43,130.2Zm5.13,0c0-1.46-.8-2.43-2-2.43s-2,1-2,2.43.81,2.4,2,2.4S430.56,131.64,430.56,130.2Z"/><path d="M435.65,131.23V125h-2.24v-.87h3.32v7.21a1.14,1.14,0,0,0,1.24,1.3,2.93,2.93,0,0,0,1.19-.28l.27.8a3.81,3.81,0,0,1-1.69.38C436.39,133.5,435.65,132.72,435.65,131.23Z"/><path d="M440.9,127H442l1.46,3.57c.25.64.48,1.26.7,1.87h0c.22-.61.43-1.23.69-1.87l1.46-3.57h1l-2.63,6.32h-1.21Z"/><path d="M448.93,130.17a3.18,3.18,0,0,1,3.23-3.3,2.71,2.71,0,0,1,2.88,3,4,4,0,0,1-.05.65h-5.34v-.84h4.7l-.27.3c0-1.49-.74-2.23-1.9-2.23a2.22,2.22,0,0,0-2.18,2.45,2.29,2.29,0,0,0,2.47,2.47,3.46,3.46,0,0,0,1.92-.59l.39.7a4.36,4.36,0,0,1-2.44.75A3.2,3.2,0,0,1,448.93,130.17Z"/><path d="M456.6,127h.86l.09.83h0a1.55,1.55,0,0,1,1.44-1c.62,0,1,.37,1.2,1.09.36-.67.75-1.09,1.48-1.09.88,0,1.4.69,1.4,1.95v4.53H462V128.9c0-.73-.21-1.11-.68-1.11s-.68.33-1,1v4.58h-1V128.9c0-.73-.18-1.11-.65-1.11s-.73.33-1,1v4.58H456.6Z"/><path d="M464.53,130.17a3.18,3.18,0,0,1,3.23-3.3,2.71,2.71,0,0,1,2.88,3,4,4,0,0,1-.05.65h-5.34v-.84H470l-.27.3c0-1.49-.74-2.23-1.9-2.23a2.22,2.22,0,0,0-2.18,2.45,2.29,2.29,0,0,0,2.47,2.47,3.46,3.46,0,0,0,1.92-.59l.39.7a4.36,4.36,0,0,1-2.44.75A3.2,3.2,0,0,1,464.53,130.17Z"/><path d="M472.66,127h.88l.09,1.06h.05a3.28,3.28,0,0,1,2.38-1.22c1.5,0,2.19.89,2.19,2.55v3.93h-1.08v-3.79c0-1.19-.42-1.75-1.44-1.75a2.66,2.66,0,0,0-2,1.13v4.41h-1.08Z"/><path d="M481.93,130.89v-3h-1.8v-.81L482,127l.15-2H483v2h3.1v.87H483v3c0,1.13.38,1.72,1.6,1.72a4.1,4.1,0,0,0,1.51-.29l.24.79a5.54,5.54,0,0,1-2,.38C482.52,133.5,481.93,132.45,481.93,130.89Z"/><path d="M498.94,127.9H496V127h4v6.32h-1.08Zm-.43-3a.86.86,0,0,1,1.72,0,.86.86,0,0,1-1.72,0Z"/><path d="M503.86,127h.88l.09,1.06h.05a3.28,3.28,0,0,1,2.38-1.22c1.5,0,2.19.89,2.19,2.55v3.93h-1.08v-3.79c0-1.19-.42-1.75-1.45-1.75a2.66,2.66,0,0,0-2,1.13v4.41h-1.08Z"/><path d="M520.92,130.89v-3h-1.79v-.81L521,127l.15-2H522v2h3.1v.87H522v3c0,1.13.38,1.72,1.6,1.72a4.1,4.1,0,0,0,1.51-.29l.24.79a5.54,5.54,0,0,1-2,.38C521.52,133.5,520.92,132.45,520.92,130.89Z"/><path d="M527.26,124.09h1.07v2.52l-.06,1.5h0a3.16,3.16,0,0,1,2.35-1.24c1.5,0,2.19.89,2.19,2.55v3.93h-1.08v-3.79c0-1.19-.42-1.75-1.45-1.75a2.7,2.7,0,0,0-2,1.13v4.41h-1.07Z"/><path d="M534.73,130.17a3.17,3.17,0,0,1,3.22-3.3,2.72,2.72,0,0,1,2.89,3,5.57,5.57,0,0,1-.05.65h-5.34v-.84h4.7l-.27.3c0-1.49-.74-2.23-1.9-2.23a2.22,2.22,0,0,0-2.18,2.45,2.29,2.29,0,0,0,2.47,2.47,3.46,3.46,0,0,0,1.92-.59l.39.7a4.36,4.36,0,0,1-2.44.75A3.2,3.2,0,0,1,534.73,130.17Z"/><path d="M550.49,130.2a3.28,3.28,0,0,1,3.52-3.33,3.23,3.23,0,0,1,2.3.92l-.53.69a2.62,2.62,0,0,0-1.73-.71,2.32,2.32,0,0,0-2.46,2.43,2.29,2.29,0,0,0,2.43,2.4,3,3,0,0,0,2-.79l.48.7a3.73,3.73,0,0,1-2.51,1A3.18,3.18,0,0,1,550.49,130.2Z"/><path d="M559.13,127h.9l.1,1.49h0a3.34,3.34,0,0,1,2.82-1.65,2.72,2.72,0,0,1,1.25.26l-.25.92a3.2,3.2,0,0,0-1.17-.2,3,3,0,0,0-2.6,1.8v3.7h-1.08Z"/><path d="M569.14,127.9h-2.92V127h4v6.32h-1.08Zm-.43-3a.86.86,0,0,1,1.72,0,.86.86,0,0,1-1.72,0Z"/><path d="M573.77,132.51l.49-.71a4.53,4.53,0,0,0,2.75.86c1.06,0,1.58-.45,1.58-1s-.24-.82-2-1.17-2.47-.9-2.47-1.84.9-1.8,2.63-1.8a4.7,4.7,0,0,1,2.54.81l-.52.69a3.65,3.65,0,0,0-2.11-.67c-1.07,0-1.46.43-1.46.91s.54.78,1.84,1.06c2.1.45,2.6,1,2.6,2s-1,1.88-2.8,1.88A5.5,5.5,0,0,1,573.77,132.51Z"/><path d="M584.74,127.9h-2.92V127h4v6.32h-1.08Zm-.43-3a.86.86,0,0,1,1.72,0,.86.86,0,0,1-1.72,0Z"/><path d="M589.37,132.51l.49-.71a4.53,4.53,0,0,0,2.75.86c1.06,0,1.58-.45,1.58-1s-.24-.82-2-1.17-2.47-.9-2.47-1.84.9-1.8,2.63-1.8a4.7,4.7,0,0,1,2.54.81l-.52.69a3.66,3.66,0,0,0-2.12-.67c-1.06,0-1.45.43-1.45.91s.54.78,1.84,1.06c2.1.45,2.6,1,2.6,2s-1,1.88-2.8,1.88A5.5,5.5,0,0,1,589.37,132.51Z"/><path d="M599.09,132.4a1.06,1.06,0,1,1,2.11,0,1.06,1.06,0,1,1-2.11,0Z"/><path class="cls-4" d="M643.57,124.71h11V373.28h-11Z"/><path class="cls-6" d="M421.78,141.27a105.27,105.27,0,0,0-24.51,31.4,104.06,104.06,0,0,0-6.15,14.85"/><polygon class="cls-7" points="389.61 192.59 388.87 184.56 391.27 187.15 394.7 186.34 389.61 192.59"/><line class="cls-2" x1="839.52" y1="373.73" x2="42.84" y2="373.78"/><path class="cls-5" d="M218.3,259.4c-.17,7.74.6,25.66,12.76,41.37,17,21.91,49.1,30.41,80.68,20.93"/><path class="cls-8" d="M218.3,259.4c-.17,7.74.6,25.66,12.76,41.37,16.06,20.72,45.67,29.46,75.57,22.31"/><polygon points="311.75 321.7 305.31 326.56 306.24 323.16 303.75 320.67 311.75 321.7"/><rect class="cls-9" width="854.02" height="436.34"/></svg>