<svg id="Layer_1" data-name="Layer 1" xmlns="http://www.w3.org/2000/svg" viewBox="0 0 264.23 57.04"><defs><style>.cls-1{fill:#335fff;}.cls-2{fill:#f40;}.cls-3{fill:none;}</style></defs><circle class="cls-1" cx="13.21" cy="40.96" r="6.55"/><circle class="cls-2" cx="13.21" cy="14.08" r="6.55"/><path d="M28.28,41.93c0-2.34,1.33-3.74,3.2-3.74a2.65,2.65,0,0,1,2,.88l-.53.58A1.88,1.88,0,0,0,31.48,39c-1.36,0-2.23,1.11-2.23,2.9s.8,3,2.21,3a1.77,1.77,0,0,0,1.24-.42V42.55H31.27v-.76h2.29v3a3,3,0,0,1-2.16.84C29.59,45.67,28.28,44.28,28.28,41.93Z"/><path d="M35.17,44.15c0-1.2,1.13-1.78,3.89-2a1.28,1.28,0,0,0-1.42-1.35,3.7,3.7,0,0,0-1.87.64l-.36-.61a4.6,4.6,0,0,1,2.38-.77A2,2,0,0,1,40,42.26v3.27h-.76l-.08-.72h0a3.59,3.59,0,0,1-2.1.86A1.63,1.63,0,0,1,35.17,44.15Zm3.89,0V42.75c-2.29.18-3,.63-3,1.33s.55.85,1.16.85A3,3,0,0,0,39.06,44.14Z"/><path d="M41.67,44.83l.42-.6a3.84,3.84,0,0,0,2.32.72c.91,0,1.35-.37,1.35-.82s-.21-.7-1.66-1S42,42.38,42,41.57s.76-1.51,2.23-1.51a3.92,3.92,0,0,1,2.15.68l-.44.58a3.14,3.14,0,0,0-1.79-.56c-.9,0-1.23.36-1.23.77s.46.66,1.56.89c1.77.39,2.2.83,2.2,1.65s-.85,1.6-2.38,1.6A4.73,4.73,0,0,1,41.67,44.83Z"/><path d="M55.12,40.19h.74l.08.68h0a2.86,2.86,0,0,1,1.85-.81c1.44,0,2.21,1.06,2.21,2.72,0,1.82-1.14,2.89-2.43,2.89A2.54,2.54,0,0,1,56,45h0l0,1v1.8h-.91Zm4,2.59c0-1.17-.44-2-1.51-2a2.27,2.27,0,0,0-1.56.79v2.66a2.24,2.24,0,0,0,1.42.62C58.4,44.9,59.1,44.1,59.1,42.78Z"/><path d="M63.4,43.74v-5.3H61.51V37.7h2.8v6.11a1,1,0,0,0,1.06,1.1,2.47,2.47,0,0,0,1-.24l.23.68a3.23,3.23,0,0,1-1.43.32C64,45.67,63.4,45,63.4,43.74Z"/><path d="M68.17,44.15c0-1.2,1.13-1.78,3.89-2a1.28,1.28,0,0,0-1.42-1.35,3.67,3.67,0,0,0-1.87.64l-.37-.61a4.64,4.64,0,0,1,2.39-.77A2,2,0,0,1,73,42.26v3.27h-.76l-.08-.72h0a3.59,3.59,0,0,1-2.1.86A1.63,1.63,0,0,1,68.17,44.15Zm3.89,0V42.75c-2.29.18-3,.63-3,1.33s.55.85,1.16.85A3,3,0,0,0,72.06,44.14Z"/><path d="M74.92,40.19h.74l.08.9h.05a2.76,2.76,0,0,1,2-1c1.26,0,1.85.74,1.85,2.15v3.32h-.92v-3.2c0-1-.35-1.48-1.22-1.48-.64,0-1.06.32-1.68.95v3.73h-.91Z"/><path d="M82.76,43.46V40.92H81.24v-.68l1.55-.05.12-1.72h.76v1.72h2.62v.73H83.67v2.55c0,1,.32,1.45,1.36,1.45a3.55,3.55,0,0,0,1.27-.24l.2.67a4.77,4.77,0,0,1-1.67.32C83.27,45.67,82.76,44.77,82.76,43.46Z"/><path d="M97.16,40.92H94.68v-.73h3.39v5.34h-.91Zm-.36-2.56a.68.68,0,0,1,.72-.7.71.71,0,1,1-.72.7Z"/><path d="M101.32,40.19h.74l.08.9h0a2.76,2.76,0,0,1,2-1c1.26,0,1.85.74,1.85,2.15v3.32h-.92v-3.2c0-1-.35-1.48-1.22-1.48-.64,0-1.06.32-1.68.95v3.73h-.91Z"/><path d="M114.52,40.19h.74l.08.9h0a2.8,2.8,0,0,1,2-1c1.26,0,1.85.74,1.85,2.15v3.32h-.92v-3.2c0-1-.35-1.48-1.22-1.48a2.29,2.29,0,0,0-1.68.95v3.73h-.91Z"/><path d="M120.75,42.87a2.64,2.64,0,1,1,2.64,2.8A2.62,2.62,0,0,1,120.75,42.87Zm4.35,0c0-1.23-.68-2.06-1.71-2.06s-1.7.83-1.7,2.06.68,2,1.7,2S125.1,44.09,125.1,42.87Z"/><path d="M127.72,40.19h.74l.08.9h0a2.8,2.8,0,0,1,2-1c1.26,0,1.85.74,1.85,2.15v3.32h-.92v-3.2c0-1-.35-1.48-1.22-1.48a2.29,2.29,0,0,0-1.68.95v3.73h-.91Z"/><path d="M134.23,41.56H139v.68h-4.73Z"/><path d="M140.55,42.87A2.57,2.57,0,0,1,143,40.06a2.29,2.29,0,0,1,1.61.68h0l0-1V37.7h.91v7.83h-.75l-.07-.7h0a2.58,2.58,0,0,1-1.75.84C141.48,45.67,140.55,44.65,140.55,42.87Zm4,1.23V41.44a2,2,0,0,0-1.4-.61,1.82,1.82,0,0,0-1.67,2c0,1.28.59,2,1.57,2A2,2,0,0,0,144.56,44.1Z"/><path d="M150,40.92h-2.48v-.73h3.39v5.34H150Zm-.37-2.56a.73.73,0,1,1,.73.71A.69.69,0,0,1,149.59,38.36Z"/><path d="M153.87,44.83l.42-.6a3.82,3.82,0,0,0,2.32.72c.9,0,1.34-.37,1.34-.82s-.2-.7-1.66-1-2.09-.76-2.09-1.57.76-1.51,2.23-1.51a4,4,0,0,1,2.15.68l-.44.58a3.14,3.14,0,0,0-1.79-.56c-.9,0-1.23.36-1.23.77s.46.66,1.56.89c1.77.39,2.2.83,2.2,1.65s-.85,1.6-2.38,1.6A4.73,4.73,0,0,1,153.87,44.83Z"/><path d="M160.57,44.15c0-1.2,1.12-1.78,3.89-2A1.28,1.28,0,0,0,163,40.8a3.67,3.67,0,0,0-1.87.64l-.37-.61a4.64,4.64,0,0,1,2.39-.77,2,2,0,0,1,2.18,2.2v3.27h-.76l-.08-.72h0a3.59,3.59,0,0,1-2.1.86A1.63,1.63,0,0,1,160.57,44.15Zm3.89,0V42.75c-2.29.18-3,.63-3,1.33s.55.85,1.17.85A3,3,0,0,0,164.46,44.14Z"/><path d="M167,42.87a2.57,2.57,0,0,1,2.42-2.81,2.31,2.31,0,0,1,1.61.68h0l0-1V37.7h.91v7.83h-.75l-.08-.7h0a2.58,2.58,0,0,1-1.75.84C167.88,45.67,167,44.65,167,42.87Zm4,1.23V41.44a2,2,0,0,0-1.4-.61,1.81,1.81,0,0,0-1.67,2c0,1.28.59,2,1.57,2A2,2,0,0,0,171,44.1Z"/><path d="M173.44,40.19h.94l1.23,3c.21.54.41,1.07.59,1.59h.05c.18-.52.36-1,.58-1.59l1.23-3h.88l-2.22,5.34h-1Z"/><path d="M180.37,44.15c0-1.2,1.12-1.78,3.89-2a1.28,1.28,0,0,0-1.42-1.35,3.67,3.67,0,0,0-1.87.64l-.37-.61a4.64,4.64,0,0,1,2.39-.77,2,2,0,0,1,2.18,2.2v3.27h-.76l-.08-.72h0a3.59,3.59,0,0,1-2.1.86A1.63,1.63,0,0,1,180.37,44.15Zm3.89,0V42.75c-2.29.18-3,.63-3,1.33s.55.85,1.17.85A3,3,0,0,0,184.26,44.14Z"/><path d="M187.11,40.19h.75l.08.9h0a2.78,2.78,0,0,1,2-1c1.26,0,1.85.74,1.85,2.15v3.32h-.92v-3.2c0-1-.35-1.48-1.22-1.48a2.29,2.29,0,0,0-1.68.95v3.73h-.92Z"/><path d="M195,43.46V40.92h-1.52v-.68l1.55-.05.12-1.72h.76v1.72h2.62v.73h-2.62v2.55c0,1,.32,1.45,1.35,1.45a3.56,3.56,0,0,0,1.28-.24l.2.67a4.82,4.82,0,0,1-1.67.32C195.46,45.67,195,44.77,195,43.46Z"/><path d="M200.17,44.15c0-1.2,1.12-1.78,3.88-2a1.27,1.27,0,0,0-1.41-1.35,3.67,3.67,0,0,0-1.87.64l-.37-.61a4.61,4.61,0,0,1,2.39-.77,2,2,0,0,1,2.18,2.2v3.27h-.76l-.08-.72h0a3.59,3.59,0,0,1-2.1.86A1.63,1.63,0,0,1,200.17,44.15Zm3.88,0V42.75c-2.28.18-3,.63-3,1.33s.55.85,1.17.85A2.93,2.93,0,0,0,204.05,44.14Z"/><path d="M206.68,46.51a1.47,1.47,0,0,1,.88-1.18v0a1,1,0,0,1-.55-.88,1.29,1.29,0,0,1,.64-1v0A1.73,1.73,0,0,1,207,42a2,2,0,0,1,2.1-1.91,2.11,2.11,0,0,1,.79.13h2.22v.73h-1.39a1.64,1.64,0,0,1,.45,1.08,1.87,1.87,0,0,1-2.07,1.84,2.37,2.37,0,0,1-.9-.2.75.75,0,0,0-.42.62c0,.42.41.61,1.11.61h1.2c1.38,0,2,.36,2,1.26S211,48,209.15,48C207.59,48,206.68,47.46,206.68,46.51Zm4.55-.24c0-.5-.41-.65-1.22-.65h-1a2.83,2.83,0,0,1-.81-.09c-.51.28-.69.59-.69.9,0,.56.61.91,1.75.91S211.23,46.82,211.23,46.27Zm-.91-4.3a1.23,1.23,0,1,0-1.23,1.26A1.2,1.2,0,0,0,210.32,42Z"/><path d="M213.24,42.85A2.68,2.68,0,0,1,216,40.06a2.3,2.3,0,0,1,2.44,2.5,4,4,0,0,1,0,.55h-4.53v-.7h4l-.23.25c0-1.26-.63-1.89-1.61-1.89a1.89,1.89,0,0,0-1.85,2.08,1.94,1.94,0,0,0,2.09,2.09,2.89,2.89,0,0,0,1.63-.51l.33.6a3.69,3.69,0,0,1-2.07.64A2.71,2.71,0,0,1,213.24,42.85Z"/><path d="M219.75,42.87a2.57,2.57,0,0,1,2.42-2.81,2.31,2.31,0,0,1,1.61.68h0l0-1V37.7h.91v7.83h-.75l-.08-.7h0a2.58,2.58,0,0,1-1.75.84C220.68,45.67,219.75,44.65,219.75,42.87Zm4,1.23V41.44a2,2,0,0,0-1.4-.61,1.81,1.81,0,0,0-1.67,2c0,1.28.59,2,1.57,2A2,2,0,0,0,223.76,44.1Z"/><path d="M233.17,44.15c0-1.2,1.12-1.78,3.88-2a1.27,1.27,0,0,0-1.41-1.35,3.74,3.74,0,0,0-1.88.64l-.36-.61a4.61,4.61,0,0,1,2.39-.77,2,2,0,0,1,2.18,2.2v3.27h-.76l-.08-.72h0a3.59,3.59,0,0,1-2.1.86A1.63,1.63,0,0,1,233.17,44.15Zm3.88,0V42.75c-2.28.18-3,.63-3,1.33s.55.85,1.17.85A2.93,2.93,0,0,0,237.05,44.14Z"/><path d="M240.49,40.19h.76l.08,1.26h0a2.83,2.83,0,0,1,2.39-1.39,2.19,2.19,0,0,1,1.06.22l-.21.78a2.68,2.68,0,0,0-1-.18,2.52,2.52,0,0,0-2.2,1.53v3.12h-.91Z"/><path d="M246.24,42.85A2.68,2.68,0,0,1,249,40.06a2.3,2.3,0,0,1,2.44,2.5,4,4,0,0,1,0,.55h-4.53v-.7h4l-.23.25c0-1.26-.63-1.89-1.61-1.89a1.89,1.89,0,0,0-1.85,2.08,1.94,1.94,0,0,0,2.09,2.09,2.89,2.89,0,0,0,1.63-.51l.33.6a3.69,3.69,0,0,1-2.07.64A2.71,2.71,0,0,1,246.24,42.85Z"/><path d="M253,44.15c0-1.2,1.12-1.78,3.88-2a1.27,1.27,0,0,0-1.41-1.35,3.74,3.74,0,0,0-1.88.64l-.36-.61a4.61,4.61,0,0,1,2.39-.77,2,2,0,0,1,2.18,2.2v3.27H257l-.08-.72h0a3.65,3.65,0,0,1-2.1.86A1.63,1.63,0,0,1,253,44.15Zm3.88,0V42.75c-2.28.18-3,.63-3,1.33s.55.85,1.17.85A2.93,2.93,0,0,0,256.85,44.14Z"/><path d="M28.28,14.3c0-2.33,1.33-3.74,3.2-3.74a2.65,2.65,0,0,1,2,.88l-.53.58a1.88,1.88,0,0,0-1.46-.65c-1.36,0-2.23,1.11-2.23,2.91s.8,3,2.21,3a1.82,1.82,0,0,0,1.24-.42V14.93H31.27v-.76h2.29v3A3,3,0,0,1,31.4,18C29.59,18,28.28,16.65,28.28,14.3Z"/><path d="M35.17,16.52c0-1.2,1.13-1.78,3.89-2a1.27,1.27,0,0,0-1.42-1.34,3.79,3.79,0,0,0-1.87.63l-.36-.61a4.69,4.69,0,0,1,2.38-.77A2,2,0,0,1,40,14.63v3.28h-.76l-.08-.73h0A3.59,3.59,0,0,1,37,18,1.63,1.63,0,0,1,35.17,16.52Zm3.89,0V15.12c-2.29.18-3,.63-3,1.34s.55.84,1.16.84A2.9,2.9,0,0,0,39.06,16.51Z"/><path d="M41.67,17.2l.42-.6a3.84,3.84,0,0,0,2.32.72c.91,0,1.35-.37,1.35-.82s-.21-.69-1.66-1S42,14.75,42,14s.76-1.52,2.23-1.52a4,4,0,0,1,2.15.68l-.44.58a3.14,3.14,0,0,0-1.79-.56c-.9,0-1.23.37-1.23.77s.46.66,1.56.89c1.77.39,2.2.83,2.2,1.65S45.83,18,44.3,18A4.73,4.73,0,0,1,41.67,17.2Z"/><path d="M55.12,12.56h.74l.08.68h0a2.86,2.86,0,0,1,1.85-.81c1.44,0,2.21,1.07,2.21,2.73A2.58,2.58,0,0,1,57.6,18,2.52,2.52,0,0,1,56,17.35h0l0,1v1.8h-.91Zm4,2.6c0-1.18-.44-2-1.51-2A2.27,2.27,0,0,0,56,14v2.66a2.24,2.24,0,0,0,1.42.62C58.4,17.27,59.1,16.48,59.1,15.16Z"/><path d="M63.4,16.11v-5.3H61.51v-.74h2.8v6.11a1,1,0,0,0,1.06,1.1,2.47,2.47,0,0,0,1-.24l.23.68a3.23,3.23,0,0,1-1.43.32C64,18,63.4,17.38,63.4,16.11Z"/><path d="M68.17,16.52c0-1.2,1.13-1.78,3.89-2a1.27,1.27,0,0,0-1.42-1.34,3.75,3.75,0,0,0-1.87.63l-.37-.61a4.73,4.73,0,0,1,2.39-.77A2,2,0,0,1,73,14.63v3.28h-.76l-.08-.73h0A3.59,3.59,0,0,1,70,18,1.63,1.63,0,0,1,68.17,16.52Zm3.89,0V15.12c-2.29.18-3,.63-3,1.34s.55.84,1.16.84A2.9,2.9,0,0,0,72.06,16.51Z"/><path d="M74.92,12.56h.74l.08.9h.05a2.76,2.76,0,0,1,2-1c1.26,0,1.85.75,1.85,2.16v3.32h-.92v-3.2c0-1-.35-1.49-1.22-1.49-.64,0-1.06.32-1.68,1v3.73h-.91Z"/><path d="M82.76,15.83V13.3H81.24v-.68l1.55-.06.12-1.72h.76v1.72h2.62v.74H83.67v2.54c0,1,.32,1.45,1.36,1.45a3.55,3.55,0,0,0,1.27-.24l.2.67a4.55,4.55,0,0,1-1.67.32C83.27,18,82.76,17.15,82.76,15.83Z"/><path d="M97.16,13.3H94.68v-.74h3.39v5.35h-.91Zm-.36-2.57a.68.68,0,0,1,.72-.7.71.71,0,1,1,0,1.41A.68.68,0,0,1,96.8,10.73Z"/><path d="M101.32,12.56h.74l.08.9h0a2.76,2.76,0,0,1,2-1c1.26,0,1.85.75,1.85,2.16v3.32h-.92v-3.2c0-1-.35-1.49-1.22-1.49-.64,0-1.06.32-1.68,1v3.73h-.91Z"/><path d="M114.15,15.25a2.58,2.58,0,0,1,2.42-2.82,2.29,2.29,0,0,1,1.61.68h0l0-1V10.07h.91v7.84h-.75l-.07-.71h0a2.58,2.58,0,0,1-1.75.84C115.08,18,114.15,17,114.15,15.25Zm4,1.23V13.81a2,2,0,0,0-1.4-.61,1.82,1.82,0,0,0-1.67,2c0,1.28.59,2,1.57,2A2,2,0,0,0,118.16,16.48Z"/><path d="M123.56,13.3h-2.48v-.74h3.39v5.35h-.91Zm-.37-2.57a.73.73,0,1,1,.73.71A.69.69,0,0,1,123.19,10.73Z"/><path d="M127.47,17.2l.42-.6a3.82,3.82,0,0,0,2.32.72c.91,0,1.35-.37,1.35-.82s-.21-.69-1.67-1-2.09-.76-2.09-1.56.76-1.52,2.23-1.52a4,4,0,0,1,2.15.68l-.44.58a3.14,3.14,0,0,0-1.79-.56c-.9,0-1.23.37-1.23.77s.46.66,1.56.89c1.77.39,2.2.83,2.2,1.65s-.85,1.6-2.38,1.6A4.73,4.73,0,0,1,127.47,17.2Z"/><path d="M134.17,16.52c0-1.2,1.12-1.78,3.89-2a1.27,1.27,0,0,0-1.42-1.34,3.75,3.75,0,0,0-1.87.63l-.37-.61a4.73,4.73,0,0,1,2.39-.77,2,2,0,0,1,2.18,2.2v3.28h-.76l-.08-.73h0A3.59,3.59,0,0,1,136,18,1.63,1.63,0,0,1,134.17,16.52Zm3.89,0V15.12c-2.29.18-3,.63-3,1.34s.55.84,1.17.84A2.9,2.9,0,0,0,138.06,16.51Z"/><path d="M140.55,15.25A2.58,2.58,0,0,1,143,12.43a2.29,2.29,0,0,1,1.61.68h0l0-1V10.07h.91v7.84h-.75l-.07-.71h0a2.58,2.58,0,0,1-1.75.84C141.48,18,140.55,17,140.55,15.25Zm4,1.23V13.81a2,2,0,0,0-1.4-.61,1.82,1.82,0,0,0-1.67,2c0,1.28.59,2,1.57,2A2,2,0,0,0,144.56,16.48Z"/><path d="M147,12.56H148l1.23,3c.21.54.41,1.06.59,1.58h0c.18-.52.36-1,.58-1.58l1.23-3h.88l-2.22,5.35h-1Z"/><path d="M154,16.52c0-1.2,1.12-1.78,3.89-2a1.27,1.27,0,0,0-1.42-1.34,3.75,3.75,0,0,0-1.87.63l-.37-.61a4.73,4.73,0,0,1,2.39-.77,2,2,0,0,1,2.18,2.2v3.28H158l-.08-.73h0a3.59,3.59,0,0,1-2.1.86A1.63,1.63,0,0,1,154,16.52Zm3.89,0V15.12c-2.29.18-3,.63-3,1.34s.55.84,1.17.84A2.9,2.9,0,0,0,157.86,16.51Z"/><path d="M160.71,12.56h.75l.08.9h0a2.8,2.8,0,0,1,2-1c1.26,0,1.85.75,1.85,2.16v3.32h-.92v-3.2c0-1-.35-1.49-1.22-1.49-.64,0-1.07.32-1.68,1v3.73h-.92Z"/><path d="M168.56,15.83V13.3H167v-.68l1.55-.06.12-1.72h.76v1.72h2.62v.74h-2.62v2.54c0,1,.32,1.45,1.35,1.45a3.56,3.56,0,0,0,1.28-.24l.2.67a4.6,4.6,0,0,1-1.67.32C169.06,18,168.56,17.15,168.56,15.83Z"/><path d="M173.77,16.52c0-1.2,1.12-1.78,3.89-2a1.27,1.27,0,0,0-1.42-1.34,3.75,3.75,0,0,0-1.87.63L174,13.2a4.73,4.73,0,0,1,2.39-.77,2,2,0,0,1,2.18,2.2v3.28h-.76l-.08-.73h0a3.59,3.59,0,0,1-2.1.86A1.63,1.63,0,0,1,173.77,16.52Zm3.89,0V15.12c-2.29.18-3,.63-3,1.34s.55.84,1.17.84A2.9,2.9,0,0,0,177.66,16.51Z"/><path d="M180.28,18.89a1.49,1.49,0,0,1,.88-1.19v-.05a1,1,0,0,1-.55-.88,1.3,1.3,0,0,1,.64-1v0a1.73,1.73,0,0,1-.66-1.39,2,2,0,0,1,2.1-1.91,2.2,2.2,0,0,1,.8.13h2.21v.74h-1.39a1.62,1.62,0,0,1,.45,1.08,1.87,1.87,0,0,1-2.07,1.83,2.35,2.35,0,0,1-.9-.19.74.74,0,0,0-.42.61c0,.42.41.62,1.11.62h1.2c1.38,0,2,.35,2,1.25s-1.16,1.87-3,1.87C181.19,20.37,180.28,19.83,180.28,18.89Zm4.55-.24c0-.51-.41-.65-1.22-.65h-1.05a3.23,3.23,0,0,1-.81-.09c-.51.27-.69.58-.69.89,0,.56.61.91,1.75.91S184.83,19.19,184.83,18.65Zm-.9-4.31a1.24,1.24,0,1,0-1.24,1.27A1.21,1.21,0,0,0,183.93,14.34Z"/><path d="M186.84,15.22a2.68,2.68,0,0,1,2.73-2.79A2.3,2.3,0,0,1,192,14.94a4.15,4.15,0,0,1,0,.55h-4.53v-.71h4l-.23.26c0-1.27-.63-1.9-1.61-1.9a1.89,1.89,0,0,0-1.85,2.08,1.94,1.94,0,0,0,2.09,2.09,2.88,2.88,0,0,0,1.63-.5l.33.59a3.69,3.69,0,0,1-2.07.64A2.71,2.71,0,0,1,186.84,15.22Z"/><path d="M193.35,15.25a2.58,2.58,0,0,1,2.42-2.82,2.31,2.31,0,0,1,1.61.68h0l0-1V10.07h.91v7.84h-.75l-.08-.71h0a2.58,2.58,0,0,1-1.75.84C194.28,18,193.35,17,193.35,15.25Zm4,1.23V13.81a2,2,0,0,0-1.4-.61,1.81,1.81,0,0,0-1.67,2c0,1.28.59,2,1.57,2A2,2,0,0,0,197.36,16.48Z"/><path d="M206.77,16.52c0-1.2,1.12-1.78,3.88-2a1.26,1.26,0,0,0-1.41-1.34,3.75,3.75,0,0,0-1.87.63L207,13.2a4.7,4.7,0,0,1,2.39-.77,2,2,0,0,1,2.18,2.2v3.28h-.76l-.08-.73h0a3.59,3.59,0,0,1-2.1.86A1.63,1.63,0,0,1,206.77,16.52Zm3.88,0V15.12c-2.28.18-3,.63-3,1.34s.55.84,1.17.84A2.88,2.88,0,0,0,210.65,16.51Z"/><path d="M214.09,12.56h.76l.08,1.27h0a2.81,2.81,0,0,1,2.38-1.4,2.19,2.19,0,0,1,1.06.22l-.21.78a2.68,2.68,0,0,0-1-.18,2.52,2.52,0,0,0-2.2,1.53v3.13h-.91Z"/><path d="M219.84,15.22a2.68,2.68,0,0,1,2.73-2.79A2.3,2.3,0,0,1,225,14.94a4.15,4.15,0,0,1,0,.55h-4.53v-.71h4l-.23.26c0-1.27-.63-1.9-1.61-1.9a1.89,1.89,0,0,0-1.85,2.08,1.94,1.94,0,0,0,2.09,2.09,2.88,2.88,0,0,0,1.63-.5l.33.59a3.69,3.69,0,0,1-2.07.64A2.71,2.71,0,0,1,219.84,15.22Z"/><path d="M226.57,16.52c0-1.2,1.12-1.78,3.88-2A1.26,1.26,0,0,0,229,13.18a3.75,3.75,0,0,0-1.87.63l-.37-.61a4.7,4.7,0,0,1,2.39-.77,2,2,0,0,1,2.18,2.2v3.28h-.76l-.08-.73h0a3.59,3.59,0,0,1-2.1.86A1.63,1.63,0,0,1,226.57,16.52Zm3.88,0V15.12c-2.28.18-3,.63-3,1.34s.55.84,1.17.84A2.88,2.88,0,0,0,230.45,16.51Z"/><rect class="cls-3" width="173.96" height="57.04"/></svg>