<svg id="Layer_1" data-name="Layer 1" xmlns="http://www.w3.org/2000/svg" viewBox="0 0 385.47 179.62"><defs><style>.cls-1{fill:#1d1d1b;}.cls-2{fill:#4aad33;}.cls-2,.cls-3,.cls-4{opacity:0.5;}.cls-3{fill:#ffe104;}.cls-4{fill:#e52320;}</style></defs><path class="cls-1" d="M19.46,19.15h2.77c1.69,0,3.06.61,3.06,2.51s-1.4,2.65-3.06,2.65h-1V27H19.46Zm2.67,3.76c1,0,1.43-.44,1.43-1.25s-.5-1.11-1.43-1.11h-.9v2.36Z"/><path class="cls-1" d="M26.32,24a3,3,0,1,1,6.07,0,3,3,0,1,1-6.07,0Zm4.27,0c0-1-.42-1.7-1.23-1.7S28.13,23,28.13,24s.42,1.69,1.23,1.69S30.59,25,30.59,24Z"/><path class="cls-1" d="M35.43,24.64v-4.7H33.56V18.56h3.63v6.15a.88.88,0,0,0,1,1,2.7,2.7,0,0,0,.93-.19l.39,1.29a4.82,4.82,0,0,1-1.78.33A2.17,2.17,0,0,1,35.43,24.64Z"/><path class="cls-1" d="M42.63,24.64v-4.7H40.76V18.56h3.63v6.15a.88.88,0,0,0,1,1,2.7,2.7,0,0,0,.93-.19l.39,1.29a4.82,4.82,0,0,1-1.78.33A2.17,2.17,0,0,1,42.63,24.64Z"/><path class="cls-1" d="M48.1,24.69V21h1.77v3.45c0,.79.21,1.14.87,1.14a1.34,1.34,0,0,0,1.15-.68V21h1.76V27H52.21l-.12-.85H52a2.58,2.58,0,0,1-2,1C48.68,27.11,48.1,26.19,48.1,24.69Z"/><path class="cls-1" d="M56.65,24.5V22.4h-1.5V21.08L56.73,21,57,19.19h1.46V21h2.51V22.4H58.42v2.07c0,.91.38,1.25,1.25,1.25a3.53,3.53,0,0,0,1.17-.21l.32,1.27a6.4,6.4,0,0,1-1.94.33A2.28,2.28,0,0,1,56.65,24.5Z"/><path class="cls-1" d="M65.1,22.4H62.7V21h4.16V27H65.1ZM64.73,19a1.17,1.17,0,0,1,2.34,0,1.17,1.17,0,0,1-2.34,0Z"/><path class="cls-1" d="M69.52,24a3,3,0,1,1,6.07,0,3,3,0,1,1-6.07,0Zm4.27,0c0-1-.42-1.7-1.23-1.7S71.33,23,71.33,24s.42,1.69,1.23,1.69S73.79,25,73.79,24Z"/><path class="cls-1" d="M77,21h1.44l.13.8h0a2.87,2.87,0,0,1,2-.94c1.35,0,1.94.92,1.94,2.42V27H80.87V23.52c0-.8-.23-1.15-.88-1.15a1.65,1.65,0,0,0-1.2.62v4H77Z"/><path class="cls-1" d="M91.19,26.19l.75-1.1a4.52,4.52,0,0,0,2.41.71c.65,0,.94-.22.94-.51s-.29-.45-1.46-.7c-1.61-.35-2.26-.94-2.26-1.86,0-1.11,1-1.86,2.74-1.86a4.86,4.86,0,0,1,2.57.81l-.79,1.06a3.86,3.86,0,0,0-1.94-.57c-.56,0-.83.2-.83.48s.37.41,1.37.63c1.84.41,2.35.94,2.35,1.91s-1,1.92-2.94,1.92A5.49,5.49,0,0,1,91.19,26.19Z"/><path class="cls-1" d="M98.42,24a3,3,0,0,1,3.1-3.11,2.64,2.64,0,0,1,2.8,2.85,4.17,4.17,0,0,1-.08.79H99.73V23.33h3.32l-.28.34c0-1-.41-1.46-1.2-1.46s-1.44.59-1.44,1.77A1.6,1.6,0,0,0,102,25.76a3.34,3.34,0,0,0,1.53-.41l.59,1.06a4.52,4.52,0,0,1-2.36.7A3,3,0,0,1,98.42,24Z"/><path class="cls-1" d="M105.82,21h1.44l.13.8h0a2.87,2.87,0,0,1,2-.94c1.35,0,1.94.92,1.94,2.42V27h-1.76V23.52c0-.8-.23-1.15-.88-1.15a1.65,1.65,0,0,0-1.2.62v4h-1.77Z"/><path class="cls-1" d="M112.79,26.19l.75-1.1a4.52,4.52,0,0,0,2.41.71c.65,0,.94-.22.94-.51s-.29-.45-1.46-.7c-1.62-.35-2.26-.94-2.26-1.86,0-1.11,1-1.86,2.74-1.86a4.86,4.86,0,0,1,2.57.81l-.79,1.06a3.86,3.86,0,0,0-2-.57c-.55,0-.82.2-.82.48s.37.41,1.37.63c1.84.41,2.35.94,2.35,1.91s-1,1.92-2.94,1.92A5.49,5.49,0,0,1,112.79,26.19Z"/><path class="cls-1" d="M119.92,24A3,3,0,1,1,126,24a3,3,0,1,1-6.07,0Zm4.27,0c0-1-.42-1.7-1.23-1.7s-1.23.67-1.23,1.7.42,1.69,1.23,1.69S124.19,25,124.19,24Z"/><path class="cls-1" d="M127.94,21h1.46l.13,1.3h.05A2.76,2.76,0,0,1,132,20.87a2.35,2.35,0,0,1,1.14.24l-.36,1.48a3.17,3.17,0,0,0-1.05-.17,2.2,2.2,0,0,0-2,1.45V27h-1.77Z"/><path class="cls-1" d="M142.34,21h1.45l.14,1.3h0a2.76,2.76,0,0,1,2.41-1.44,2.35,2.35,0,0,1,1.14.24l-.36,1.48a3.17,3.17,0,0,0-1-.17,2.2,2.2,0,0,0-2,1.45V27h-1.77Z"/><path class="cls-1" d="M148.82,24a3,3,0,0,1,3.09-3.11,2.64,2.64,0,0,1,2.81,2.85,4.17,4.17,0,0,1-.08.79h-4.51V23.33h3.32l-.28.34c0-1-.41-1.46-1.2-1.46s-1.44.59-1.44,1.77a1.6,1.6,0,0,0,1.83,1.78,3.34,3.34,0,0,0,1.53-.41l.59,1.06a4.54,4.54,0,0,1-2.36.7A3,3,0,0,1,148.82,24Z"/><path class="cls-1" d="M156.09,25.31c0-1.33,1.11-2,3.92-2.18-.06-.53-.47-.86-1.26-.86a4.08,4.08,0,0,0-1.82.56l-.63-1.16a5.69,5.69,0,0,1,2.79-.8,2.41,2.41,0,0,1,2.68,2.69V27h-1.44l-.13-.67h0a3.67,3.67,0,0,1-2.11.82A1.81,1.81,0,0,1,156.09,25.31Zm3.92-.14v-1c-1.75.08-2.22.46-2.22,1s.32.57.82.57A2.26,2.26,0,0,0,160,25.17Z"/><path class="cls-1" d="M163.12,24c0-1.95,1.25-3.12,2.55-3.12a2,2,0,0,1,1.5.64h0l-.08-.92v-2h1.76V27h-1.44l-.13-.61h0a2.49,2.49,0,0,1-1.65.76C164.11,27.11,163.12,25.93,163.12,24Zm4,1.12v-2.4a1.43,1.43,0,0,0-1-.4c-.64,0-1.2.53-1.2,1.66s.43,1.69,1.15,1.69A1.25,1.25,0,0,0,167.13,25.11Z"/><path class="cls-1" d="M173.1,22.4h-2.4V21h4.16V27H173.1Zm-.37-3.4a1.17,1.17,0,0,1,2.34,0,1.17,1.17,0,0,1-2.34,0Z"/><path class="cls-1" d="M177.82,21h1.44l.13.8h.05a2.86,2.86,0,0,1,2.05-.94c1.35,0,1.94.92,1.94,2.42V27h-1.76V23.52c0-.8-.23-1.15-.88-1.15a1.65,1.65,0,0,0-1.2.62v4h-1.77Z"/><path class="cls-1" d="M184.78,28c0-.49.32-.88.92-1.19v-.05a1.15,1.15,0,0,1-.6-1,1.47,1.47,0,0,1,.72-1.12v-.05A1.81,1.81,0,0,1,185,23c0-1.42,1.2-2.15,2.55-2.15a3.36,3.36,0,0,1,1,.14H191v1.3h-1.21a1.32,1.32,0,0,1,.26.78c0,1.37-1.07,2-2.45,2a3.25,3.25,0,0,1-.82-.12.49.49,0,0,0-.26.44c0,.32.31.44,1,.44h1.1c1.56,0,2.41.44,2.41,1.51,0,1.24-1.38,2.14-3.54,2.14C185.93,29.49,184.78,29,184.78,28Zm4.56-.32c0-.38-.36-.45-1-.45h-.75a4,4,0,0,1-.91-.08c-.3.19-.42.37-.42.58,0,.45.58.68,1.51.68S189.34,28.06,189.34,27.65ZM188.48,23a.9.9,0,1,0-.9,1A.89.89,0,0,0,188.48,23Z"/><path class="cls-1" d="M192,26.19l.75-1.1a4.52,4.52,0,0,0,2.41.71c.65,0,.94-.22.94-.51s-.29-.45-1.46-.7c-1.62-.35-2.26-.94-2.26-1.86,0-1.11,1-1.86,2.73-1.86a4.87,4.87,0,0,1,2.58.81l-.79,1.06a3.86,3.86,0,0,0-1.95-.57c-.55,0-.82.2-.82.48s.36.41,1.37.63c1.84.41,2.35.94,2.35,1.91s-1,1.92-2.94,1.92A5.46,5.46,0,0,1,192,26.19Z"/><path class="cls-1" d="M20.76,44c0-2.48,1.63-5,4.07-5a2.16,2.16,0,0,1,1.94,1.17l-.67.49a1.47,1.47,0,0,0-1.32-.84c-1.87,0-3.06,2.17-3.06,4.08,0,1.43.6,2.45,2,2.45a2.57,2.57,0,0,0,1.66-.7l.44.6a3.44,3.44,0,0,1-2.27.91C21.76,47.18,20.76,45.89,20.76,44Z"/><path class="cls-1" d="M29.38,45.62a2.52,2.52,0,0,1,.08-.63l1.2-5.75H28.73l.16-.74h2.84L30.37,45a3.07,3.07,0,0,0-.06.53.77.77,0,0,0,.88.85,2.33,2.33,0,0,0,1.14-.31l.23.71a3.67,3.67,0,0,1-1.62.38A1.44,1.44,0,0,1,29.38,45.62Z"/><path class="cls-1" d="M36.83,45.72a3.16,3.16,0,0,1,.09-.65l.7-3.12H35.49l.15-.74h3l-.86,4a1.26,1.26,0,0,0,0,.37.78.78,0,0,0,.89.86,2.8,2.8,0,0,0,1.11-.3l.22.7a3.7,3.7,0,0,1-1.6.38A1.4,1.4,0,0,1,36.83,45.72Zm.83-6.4a.84.84,0,0,1,.83-.82.62.62,0,0,1,.69.65.83.83,0,0,1-.84.82A.63.63,0,0,1,37.66,39.32Z"/><path class="cls-1" d="M42.24,44.61a3.5,3.5,0,0,1,3.52-3.55,2.72,2.72,0,0,1,2.19,1l-.6.53a2,2,0,0,0-1.71-.8,2.67,2.67,0,0,0-2.46,2.67,1.73,1.73,0,0,0,1.87,1.89,2.85,2.85,0,0,0,1.86-.8l.37.63a3.52,3.52,0,0,1-2.35,1A2.45,2.45,0,0,1,42.24,44.61Z"/><path class="cls-1" d="M50.93,38.5h.94L50.7,44.3h0l3.79-3.09h1.12l-3,2.59-2.15,1.7L50.15,47h-.92Zm1.88,4.84L54.74,47h-1L52.18,44Z"/><path class="cls-1" d="M63.59,44.63A3.47,3.47,0,0,1,67,41.06a2.34,2.34,0,0,1,2.43,2.56A3.46,3.46,0,0,1,66,47.18,2.34,2.34,0,0,1,63.59,44.63Zm4.86-1c0-1.13-.59-1.84-1.57-1.84a2.59,2.59,0,0,0-2.35,2.73c0,1.12.59,1.83,1.57,1.83A2.6,2.6,0,0,0,68.45,43.68Z"/><path class="cls-1" d="M71.82,41.21h.77l-.16,1.19h0a3.86,3.86,0,0,1,2.62-1.34,1.33,1.33,0,0,1,1.5,1.46,5,5,0,0,1-.11.95L75.77,47h-.93l.7-3.47a4.12,4.12,0,0,0,.11-.82.82.82,0,0,0-.93-.88,3.43,3.43,0,0,0-2.37,1.4L71.59,47h-.92Z"/><path class="cls-1" d="M85.3,46.11l.54-.58a2.91,2.91,0,0,0,2.21.93c.81,0,1.41-.29,1.41-.92s-.56-.78-1.53-1.11c-1.22-.4-1.76-.9-1.76-1.71,0-1.12,1-1.66,2.19-1.66a3.41,3.41,0,0,1,2.43.95l-.51.58a3.06,3.06,0,0,0-2-.81c-.75,0-1.21.32-1.21.83s.5.78,1.44,1.1c1.09.36,1.85.76,1.85,1.71,0,1.26-1.09,1.76-2.46,1.76A3.5,3.5,0,0,1,85.3,46.11Z"/><path class="cls-1" d="M92.59,44.66a3.45,3.45,0,0,1,3.33-3.6,2.09,2.09,0,0,1,2.22,2.25,3.77,3.77,0,0,1-.16,1H93.3l.12-.72h4.16l-.38.18a2,2,0,0,0,.07-.54,1.33,1.33,0,0,0-1.4-1.47,2.64,2.64,0,0,0-2.36,2.81,1.65,1.65,0,0,0,1.75,1.84,3.24,3.24,0,0,0,2-.76l.35.63a4.2,4.2,0,0,1-2.52.86A2.3,2.3,0,0,1,92.59,44.66Z"/><path class="cls-1" d="M100.62,41.21h.77l-.16,1.19h0a3.86,3.86,0,0,1,2.62-1.34,1.33,1.33,0,0,1,1.5,1.46,5,5,0,0,1-.11.95L104.57,47h-.93l.7-3.47a4.12,4.12,0,0,0,.11-.82.82.82,0,0,0-.93-.88,3.43,3.43,0,0,0-2.37,1.4L100.39,47h-.92Z"/><path class="cls-1" d="M106.9,46.11l.54-.58a2.91,2.91,0,0,0,2.21.93c.81,0,1.41-.29,1.41-.92s-.56-.78-1.53-1.11c-1.22-.4-1.76-.9-1.76-1.71,0-1.12,1-1.66,2.19-1.66a3.41,3.41,0,0,1,2.43.95l-.51.58a3.06,3.06,0,0,0-2-.81c-.75,0-1.21.32-1.21.83s.5.78,1.44,1.1c1.09.36,1.85.76,1.85,1.71,0,1.26-1.1,1.76-2.46,1.76A3.5,3.5,0,0,1,106.9,46.11Z"/><path class="cls-1" d="M114,44.63a3.47,3.47,0,0,1,3.36-3.57,2.34,2.34,0,0,1,2.43,2.56,3.46,3.46,0,0,1-3.34,3.56A2.34,2.34,0,0,1,114,44.63Zm4.86-1c0-1.13-.59-1.84-1.57-1.84a2.59,2.59,0,0,0-2.35,2.73c0,1.12.58,1.83,1.57,1.83A2.6,2.6,0,0,0,118.85,43.68Z"/><path class="cls-1" d="M123,41.2h.77l-.25,1.67h0a3.47,3.47,0,0,1,2.61-1.82,2.07,2.07,0,0,1,1.18.3l-.37.8a1.77,1.77,0,0,0-1-.26c-.9,0-1.83.85-2.62,2.11l-.61,3h-.93Z"/><path class="cls-1" d="M128.5,46.11l.54-.58a2.91,2.91,0,0,0,2.21.93c.81,0,1.41-.29,1.41-.92s-.56-.78-1.54-1.11c-1.21-.4-1.75-.9-1.75-1.71,0-1.12,1-1.66,2.19-1.66A3.41,3.41,0,0,1,134,42l-.51.58a3.06,3.06,0,0,0-2-.81c-.75,0-1.21.32-1.21.83s.5.78,1.44,1.1c1.09.36,1.85.76,1.85,1.71,0,1.26-1.1,1.76-2.46,1.76A3.5,3.5,0,0,1,128.5,46.11Z"/><path class="cls-1" d="M143.75,41.27l1.69-.06h3.37l-.16.74h-5Zm1.81-.7a2.4,2.4,0,0,1,2.54-2.22,2.62,2.62,0,0,1,1.69.59l-.44.6a1.87,1.87,0,0,0-1.22-.43,1.59,1.59,0,0,0-1.65,1.49L145.19,47h-.92Z"/><path class="cls-1" d="M150,44.63a3.47,3.47,0,0,1,3.36-3.57,2.34,2.34,0,0,1,2.43,2.56,3.46,3.46,0,0,1-3.34,3.56A2.34,2.34,0,0,1,150,44.63Zm4.86-1c0-1.13-.59-1.84-1.57-1.84a2.59,2.59,0,0,0-2.35,2.73c0,1.12.58,1.83,1.57,1.83A2.6,2.6,0,0,0,154.85,43.68Z"/><path class="cls-1" d="M159,41.2h.77l-.25,1.67h.05a3.47,3.47,0,0,1,2.61-1.82,2.07,2.07,0,0,1,1.18.3l-.37.8a1.77,1.77,0,0,0-1-.26c-.9,0-1.83.85-2.62,2.11l-.61,3h-.93Z"/><path class="cls-1" d="M172.62,41.21h.77l-.16,1.19h.05a3.86,3.86,0,0,1,2.62-1.34,1.33,1.33,0,0,1,1.49,1.46,5,5,0,0,1-.1.95L176.57,47h-.93l.7-3.47a4.12,4.12,0,0,0,.11-.82.82.82,0,0,0-.93-.88,3.41,3.41,0,0,0-2.37,1.4L172.39,47h-.92Z"/><path class="cls-1" d="M180.83,45.72a4,4,0,0,1,.08-.65l.71-3.12h-2.13l.15-.74h3.05l-.87,4a1.67,1.67,0,0,0,0,.37.78.78,0,0,0,.88.86,2.85,2.85,0,0,0,1.12-.3l.22.7a3.7,3.7,0,0,1-1.6.38A1.39,1.39,0,0,1,180.83,45.72Zm.83-6.4a.84.84,0,0,1,.82-.82.63.63,0,0,1,.7.65.83.83,0,0,1-.84.82A.63.63,0,0,1,181.66,39.32Z"/><path class="cls-1" d="M187.34,45.51a3.37,3.37,0,0,1,.1-.75L188,42h-1.69l.13-.68,1.75-.06.5-1.87h.77l-.38,1.87H192l-.15.74h-2.88l-.59,2.83a2.2,2.2,0,0,0-.06.53,1,1,0,0,0,1.08,1.09,3.06,3.06,0,0,0,1.51-.42l.3.67a4,4,0,0,1-2,.53A1.56,1.56,0,0,1,187.34,45.51Z"/><path class="cls-1" d="M195,41.2h.77l-.25,1.67h.05a3.47,3.47,0,0,1,2.61-1.82,2.1,2.1,0,0,1,1.18.3l-.38.8a1.74,1.74,0,0,0-1-.26c-.9,0-1.83.85-2.62,2.11l-.62,3h-.92Z"/><path class="cls-1" d="M200.39,44.63a3.47,3.47,0,0,1,3.36-3.57,2.34,2.34,0,0,1,2.43,2.56,3.46,3.46,0,0,1-3.34,3.56A2.34,2.34,0,0,1,200.39,44.63Zm4.86-1c0-1.13-.59-1.84-1.57-1.84a2.59,2.59,0,0,0-2.35,2.73c0,1.12.58,1.83,1.57,1.83A2.6,2.6,0,0,0,205.25,43.68Z"/><path class="cls-1" d="M207.23,48.92l.43-.67a2.79,2.79,0,0,0,1.8.62,2,2,0,0,0,2.11-1.58l.28-1.24h0a3.13,3.13,0,0,1-2.08.94,1.94,1.94,0,0,1-2-2.18c0-2.06,1.42-3.75,3.16-3.75a2,2,0,0,1,1.78.88h.05l.25-.73h.74l-1.23,6.11a2.77,2.77,0,0,1-3,2.32A3.54,3.54,0,0,1,207.23,48.92Zm4.71-3.74.53-2.47a1.76,1.76,0,0,0-1.5-.87,2.66,2.66,0,0,0-2.33,2.81c0,1.07.52,1.56,1.36,1.56A2.8,2.8,0,0,0,211.94,45.18Z"/><path class="cls-1" d="M215,44.66a3.45,3.45,0,0,1,3.33-3.6,2.08,2.08,0,0,1,2.21,2.25,3.84,3.84,0,0,1-.15,1H215.7l.12-.72H220l-.38.18a2,2,0,0,0,.07-.54,1.33,1.33,0,0,0-1.4-1.47,2.65,2.65,0,0,0-2.37,2.81,1.66,1.66,0,0,0,1.76,1.84,3.24,3.24,0,0,0,2-.76l.34.63a4.15,4.15,0,0,1-2.51.86A2.3,2.3,0,0,1,215,44.66Z"/><path class="cls-1" d="M223,41.21h.77l-.16,1.19h.05a3.85,3.85,0,0,1,2.61-1.34,1.33,1.33,0,0,1,1.5,1.46,5,5,0,0,1-.1.95L227,47H226l.7-3.47a4.12,4.12,0,0,0,.11-.82.82.82,0,0,0-.93-.88,3.41,3.41,0,0,0-2.37,1.4L222.79,47h-.92Z"/><path class="cls-1" d="M236.39,44.63a3.47,3.47,0,0,1,3.36-3.57,2.34,2.34,0,0,1,2.43,2.56,3.46,3.46,0,0,1-3.35,3.56A2.33,2.33,0,0,1,236.39,44.63Zm4.86-1c0-1.13-.59-1.84-1.58-1.84a2.6,2.6,0,0,0-2.35,2.73c0,1.12.59,1.83,1.58,1.83A2.6,2.6,0,0,0,241.25,43.68Z"/><path class="cls-1" d="M246,44l-1.5-2.79h1l.7,1.32.47,1h0l.79-1,1.17-1.32h1.09L247,44.09,248.67,47h-1l-.76-1.39c0-.11-.46-.89-.52-1h-.07c-.08.12-.71.85-.8,1L244.25,47h-1.09Z"/><path class="cls-1" d="M252.83,45.72a3.11,3.11,0,0,1,.08-.65l.71-3.12h-2.14l.16-.74h3.05l-.87,4a1.67,1.67,0,0,0,0,.37.78.78,0,0,0,.88.86,2.85,2.85,0,0,0,1.12-.3l.21.7a3.65,3.65,0,0,1-1.59.38A1.39,1.39,0,0,1,252.83,45.72Zm.83-6.4a.84.84,0,0,1,.82-.82.63.63,0,0,1,.7.65.83.83,0,0,1-.84.82A.63.63,0,0,1,253.66,39.32Z"/><path class="cls-1" d="M258.06,45c0-2.09,1.43-3.89,3.2-3.89a2,2,0,0,1,1.75.86h0l.2-1.14.46-2.28h.92L262.91,47h-.76l.08-.89h0a3.15,3.15,0,0,1-2.14,1C258.85,47.18,258.06,46.4,258.06,45Zm4.27.32.54-2.58a1.74,1.74,0,0,0-1.49-.85c-1.33,0-2.37,1.41-2.37,3,0,1.09.53,1.59,1.33,1.59A2.78,2.78,0,0,0,262.33,45.27Z"/><path class="cls-1" d="M265.39,44.66a3.45,3.45,0,0,1,3.32-3.6,2.09,2.09,0,0,1,2.22,2.25,3.84,3.84,0,0,1-.15,1H266.1l.12-.72h4.16l-.38.18a2,2,0,0,0,.07-.54,1.33,1.33,0,0,0-1.4-1.47,2.65,2.65,0,0,0-2.37,2.81,1.66,1.66,0,0,0,1.75,1.84,3.24,3.24,0,0,0,2-.76l.34.63a4.17,4.17,0,0,1-2.51.86A2.3,2.3,0,0,1,265.39,44.66Z"/><path class="cls-1" d="M279.23,48.92l.43-.67a2.79,2.79,0,0,0,1.8.62,2,2,0,0,0,2.11-1.58l.28-1.24h-.05a3.13,3.13,0,0,1-2.08.94,1.94,1.94,0,0,1-2-2.18c0-2.06,1.42-3.75,3.16-3.75a2,2,0,0,1,1.78.88h0l.26-.73h.74l-1.23,6.11a2.77,2.77,0,0,1-3,2.32A3.54,3.54,0,0,1,279.23,48.92Zm4.71-3.74.53-2.47a1.76,1.76,0,0,0-1.5-.87,2.66,2.66,0,0,0-2.33,2.81c0,1.07.52,1.56,1.36,1.56A2.8,2.8,0,0,0,283.94,45.18Z"/><path class="cls-1" d="M286.86,45c0-2.09,1.43-3.89,3.2-3.89a2,2,0,0,1,1.78.88h0l.24-.73h.76L291.71,47H291l.08-.89h0a3.15,3.15,0,0,1-2.14,1C287.65,47.18,286.86,46.4,286.86,45Zm4.27.32.54-2.58a1.74,1.74,0,0,0-1.49-.85c-1.33,0-2.37,1.41-2.37,3,0,1.09.52,1.59,1.33,1.59A2.78,2.78,0,0,0,291.13,45.27Z"/><path class="cls-1" d="M294.1,46.11l.54-.58a2.89,2.89,0,0,0,2.2.93c.82,0,1.42-.29,1.42-.92s-.57-.78-1.54-1.11c-1.21-.4-1.75-.9-1.75-1.71,0-1.12,1-1.66,2.18-1.66a3.42,3.42,0,0,1,2.44.95l-.52.58a3,3,0,0,0-2-.81c-.76,0-1.21.32-1.21.83s.5.78,1.44,1.1,1.84.76,1.84,1.71c0,1.26-1.09,1.76-2.46,1.76A3.5,3.5,0,0,1,294.1,46.11Z"/><path class="cls-1" d="M310.15,41.2h.77l-.25,1.67h0a3.48,3.48,0,0,1,2.62-1.82,2,2,0,0,1,1.17.3l-.37.8a1.76,1.76,0,0,0-1-.26c-.9,0-1.83.85-2.63,2.11l-.61,3H309Z"/><path class="cls-1" d="M315.79,44.66a3.45,3.45,0,0,1,3.32-3.6,2.09,2.09,0,0,1,2.22,2.25,3.84,3.84,0,0,1-.15,1H316.5l.12-.72h4.16l-.38.18a2,2,0,0,0,.07-.54,1.33,1.33,0,0,0-1.4-1.47,2.65,2.65,0,0,0-2.37,2.81,1.66,1.66,0,0,0,1.75,1.84,3.24,3.24,0,0,0,2-.76l.34.63a4.18,4.18,0,0,1-2.52.86A2.29,2.29,0,0,1,315.79,44.66Z"/><path class="cls-1" d="M322.86,45c0-2.09,1.43-3.89,3.2-3.89a2,2,0,0,1,1.78.88h0l.24-.73h.76L327.7,47H327l.08-.89h0a3.1,3.1,0,0,1-2.13,1C323.65,47.18,322.86,46.4,322.86,45Zm4.27.32.54-2.58a1.74,1.74,0,0,0-1.49-.85c-1.33,0-2.37,1.41-2.37,3,0,1.09.52,1.59,1.33,1.59A2.78,2.78,0,0,0,327.13,45.27Z"/><path class="cls-1" d="M330.06,45c0-2.09,1.43-3.89,3.2-3.89a2,2,0,0,1,1.75.86h0l.2-1.14.46-2.28h.92L334.9,47h-.75l.08-.89h-.05a3.1,3.1,0,0,1-2.13,1C330.85,47.18,330.06,46.4,330.06,45Zm4.27.32.54-2.58a1.74,1.74,0,0,0-1.49-.85c-1.33,0-2.37,1.41-2.37,3,0,1.09.52,1.59,1.33,1.59A2.78,2.78,0,0,0,334.33,45.27Z"/><path class="cls-1" d="M339.23,45.72a3.11,3.11,0,0,1,.08-.65L340,42h-2.14l.16-.74h3l-.86,4a1.72,1.72,0,0,0-.05.37.78.78,0,0,0,.89.86,2.85,2.85,0,0,0,1.12-.3l.21.7a3.65,3.65,0,0,1-1.59.38A1.39,1.39,0,0,1,339.23,45.72Zm.82-6.4a.85.85,0,0,1,.83-.82.63.63,0,0,1,.7.65.83.83,0,0,1-.84.82A.63.63,0,0,1,340.05,39.32Z"/><path class="cls-1" d="M345.42,41.21h.77L346,42.4h.05a3.85,3.85,0,0,1,2.61-1.34,1.33,1.33,0,0,1,1.5,1.46,5,5,0,0,1-.11.95L349.36,47h-.92l.7-3.47a4.07,4.07,0,0,0,.1-.82.81.81,0,0,0-.92-.88,3.41,3.41,0,0,0-2.37,1.4L345.19,47h-.92Z"/><path class="cls-1" d="M351.23,48.92l.43-.67a2.79,2.79,0,0,0,1.8.62,2,2,0,0,0,2.11-1.58l.27-1.24h0a3.15,3.15,0,0,1-2.08.94,2,2,0,0,1-2-2.18,3.51,3.51,0,0,1,3.17-3.75,2,2,0,0,1,1.78.88h0l.26-.73h.74l-1.24,6.11a2.76,2.76,0,0,1-3,2.32A3.52,3.52,0,0,1,351.23,48.92Zm4.71-3.74.53-2.47a1.77,1.77,0,0,0-1.5-.87,2.66,2.66,0,0,0-2.33,2.81c0,1.07.52,1.56,1.36,1.56A2.8,2.8,0,0,0,355.94,45.18Z"/><path class="cls-1" d="M358.89,46.11l.54-.58a2.92,2.92,0,0,0,2.21.93c.82,0,1.42-.29,1.42-.92s-.57-.78-1.54-1.11c-1.21-.4-1.75-.9-1.75-1.71,0-1.12,1-1.66,2.18-1.66a3.42,3.42,0,0,1,2.44.95l-.52.58a3,3,0,0,0-2-.81c-.76,0-1.21.32-1.21.83s.5.78,1.43,1.1c1.1.36,1.85.76,1.85,1.71,0,1.26-1.09,1.76-2.46,1.76A3.54,3.54,0,0,1,358.89,46.11Z"/><path class="cls-1" d="M367.55,46.37a1.11,1.11,0,0,1,1.07-1.14.75.75,0,0,1,.77.81,1.13,1.13,0,0,1-1.09,1.14A.75.75,0,0,1,367.55,46.37Z"/><circle class="cls-2" cx="29.47" cy="72.92" r="8.71"/><path class="cls-1" d="M48.19,69.15h1v7h3.89V77H48.19Z"/><path class="cls-1" d="M54.5,74.12a2.88,2.88,0,1,1,2.88,3A2.85,2.85,0,0,1,54.5,74.12Zm4.74,0c0-1.35-.75-2.25-1.86-2.25s-1.86.9-1.86,2.25.74,2.22,1.86,2.22S59.24,75.45,59.24,74.12Z"/><path class="cls-1" d="M61.07,71.19h1l.69,3.38c.11.55.2,1.06.27,1.61h0a14.82,14.82,0,0,1,.33-1.61l.72-3h1l.7,3a15.5,15.5,0,0,1,.36,1.61h0c.09-.55.15-1.06.26-1.61l.7-3.38h.91L66.83,77H65.56l-.67-2.78c-.1-.41-.19-1-.29-1.73h0a15.63,15.63,0,0,1-.29,1.73L63.62,77H62.35Z"/><path class="cls-1" d="M76.49,71.19h.82l.08.74h0a3.12,3.12,0,0,1,2-.88c1.58,0,2.41,1.16,2.41,3,0,2-1.24,3.14-2.65,3.14a2.72,2.72,0,0,1-1.73-.75h0l0,1.1v2h-1ZM80.84,74c0-1.28-.48-2.13-1.65-2.13a2.48,2.48,0,0,0-1.7.86v2.9a2.44,2.44,0,0,0,1.55.67C80.07,76.32,80.84,75.46,80.84,74Z"/><path class="cls-1" d="M83.3,74.12a2.88,2.88,0,1,1,2.88,3A2.85,2.85,0,0,1,83.3,74.12Zm4.74,0c0-1.35-.75-2.25-1.86-2.25s-1.86.9-1.86,2.25.74,2.22,1.86,2.22S88,75.45,88,74.12Z"/><path class="cls-1" d="M92.73,75.06V69.28H90.67v-.8h3v6.66a1.06,1.06,0,0,0,1.16,1.2A2.68,2.68,0,0,0,96,76.07l.25.74a3.53,3.53,0,0,1-1.56.35C93.41,77.16,92.73,76.44,92.73,75.06Z"/><path class="cls-1" d="M99.93,75.06V69.28H97.87v-.8h3v6.66a1.06,1.06,0,0,0,1.16,1.2,2.68,2.68,0,0,0,1.09-.27l.25.74a3.5,3.5,0,0,1-1.56.35C100.61,77.16,99.93,76.44,99.93,75.06Z"/><path class="cls-1" d="M105.1,74.81V71.19h1v3.49c0,1.09.38,1.62,1.34,1.62a2.31,2.31,0,0,0,1.81-1.07v-4h1V77h-.83l-.09-1h0a2.85,2.85,0,0,1-2.17,1.16C105.74,77.16,105.1,76.35,105.1,74.81Z"/><path class="cls-1" d="M113.85,74.75V72h-1.66v-.74l1.69-.06.14-1.87h.82v1.87h2.86V72h-2.86v2.77c0,1,.35,1.59,1.48,1.59a3.74,3.74,0,0,0,1.39-.27l.22.73a5,5,0,0,1-1.83.35C114.4,77.16,113.85,76.19,113.85,74.75Z"/><path class="cls-1" d="M122.36,72h-2.7v-.8h3.69V77h-1ZM122,69.2a.79.79,0,0,1,1.58,0,.79.79,0,0,1-1.58,0Z"/><path class="cls-1" d="M126.5,74.12a2.88,2.88,0,1,1,2.88,3A2.85,2.85,0,0,1,126.5,74.12Zm4.73,0c0-1.35-.74-2.25-1.85-2.25s-1.86.9-1.86,2.25.74,2.22,1.86,2.22S131.23,75.45,131.23,74.12Z"/><path class="cls-1" d="M134.09,71.19h.82l.08,1h0a3,3,0,0,1,2.19-1.12c1.38,0,2,.81,2,2.35V77h-1V73.53c0-1.1-.38-1.62-1.33-1.62-.69,0-1.16.35-1.83,1V77h-1Z"/><path class="cls-1" d="M150.33,75.06V69.28h-2.07v-.8h3.06v6.66a1.05,1.05,0,0,0,1.15,1.2,2.68,2.68,0,0,0,1.1-.27l.25.74a3.53,3.53,0,0,1-1.56.35C151,77.16,150.33,76.44,150.33,75.06Z"/><path class="cls-1" d="M155.39,74.09a2.93,2.93,0,0,1,3-3A2.5,2.5,0,0,1,161,73.78a3.37,3.37,0,0,1-.05.6h-4.93v-.77h4.34l-.25.28c0-1.38-.68-2.06-1.75-2.06a2,2,0,0,0-2,2.26,2.11,2.11,0,0,0,2.27,2.28,3.15,3.15,0,0,0,1.78-.55l.36.65a4,4,0,0,1-2.25.69A3,3,0,0,1,155.39,74.09Z"/><path class="cls-1" d="M162.38,71.19h1l1.34,3.3c.23.59.44,1.16.65,1.73h.05c.2-.57.39-1.14.63-1.73l1.34-3.3h1L166,77h-1.12Z"/><path class="cls-1" d="M169.79,74.09a2.93,2.93,0,0,1,3-3,2.5,2.5,0,0,1,2.66,2.73,4.66,4.66,0,0,1-.05.6h-4.93v-.77h4.34l-.25.28c0-1.38-.68-2.06-1.75-2.06a2,2,0,0,0-2,2.26,2.11,2.11,0,0,0,2.27,2.28,3.15,3.15,0,0,0,1.78-.55l.36.65a4,4,0,0,1-2.26.69A3,3,0,0,1,169.79,74.09Z"/><path class="cls-1" d="M179.13,75.06V69.28h-2.07v-.8h3.06v6.66a1.05,1.05,0,0,0,1.15,1.2,2.68,2.68,0,0,0,1.1-.27l.25.74a3.53,3.53,0,0,1-1.56.35C179.81,77.16,179.13,76.44,179.13,75.06Z"/><path class="cls-1" d="M184.23,76.25l.45-.66a4.19,4.19,0,0,0,2.53.79c1,0,1.47-.4,1.47-.9s-.23-.75-1.81-1.08-2.28-.82-2.28-1.7.83-1.65,2.42-1.65a4.31,4.31,0,0,1,2.35.74l-.48.64a3.38,3.38,0,0,0-1.95-.62c-1,0-1.35.4-1.35.84s.51.72,1.71,1c1.93.42,2.4.9,2.4,1.8s-.93,1.74-2.6,1.74A5.14,5.14,0,0,1,184.23,76.25Z"/><circle class="cls-3" cx="29.47" cy="100.49" r="8.71"/><path class="cls-1" d="M47.44,96.72h1.23l1.1,3.36.38,1.27h.05l.37-1.27,1.12-3.36h1.22v7.87H52v-3.93c0-.77.12-2.11.17-2.78h0l-.44,1.53-1.13,3.09h-.72l-1.1-3.09-.46-1.53h0c.07.67.17,2,.17,2.78v3.93h-.94Z"/><path class="cls-1" d="M54.5,101.69a2.88,2.88,0,1,1,2.88,3A2.85,2.85,0,0,1,54.5,101.69Zm4.74,0c0-1.34-.75-2.24-1.86-2.24s-1.86.9-1.86,2.24.74,2.22,1.86,2.22S59.24,103,59.24,101.69Z"/><path class="cls-1" d="M61.7,101.69a2.8,2.8,0,0,1,2.64-3.07,2.55,2.55,0,0,1,1.75.74h0l0-1.06V96.05h1v8.54h-.82l-.08-.77h0a2.76,2.76,0,0,1-1.9.92C62.71,104.74,61.7,103.63,61.7,101.69ZM66.06,103v-2.9a2.15,2.15,0,0,0-1.52-.67,2,2,0,0,0-1.82,2.22c0,1.39.65,2.22,1.71,2.22A2.18,2.18,0,0,0,66.06,103Z"/><path class="cls-1" d="M69,101.67a2.93,2.93,0,0,1,3-3,2.5,2.5,0,0,1,2.66,2.73,3.28,3.28,0,0,1,0,.6H69.65v-.76H74l-.26.27c0-1.38-.68-2.06-1.75-2.06a2,2,0,0,0-2,2.27,2.11,2.11,0,0,0,2.28,2.27,3.15,3.15,0,0,0,1.77-.55l.36.65a4,4,0,0,1-2.25.7A3,3,0,0,1,69,101.67Z"/><path class="cls-1" d="M77.12,98.76h.82l.1,1.38h0a3.09,3.09,0,0,1,2.61-1.52,2.45,2.45,0,0,1,1.15.24l-.23.85a3,3,0,0,0-1.08-.19,2.74,2.74,0,0,0-2.4,1.67v3.4h-1Z"/><path class="cls-1" d="M83.54,103.08c0-1.31,1.22-1.94,4.23-2.18a1.39,1.39,0,0,0-1.55-1.47,4,4,0,0,0-2,.7l-.4-.67a5,5,0,0,1,2.6-.84,2.17,2.17,0,0,1,2.38,2.4v3.57h-.83l-.09-.79h0a4,4,0,0,1-2.29.94A1.77,1.77,0,0,1,83.54,103.08Zm4.23,0v-1.51c-2.49.19-3.25.68-3.25,1.45s.6.92,1.27.92A3.18,3.18,0,0,0,87.77,103.07Z"/><path class="cls-1" d="M92.25,102.33V99.57H90.59v-.75l1.69-.06.14-1.87h.82v1.87H96.1v.81H93.24v2.77c0,1,.35,1.58,1.48,1.58a4,4,0,0,0,1.39-.26l.22.73a5.18,5.18,0,0,1-1.83.35C92.8,104.74,92.25,103.76,92.25,102.33Z"/><path class="cls-1" d="M97.79,101.67a2.93,2.93,0,0,1,3-3,2.5,2.5,0,0,1,2.66,2.73,3.28,3.28,0,0,1-.05.6H98.45v-.76h4.34l-.25.27c0-1.38-.68-2.06-1.75-2.06a2,2,0,0,0-2,2.27,2.11,2.11,0,0,0,2.28,2.27,3.15,3.15,0,0,0,1.77-.55l.36.65a4,4,0,0,1-2.25.7A3,3,0,0,1,97.79,101.67Z"/><path class="cls-1" d="M112.49,98.76h.82l.08.75h0a3.08,3.08,0,0,1,2-.89c1.57,0,2.41,1.16,2.41,3,0,2-1.24,3.15-2.65,3.15a2.78,2.78,0,0,1-1.74-.76h0l0,1.1v2h-1Zm4.34,2.83c0-1.28-.48-2.13-1.64-2.13a2.48,2.48,0,0,0-1.7.86v2.9a2.41,2.41,0,0,0,1.55.68C116.07,103.9,116.83,103,116.83,101.59Z"/><path class="cls-1" d="M119.3,101.69a2.88,2.88,0,1,1,2.88,3A2.85,2.85,0,0,1,119.3,101.69Zm4.73,0c0-1.34-.74-2.24-1.85-2.24s-1.86.9-1.86,2.24.74,2.22,1.86,2.22S124,103,124,101.69Z"/><path class="cls-1" d="M128.73,102.64V96.86h-2.06v-.81h3v6.66a1.05,1.05,0,0,0,1.15,1.2,2.68,2.68,0,0,0,1.1-.27l.25.75a3.53,3.53,0,0,1-1.56.35C129.41,104.74,128.73,104,128.73,102.64Z"/><path class="cls-1" d="M135.93,102.64V96.86h-2.07v-.81h3.06v6.66a1.05,1.05,0,0,0,1.15,1.2,2.68,2.68,0,0,0,1.1-.27l.25.75a3.53,3.53,0,0,1-1.56.35C136.61,104.74,135.93,104,135.93,102.64Z"/><path class="cls-1" d="M141.1,102.39V98.76h1v3.49c0,1.09.38,1.62,1.34,1.62a2.31,2.31,0,0,0,1.81-1.07v-4h1v5.83h-.83l-.09-1h0a2.83,2.83,0,0,1-2.17,1.17C141.74,104.74,141.1,103.92,141.1,102.39Z"/><path class="cls-1" d="M149.85,102.33V99.57h-1.66v-.75l1.69-.06.14-1.87h.82v1.87h2.86v.81h-2.86v2.77c0,1,.35,1.58,1.48,1.58a4,4,0,0,0,1.39-.26l.22.73a5.18,5.18,0,0,1-1.83.35C150.4,104.74,149.85,103.76,149.85,102.33Z"/><path class="cls-1" d="M158.35,99.57h-2.69v-.81h3.69v5.83h-1Zm-.39-2.8a.79.79,0,0,1,1.58,0,.79.79,0,0,1-1.58,0Z"/><path class="cls-1" d="M162.5,101.69a2.88,2.88,0,1,1,2.88,3A2.85,2.85,0,0,1,162.5,101.69Zm4.73,0c0-1.34-.74-2.24-1.85-2.24s-1.86.9-1.86,2.24.74,2.22,1.86,2.22S167.23,103,167.23,101.69Z"/><path class="cls-1" d="M170.09,98.76h.82l.08,1h0a3,3,0,0,1,2.19-1.13c1.38,0,2,.81,2,2.35v3.62h-1V101.1c0-1.1-.38-1.62-1.33-1.62-.69,0-1.16.35-1.83,1v4.06h-1Z"/><path class="cls-1" d="M186.33,102.64V96.86h-2.07v-.81h3.06v6.66a1.05,1.05,0,0,0,1.15,1.2,2.6,2.6,0,0,0,1.09-.27l.26.75a3.53,3.53,0,0,1-1.56.35C187,104.74,186.33,104,186.33,102.64Z"/><path class="cls-1" d="M191.39,101.67a2.93,2.93,0,0,1,3-3,2.5,2.5,0,0,1,2.66,2.73,3.28,3.28,0,0,1-.05.6h-4.93v-.76h4.34l-.25.27c0-1.38-.68-2.06-1.75-2.06a2,2,0,0,0-2,2.27,2.1,2.1,0,0,0,2.27,2.27,3.15,3.15,0,0,0,1.78-.55l.36.65a4,4,0,0,1-2.26.7A3,3,0,0,1,191.39,101.67Z"/><path class="cls-1" d="M198.38,98.76h1l1.34,3.3c.23.59.44,1.16.65,1.73h0c.21-.57.4-1.14.64-1.73l1.34-3.3h1L202,104.59h-1.12Z"/><path class="cls-1" d="M205.79,101.67a2.93,2.93,0,0,1,3-3,2.51,2.51,0,0,1,2.66,2.73,4.51,4.51,0,0,1-.05.6h-4.93v-.76h4.34l-.25.27c0-1.38-.68-2.06-1.75-2.06a2.05,2.05,0,0,0-2,2.27,2.11,2.11,0,0,0,2.28,2.27,3.15,3.15,0,0,0,1.78-.55l.36.65a4,4,0,0,1-2.26.7A3,3,0,0,1,205.79,101.67Z"/><path class="cls-1" d="M215.13,102.64V96.86h-2.07v-.81h3.06v6.66a1.05,1.05,0,0,0,1.15,1.2,2.6,2.6,0,0,0,1.09-.27l.26.75a3.53,3.53,0,0,1-1.56.35C215.81,104.74,215.13,104,215.13,102.64Z"/><path class="cls-1" d="M220.23,103.82l.45-.66a4.17,4.17,0,0,0,2.53.8c1,0,1.47-.41,1.47-.9s-.23-.76-1.81-1.08-2.28-.83-2.28-1.71.83-1.65,2.42-1.65a4.4,4.4,0,0,1,2.35.74l-.48.64a3.45,3.45,0,0,0-1.95-.61c-1,0-1.35.39-1.35.84s.51.72,1.71,1c1.93.42,2.39.9,2.39,1.8s-.92,1.74-2.59,1.74A5,5,0,0,1,220.23,103.82Z"/><circle class="cls-4" cx="29.47" cy="128.07" r="8.71"/><path class="cls-1" d="M47.53,124.3h1v3.28h3.26V124.3h1v7.86h-1v-3.69H48.55v3.69h-1Z"/><path class="cls-1" d="M57.56,127.14h-2.7v-.8h3.69v5.82h-1Zm-.4-2.8a.79.79,0,0,1,1.58,0,.79.79,0,0,1-1.58,0Z"/><path class="cls-1" d="M61.84,133.23a1.61,1.61,0,0,1,1-1.29v-.05a1.06,1.06,0,0,1-.6-1,1.41,1.41,0,0,1,.7-1.09v-.05a1.85,1.85,0,0,1-.72-1.51,2.14,2.14,0,0,1,2.29-2.09,2.28,2.28,0,0,1,.86.15h2.41v.8H66.23a1.72,1.72,0,0,1,.49,1.17,2,2,0,0,1-2.25,2,2.39,2.39,0,0,1-1-.22.81.81,0,0,0-.46.67c0,.46.44.67,1.21.67h1.31c1.5,0,2.22.39,2.22,1.37s-1.26,2-3.24,2C62.83,134.85,61.84,134.26,61.84,133.23Zm5-.26c0-.55-.45-.71-1.34-.71H64.32a3,3,0,0,1-.88-.1c-.55.3-.75.64-.75,1,0,.61.66,1,1.91,1S66.8,133.57,66.8,133Zm-1-4.69a1.34,1.34,0,1,0-1.34,1.38A1.32,1.32,0,0,0,65.81,128.28Z"/><path class="cls-1" d="M69.29,123.62h1V126l-.06,1.38h0a2.9,2.9,0,0,1,2.17-1.14c1.37,0,2,.82,2,2.35v3.62h-1v-3.49c0-1.1-.39-1.62-1.34-1.62-.69,0-1.16.35-1.83,1v4.06h-1Z"/><path class="cls-1" d="M83.69,126.34h.82l.08.74h0a3.08,3.08,0,0,1,2-.89c1.57,0,2.41,1.16,2.41,3,0,2-1.24,3.14-2.65,3.14a2.73,2.73,0,0,1-1.73-.76h0l0,1.11v2h-1ZM88,129.17c0-1.29-.48-2.14-1.65-2.14a2.48,2.48,0,0,0-1.7.86v2.91a2.44,2.44,0,0,0,1.55.67C87.27,131.47,88,130.6,88,129.17Z"/><path class="cls-1" d="M90.5,129.26a2.88,2.88,0,1,1,2.88,3.05A2.86,2.86,0,0,1,90.5,129.26Zm4.73,0c0-1.34-.74-2.24-1.85-2.24s-1.86.9-1.86,2.24.74,2.22,1.86,2.22S95.23,130.59,95.23,129.26Z"/><path class="cls-1" d="M99.93,130.21v-5.78H97.87v-.81h3v6.66a1.06,1.06,0,0,0,1.16,1.2,2.65,2.65,0,0,0,1.09-.26l.25.74a3.5,3.5,0,0,1-1.56.35C100.61,132.31,99.93,131.59,99.93,130.21Z"/><path class="cls-1" d="M107.13,130.21v-5.78h-2.06v-.81h3.05v6.66a1.05,1.05,0,0,0,1.15,1.2,2.66,2.66,0,0,0,1.1-.26l.25.74a3.53,3.53,0,0,1-1.56.35C107.81,132.31,107.13,131.59,107.13,130.21Z"/><path class="cls-1" d="M112.3,130v-3.62h1v3.49c0,1.09.38,1.61,1.34,1.61a2.32,2.32,0,0,0,1.81-1.06v-4h1v5.82h-.83l-.09-1h0a2.83,2.83,0,0,1-2.17,1.17C112.94,132.31,112.3,131.49,112.3,130Z"/><path class="cls-1" d="M121.05,129.9v-2.76h-1.66v-.74l1.69-.06.14-1.88H122v1.88h2.86v.8H122v2.77c0,1,.35,1.58,1.48,1.58a4,4,0,0,0,1.39-.26l.22.73a5.18,5.18,0,0,1-1.83.35C121.6,132.31,121.05,131.34,121.05,129.9Z"/><path class="cls-1" d="M129.56,127.14h-2.7v-.8h3.69v5.82h-1Zm-.4-2.8a.79.79,0,0,1,1.58,0,.79.79,0,0,1-1.58,0Z"/><path class="cls-1" d="M133.7,129.26a2.88,2.88,0,1,1,2.88,3.05A2.86,2.86,0,0,1,133.7,129.26Zm4.73,0c0-1.34-.74-2.24-1.85-2.24s-1.86.9-1.86,2.24.74,2.22,1.86,2.22S138.43,130.59,138.43,129.26Z"/><path class="cls-1" d="M141.29,126.34h.82l.08,1h.05a3,3,0,0,1,2.2-1.13c1.37,0,2,.82,2,2.35v3.62h-1v-3.49c0-1.1-.38-1.62-1.33-1.62-.69,0-1.16.35-1.83,1v4.06h-1Z"/><path class="cls-1" d="M157.53,130.21v-5.78h-2.07v-.81h3.06v6.66a1.05,1.05,0,0,0,1.15,1.2,2.66,2.66,0,0,0,1.1-.26l.25.74a3.53,3.53,0,0,1-1.56.35C158.21,132.31,157.53,131.59,157.53,130.21Z"/><path class="cls-1" d="M162.59,129.24a2.93,2.93,0,0,1,3-3.05,2.51,2.51,0,0,1,2.66,2.74,3.45,3.45,0,0,1,0,.6h-4.93v-.77h4.34l-.25.27c0-1.38-.68-2.06-1.75-2.06a2.05,2.05,0,0,0-2,2.27,2.11,2.11,0,0,0,2.27,2.28,3.16,3.16,0,0,0,1.78-.56l.36.65a4,4,0,0,1-2.26.7A3,3,0,0,1,162.59,129.24Z"/><path class="cls-1" d="M169.58,126.34h1l1.34,3.29c.23.59.44,1.17.65,1.73h0c.21-.56.4-1.14.64-1.73l1.34-3.29h1l-2.42,5.82H172Z"/><path class="cls-1" d="M177,129.24a2.93,2.93,0,0,1,3-3.05,2.51,2.51,0,0,1,2.66,2.74,4.83,4.83,0,0,1,0,.6h-4.93v-.77H182l-.25.27c0-1.38-.68-2.06-1.75-2.06a2.05,2.05,0,0,0-2,2.27,2.11,2.11,0,0,0,2.27,2.28A3.16,3.16,0,0,0,182,131l.36.65a4,4,0,0,1-2.26.7A3,3,0,0,1,177,129.24Z"/><path class="cls-1" d="M186.33,130.21v-5.78h-2.07v-.81h3.06v6.66a1.05,1.05,0,0,0,1.15,1.2,2.58,2.58,0,0,0,1.09-.26l.26.74a3.53,3.53,0,0,1-1.56.35C187,132.31,186.33,131.59,186.33,130.21Z"/><path class="cls-1" d="M191.43,131.4l.45-.66a4.19,4.19,0,0,0,2.53.79c1,0,1.47-.41,1.47-.9s-.23-.76-1.81-1.08-2.28-.83-2.28-1.7.83-1.66,2.42-1.66a4.32,4.32,0,0,1,2.35.75l-.48.63a3.45,3.45,0,0,0-2-.61c-1,0-1.35.39-1.35.84s.51.72,1.71,1c1.93.42,2.4.9,2.4,1.8s-.93,1.74-2.6,1.74A5.14,5.14,0,0,1,191.43,131.4Z"/><rect class="cls-1" x="24.41" y="149.93" width="10.13" height="10.13"/><path class="cls-1" d="M47.21,155.24c0-2.55,1.46-4.08,3.5-4.08a2.9,2.9,0,0,1,2.17,1l-.58.63a2.06,2.06,0,0,0-1.59-.7c-1.48,0-2.44,1.21-2.44,3.16s.88,3.22,2.41,3.22A2,2,0,0,0,52,158v-2.05H50.48v-.83H53v3.31a3.27,3.27,0,0,1-2.35.91C48.64,159.31,47.21,157.8,47.21,155.24Z"/><path class="cls-1" d="M54.74,157.66c0-1.31,1.22-1.94,4.23-2.18A1.39,1.39,0,0,0,57.42,154a4,4,0,0,0-2,.7L55,154a5,5,0,0,1,2.6-.84A2.17,2.17,0,0,1,60,155.6v3.57h-.83l-.08-.79h0a4,4,0,0,1-2.29.93A1.77,1.77,0,0,1,54.74,157.66Zm4.23,0v-1.51c-2.49.19-3.25.68-3.25,1.45s.6.92,1.27.92A3.18,3.18,0,0,0,59,157.65Z"/><path class="cls-1" d="M61.83,158.4l.46-.66a4.15,4.15,0,0,0,2.53.79c1,0,1.46-.4,1.46-.89s-.23-.76-1.81-1.08-2.28-.83-2.28-1.71.83-1.65,2.42-1.65a4.4,4.4,0,0,1,2.35.74l-.48.64a3.45,3.45,0,0,0-2-.61c-1,0-1.34.39-1.34.83s.5.72,1.7,1c1.93.42,2.4.9,2.4,1.8s-.93,1.73-2.59,1.73A5.15,5.15,0,0,1,61.83,158.4Z"/><path class="cls-1" d="M76.49,153.34h.82l.08.74h0a3.12,3.12,0,0,1,2-.88c1.58,0,2.42,1.16,2.42,3,0,2-1.25,3.14-2.66,3.14a2.74,2.74,0,0,1-1.73-.75h0l0,1.1v2h-1Zm4.35,2.83c0-1.28-.48-2.13-1.65-2.13a2.48,2.48,0,0,0-1.7.86v2.9a2.44,2.44,0,0,0,1.55.67C80.07,158.47,80.84,157.61,80.84,156.17Z"/><path class="cls-1" d="M85.53,157.22v-5.79H83.47v-.8h3v6.66a1.06,1.06,0,0,0,1.16,1.2,2.68,2.68,0,0,0,1.09-.27L89,159a3.64,3.64,0,0,1-1.56.34C86.21,159.31,85.53,158.59,85.53,157.22Z"/><path class="cls-1" d="M90.74,157.66c0-1.31,1.22-1.94,4.23-2.18A1.39,1.39,0,0,0,93.42,154a4,4,0,0,0-2,.7L91,154a5,5,0,0,1,2.6-.84A2.17,2.17,0,0,1,96,155.6v3.57h-.83l-.08-.79h0a4,4,0,0,1-2.29.93A1.77,1.77,0,0,1,90.74,157.66Zm4.23,0v-1.51c-2.49.19-3.25.68-3.25,1.45s.6.92,1.27.92A3.18,3.18,0,0,0,95,157.65Z"/><path class="cls-1" d="M98.09,153.34h.82l.08,1H99a3,3,0,0,1,2.2-1.13c1.38,0,2,.81,2,2.35v3.62h-1v-3.49c0-1.1-.39-1.62-1.34-1.62-.69,0-1.16.35-1.83,1v4.07h-1Z"/><path class="cls-1" d="M106.65,156.9v-2.75H105v-.75l1.7-.06.13-1.87h.82v1.87h2.86v.81h-2.86v2.77c0,1,.35,1.58,1.48,1.58a3.74,3.74,0,0,0,1.39-.27l.22.74a5.15,5.15,0,0,1-1.83.34C107.2,159.31,106.65,158.34,106.65,156.9Z"/></svg>